<svg xmlns="http://www.w3.org/2000/svg" width="16" height="16" viewBox="0 0 16 16">
  <g fill="none" transform="translate(1.5 1)">
    <polygon fill="#585E6F" points="6.5 0 .062 2.324 1.044 10.941 6.5 14"/>
    <polygon fill="#585E6F" points="6.5 0 6.5 1.554 6.5 1.547 6.5 8.638 6.5 8.638 6.5 14 6.5 14 11.956 10.941 12.938 2.324" opacity=".7"/>
    <path fill="#181E24" d="M6.5,1.547 L2.47553191,10.682 L2.47553191,10.682 L3.97606383,10.682 L3.97606383,10.682 L4.78510638,8.638 L8.20106383,8.638 L9.01010638,10.682 L9.01010638,10.682 L10.5106383,10.682 L10.5106383,10.682 L6.5,1.547 L6.5,1.547 L6.5,1.547 L6.5,1.547 L6.5,1.547 Z M7.67553191,7.378 L5.32446809,7.378 L6.5,4.515 L7.67553191,7.378 Z"/>
  </g>
</svg>
