<svg xmlns="http://www.w3.org/2000/svg" width="16" height="16" viewBox="0 0 16 16">
  <g fill="#5B6071" transform="rotate(11 12.293 17.816)">
    <path d="M10.7964653,0.111111111 C10.1187614,0.233412839 9.53970536,0.75856799 8.74749757,1.47548572 L9.71515152,2.6078076 C10.225974,2.0661079 10.7454545,1.57832144 11.2692641,1.1624193 C11.3099567,1.12968626 11.3307359,1.11364065 11.3307359,1.11364065 C11.3099567,1.12968626 11.2900433,1.14637369 11.2692641,1.1624193 C11.1004329,1.30105335 10.8655743,1.8199283 10.0898167,2.70307852 C10.8361371,2.67548008 11.8308062,2.46442397 12.7667369,2.34568648 C13.0455248,1.1891191 12.4940097,0.660255889 12.4940097,0.660255889 C12.4940097,0.660255889 11.7686054,-0.0643260184 10.7964653,0.111111111 Z"/>
    <path d="M7.56883117,5.24057085 C7.36103896,5.52810813 7.15670996,5.82142183 6.95411255,6.12051195 L5.93449817,4.56272117 C5.94229038,4.55309381 6.47394371,3.77720482 8.8217686,1.43389768 L9.71515152,2.60909125 C9.47359307,2.86517914 9.23376623,3.1334617 8.9965368,3.41201344 C8.98268398,3.42870087 8.96796537,3.4453883 8.95411255,3.46207574 C8.71341991,3.74576207 8.47619048,4.0397176 8.24069264,4.34265866 C8.01385281,4.63404689 7.79047619,4.93442066 7.56883117,5.24057085 Z M10.1221442,2.67839366 C10.8684646,2.65079522 11.8320735,2.44412779 12.76887,2.32474848 C12.7420302,2.43706773 12.708264,2.55452157 12.6641081,2.67839366 C12.6147575,2.81895318 12.5420302,2.97876743 12.4519869,3.15077634 C12.3108614,3.42034254 12.1264458,3.72071631 11.916922,4.02301555 C11.7004718,4.33558398 11.3307359,4.6950202 11.0831169,4.98127383 C11.0025974,5.07433835 10.9212121,5.16483558 10.8406926,5.25084003 C10.5367965,5.56405029 10.2233766,5.78034507 9.52207792,6.01910371 L7.57472386,6.18680872 C8.37943211,4.79070979 9.90829142,2.92164507 10.1221442,2.67839366 Z" opacity=".9"/>
    <path d="M3.25367965,13.0567071 C3.27705628,13.0085702 3.3004329,12.9610752 3.32467532,12.9129384 L4.09090909,12.8506815 C5.08616906,12.9844846 6.89788055,12.1861656 6.91948052,12.1697059 C6.91948052,12.8506815 5.71601732,13.3756937 4.75844156,13.6933968 C5.40952381,13.7203534 5.9339288,13.6158246 6.12618575,13.7319062 C5.71111571,14.5155737 4.63030303,14.6102211 3.25367965,14.5640098 C3.56363636,14.7764536 3.18095238,15.0020765 3.2034632,15.2941065 C2.99134199,15.0123457 2.76709957,14.7639597 2.48831169,14.6696115 C2.65800866,14.302488 2.73246753,14.1413901 2.81731602,13.9623211 C2.83549784,13.9244535 2.85281385,13.8865859 2.87099567,13.8493601 C2.87272727,13.8455091 2.87445887,13.8416582 2.87619048,13.8378072 C3.0025974,13.5727338 3.12813853,13.3121531 3.25367965,13.0567071 Z M2.14718615,11.4129951 C2.15151515,11.3969494 2.15670996,11.380262 2.16017316,11.3635746 C2.79393939,12.2937919 3.11053391,12.7593285 3.10995671,12.7601842 C3.07792208,12.8224412 3.04675325,12.8846982 3.01558442,12.9469551 C2.87878788,13.2197304 2.74632035,13.488013 2.61818182,13.7498773 C2.60865801,13.7704157 2.5982684,13.7903122 2.58874459,13.8102088 C2.55411255,13.8820931 2.51510293,13.9434879 2.48484848,14.0245781 C1.59761415,16.4026099 1.4155984,16.9543732 1.29958109,17.2444777 C1.23291442,17.3799027 0.618181818,17.8634192 0.418181818,17.9077051 C0.740666234,16.638027 1.16577446,15.5110536 1.69350649,14.5267849 C1.28225108,14.4574679 0.974025974,14.5367539 0.264069264,14.7511232 C0.74978355,14.4796315 1.23116883,14.244082 1.69350649,14.2229018 C1.54632035,14.1978707 1.16796537,14.1028807 0.664935065,13.7601465 C1.14718615,13.8917205 1.56536797,13.9584702 1.87012987,13.9122588 C1.80606061,13.3153623 1.29958109,13.2566099 0.804329004,12.0958961 C0.802597403,12.092687 1.57316017,12.1040447 1.87012987,12.4570481 C1.87186147,12.4416443 2.02770563,11.8590629 2.14718615,11.4129951 Z" opacity=".65"/>
    <path d="M3.61125541,11.7846113 C3.57402597,11.8564956 3.53593074,11.92838 3.5004329,11.9989806 C3.36709957,12.2550685 3.23809524,12.5079473 3.11255411,12.7569751 L2.16103896,11.3642164 C3.61125541,6.71869219 5.70853136,4.81607832 5.92931058,4.54907941 C5.9397002,4.53667081 6.28158945,5.05983983 6.95497835,6.11858648 C6.94805195,6.12885567 6.94112554,6.13848303 6.93419913,6.14875222 C6.80606061,6.33744856 6.67965368,6.52742855 6.55411255,6.71869219 C6.48138528,6.82972779 6.40952381,6.94076339 6.33766234,7.05244082 C6.13852814,7.36180013 5.94285714,7.67436856 5.75064935,7.98886246 C5.55584416,8.30656548 5.36536797,8.62619398 5.17835498,8.94582248 C4.99480519,9.26031638 4.81471861,9.57416846 4.63896104,9.88802054 C4.46233766,10.2012308 4.29090909,10.5131574 4.12294372,10.8231585 C3.94718615,11.146638 3.77662338,11.4675501 3.61125541,11.7846113 Z M3.34178133,12.9221382 C3.47077896,12.6608264 6.46154412,7.63697762 7.52809886,6.1943752 C8.59465361,4.75177278 9.50512792,6.02705607 9.5038961,6.02744743 C9.53939394,6.02295466 9.57575758,6.01910371 9.62683983,6.01204364 L10.3307359,5.95492128 L9.62683983,6.01204364 C9.98354978,5.963265 10.425974,5.85928946 10.6839827,5.74504474 C10.7212121,5.72899913 10.7549784,5.71166988 10.7835498,5.69498244 C10.774026,5.73991014 10.7558442,5.8021671 10.7272727,5.88046966 C10.7073593,5.93245743 10.6831169,5.99214709 10.6528139,6.05889682 C10.64329,6.08136067 10.6320346,6.10446634 10.6207792,6.12821384 C10.5922078,6.1879035 10.5593074,6.25272775 10.5212121,6.32204478 C10.4450216,6.46132065 10.3497835,6.61985125 10.230303,6.79763658 C10.2034632,6.83614603 10.1766234,6.87593914 10.1480519,6.91701589 C10.1255411,6.94461434 10.1030303,6.97221278 10.0805195,6.9991694 C10.0060606,7.08709933 9.92640693,7.16796919 9.84155844,7.24306263 C9.80606061,7.27515385 9.76796537,7.30596142 9.72987013,7.33612716 C9.66926407,7.38298033 9.60692641,7.42790803 9.54025974,7.47026843 C9.4969697,7.4985087 9.45194805,7.5248235 9.40519481,7.55113829 C9.18787879,7.67244309 8.93766234,7.7757768 8.63896104,7.86819949 C8.65454545,7.86691585 8.66926407,7.86499037 8.68484848,7.8630649 C8.74632035,7.85600483 8.80692641,7.84830294 8.86666667,7.83867558 C9.3047619,7.76743308 9.67012987,7.61852984 9.89437229,7.50492695 C9.5030303,8.08128516 8.96450216,8.55174236 8.10822511,8.79563559 C8.15757576,8.790501 8.64155844,9.04903795 9.72987013,8.79499377 C9.2251982,10.7345963 5.93493746,12.6579386 5.09090909,12.8542608 C4.60516891,12.9672447 3.34178133,12.984887 3.34178133,12.9221382 Z" opacity=".75"/>
  </g>
</svg>
