<svg xmlns="http://www.w3.org/2000/svg" width="16" height="16" viewBox="0 0 16 16">
  <g fill="#585E6F" fill-rule="evenodd">
    <path d="M1,1 L14,1 L14,1 C14.5522847,1 15,1.44771525 15,2 L15,14 C15,14.5522847 14.5522847,15 14,15 L1,15 C0.44771525,15 2.8967998e-16,14.5522847 2.22044605e-16,14 L-3.94430453e-31,2 L-3.94430453e-31,2 C-6.76353751e-17,1.44771525 0.44771525,1 1,1 L1,1 Z M2.5,6 C2.22385763,6 2,6.22385763 2,6.5 L2,9.5 C2,9.77614237 2.22385763,10 2.5,10 C2.77614237,10 3,9.77614237 3,9.5 L3,6.5 C3,6.22385763 2.77614237,6 2.5,6 Z M4.5,5 C4.22385763,5 4,5.22385763 4,5.5 L4,10.5 C4,10.7761424 4.22385763,11 4.5,11 C4.77614237,11 5,10.7761424 5,10.5 L5,5.5 C5,5.22385763 4.77614237,5 4.5,5 Z M6.5,4 C6.22385763,4 6,4.22385763 6,4.5 L6,11.5 C6,11.7761424 6.22385763,12 6.5,12 C6.77614237,12 7,11.7761424 7,11.5 L7,4.5 C7,4.22385763 6.77614237,4 6.5,4 Z M8.5,6 C8.22385763,6 8,6.22385763 8,6.5 L8,9.5 C8,9.77614237 8.22385763,10 8.5,10 C8.77614237,10 9,9.77614237 9,9.5 L9,6.5 C9,6.22385763 8.77614237,6 8.5,6 Z M10.5,5 C10.2238576,5 10,5.22385763 10,5.5 L10,10.5 C10,10.7761424 10.2238576,11 10.5,11 C10.7761424,11 11,10.7761424 11,10.5 L11,5.5 C11,5.22385763 10.7761424,5 10.5,5 Z M12.5,7 C12.2238576,7 12,7.22385763 12,7.5 L12,8.5 C12,8.77614237 12.2238576,9 12.5,9 C12.7761424,9 13,8.77614237 13,8.5 L13,7.5 C13,7.22385763 12.7761424,7 12.5,7 Z" opacity=".85"/>
    <path d="M11,5.63791837 L11,5.5 C11,5.22385763 10.7761424,5 10.5,5 C10.2238576,5 10,5.22385763 10,5.5 L10,6.58782291 L9,7.53772745 L9,6.5 C9,6.22385763 8.77614237,6 8.5,6 C8.22385763,6 8,6.22385763 8,6.5 L8,8.48763199 L7,9.43753654 L7,4.5 C7,4.22385763 6.77614237,4 6.5,4 C6.22385763,4 6,4.22385763 6,4.5 L6,10.3874411 L1.68871308,14.4827521 L1.68871308,14.4827521 C1.28828787,14.8631178 0.655331741,14.8468564 0.274966008,14.4464312 C0.0984301804,14.2605853 1.26387553e-15,14.0140452 7.77156117e-16,13.7577181 L2.35804895e-15,2 L2.44249065e-15,2 C2.37485528e-15,1.44771525 0.44771525,1 1,1 L1,1 L13.3777891,1 L13.3777891,1 C13.9300739,1 14.3777891,1.44771525 14.3777891,2 C14.3777891,2.27412862 14.2652548,2.53623803 14.0665022,2.72503399 L11,5.63791837 Z M2.5,6 C2.22385763,6 2,6.22385763 2,6.5 L2,9.5 C2,9.77614237 2.22385763,10 2.5,10 C2.77614237,10 3,9.77614237 3,9.5 L3,6.5 C3,6.22385763 2.77614237,6 2.5,6 Z M4.5,5 C4.22385763,5 4,5.22385763 4,5.5 L4,10.5 C4,10.7761424 4.22385763,11 4.5,11 C4.77614237,11 5,10.7761424 5,10.5 L5,5.5 C5,5.22385763 4.77614237,5 4.5,5 Z"/>
  </g>
</svg>
