<svg xmlns="http://www.w3.org/2000/svg" width="16" height="16" viewBox="0 0 16 16">
  <g fill="none" fill-rule="evenodd">
    <path fill="#585E6F" d="M1,1 L15,1 C15.5522847,1 16,1.44771525 16,2 L16,14 C16,14.5522847 15.5522847,15 15,15 L1,15 C0.44771525,15 6.76353751e-17,14.5522847 0,14 L0,2 L0,2 C-6.76353751e-17,1.44771525 0.44771525,1 1,1 L1,1 Z M1.47485791,3.10778563 C1.82003588,3.10778563 2.09985791,2.8279636 2.09985791,2.48278563 C2.09985791,2.13760766 1.82003588,1.85778563 1.47485791,1.85778563 C1.12967994,1.85778563 0.849857911,2.13760766 0.849857911,2.48278563 C0.849857911,2.8279636 1.12967994,3.10778563 1.47485791,3.10778563 Z M3.47485791,3.10778563 C3.82003588,3.10778563 4.09985791,2.8279636 4.09985791,2.48278563 C4.09985791,2.13760766 3.82003588,1.85778563 3.47485791,1.85778563 C3.12967994,1.85778563 2.84985791,2.13760766 2.84985791,2.48278563 C2.84985791,2.8279636 3.12967994,3.10778563 3.47485791,3.10778563 Z M5.47485791,3.10778563 C5.82003588,3.10778563 6.09985791,2.8279636 6.09985791,2.48278563 C6.09985791,2.13760766 5.82003588,1.85778563 5.47485791,1.85778563 C5.12967994,1.85778563 4.84985791,2.13760766 4.84985791,2.48278563 C4.84985791,2.8279636 5.12967994,3.10778563 5.47485791,3.10778563 Z M1.99496528,7.00060471 L5.05637757,8.51640169 L4.77442333,8.51640169 L1.99496528,9.86691719 L1.99496528,11.1577854 L5.90110414,9.14662503 L5.90110414,7.78146854 L1.99496528,5.81778553 L1.99496528,7.00060471 Z M10.9306431,10.9577856 L10.9306431,9.78043066 L7.00080029,9.78043066 L7.00080029,10.9577856 L10.9306431,10.9577856 Z" opacity=".4"/>
    <path fill="#5A5F6F" d="M1.47485791,3.10778563 C1.12967994,3.10778563 0.849857911,2.8279636 0.849857911,2.48278563 C0.849857911,2.13760766 1.12967994,1.85778563 1.47485791,1.85778563 C1.82003588,1.85778563 2.09985791,2.13760766 2.09985791,2.48278563 C2.09985791,2.8279636 1.82003588,3.10778563 1.47485791,3.10778563 Z M3.47485791,3.10778563 C3.12967994,3.10778563 2.84985791,2.8279636 2.84985791,2.48278563 C2.84985791,2.13760766 3.12967994,1.85778563 3.47485791,1.85778563 C3.82003588,1.85778563 4.09985791,2.13760766 4.09985791,2.48278563 C4.09985791,2.8279636 3.82003588,3.10778563 3.47485791,3.10778563 Z M5.47485791,3.10778563 C5.12967994,3.10778563 4.84985791,2.8279636 4.84985791,2.48278563 C4.84985791,2.13760766 5.12967994,1.85778563 5.47485791,1.85778563 C5.82003588,1.85778563 6.09985791,2.13760766 6.09985791,2.48278563 C6.09985791,2.8279636 5.82003588,3.10778563 5.47485791,3.10778563 Z" opacity=".9"/>
    <path fill="#5A5F6F" d="M1.99496528,7.00060471 L1.99496528,5.81778553 L5.90110414,7.78146854 L5.90110414,9.14662503 L1.99496528,11.1577854 L1.99496528,9.86691719 L4.77442333,8.51640169 L5.05637757,8.51640169 L1.99496528,7.00060471 Z M10.9306431,10.9577856 L7.00080029,10.9577856 L7.00080029,9.78043066 L10.9306431,9.78043066"/>
  </g>
</svg>
