<svg xmlns="http://www.w3.org/2000/svg" width="16" height="16" viewBox="0 0 16 16">
  <path fill="#5B6071" fill-rule="evenodd" d="M2.4,0 L11.6,0 L11.6,0 C12.9254834,9.33778401e-16 14,1.0745166 14,2.4 L14,11.6 L14,11.6 C14,12.9254834 12.9254834,14 11.6,14 L2.4,14 L2.4,14 C1.0745166,14 1.78367986e-15,12.9254834 4.4408921e-16,11.6 L0,2.4 L0,2.4 C-1.623249e-16,1.0745166 1.0745166,6.8757656e-16 2.4,4.4408921e-16 Z M3.95507707,3.00264 L7.45358865,3.00264 C8.18550865,3.00264 8.77350865,3.16944 9.21510865,3.50576 C9.65670865,3.842 9.87854865,4.34744 9.87854865,5.02696 C9.87854865,5.43872 9.77790865,5.5445489 9.57670865,5.8373489 C9.37526865,6.1300689 9.08718865,6.3590289 8.71182865,6.5190289 C9.21526865,6.6493489 9.59710865,6.8871089 9.85558865,7.2555089 C10.1140686,7.6261489 10.2444686,8.0881489 10.2444686,8.6464689 C10.2444686,8.9667089 10.1872686,9.43480711 10.0728686,9.71152711 C9.95846865,9.99048711 9.77998865,10.2309671 9.53518865,10.4320071 C9.29038865,10.6333671 8.97942865,10.7936871 8.59726865,10.9124871 C8.21534865,11.0315271 7.76222865,11.0909671 7.23622865,11.0909671 L3.95507707,11.0909671 L3.95507707,3.00264 Z M7.52736,6.1759089 C7.87056,6.1759089 8.1564,6.0798289 8.3852,5.8831089 C8.614,5.6863889 8.72832,5.65384 8.72832,5.28768 C8.72832,4.876 8.62536,4.58568 8.41968,4.41872 C8.21384,4.2516 7.9164,4.16704 7.52752,4.16704 L5.38483707,4.16704 L5.38483707,6.1759089 L7.52736,6.1759089 Z M5.38483707,9.92440711 L7.72176,9.92440711 C8.15656,9.92440711 8.49504,9.81208711 8.73312,9.58568711 C8.9732,9.36152711 9.09464,8.8728689 9.09464,8.4611089 C9.09464,8.0562289 8.9756,7.7474289 8.73312,7.5277489 C8.49064,7.3082289 8.15656,7.2029489 7.72176,7.2029489 L5.38483707,7.2029489 L5.38483707,9.92440711 Z" transform="translate(1 1)"/>
</svg>
