<svg xmlns="http://www.w3.org/2000/svg" width="16" height="16" viewBox="0 0 16 16">
  <g fill="#5B6071" transform="translate(0 1)">
    <path d="M15.6782376,6.83165602 C14.856121,6.04535135 11.9292478,5.61197919 10.6321074,5.46908976 C10.6949324,5.3213846 9.56440605,5.11113514 9.60857019,4.95383292 C9.78539957,4.87674693 9.97629374,4.80502703 10.1736501,4.74514005 C10.1977019,4.81575921 10.9491924,5.11831851 11.0137453,5.24672637 C13.6220909,5.31834308 13.8111082,3.35115971 13.9171989,2.80295823 C14.0209398,2.26693366 14.101729,1.19936313 14.9964158,0.252522839 C13.6635087,-0.134111068 10.815689,0.746107739 10.1736501,2.21349349 C9.93237149,2.12350823 9.84217711,2.64651597 9.60300648,2.60541032 C9.43160259,1.91724324 8.53912743,0 6.19711447,0 C3.23186177,0 0,2.43500246 0,6.55698771 C0,10.0219017 1.3494138,13.7415544 3.19277589,14.0118553 C4.17008853,14.1551634 4.81015983,12.6213612 4.92858747,12.2295332 C5.02787041,12.4981818 5.44913679,14.2627828 5.54917999,14.475397 C5.6970504,14.789795 6.4427036,15.1711917 6.74196926,14.8449263 C7.12676408,15.0577126 7.83003085,15.1723302 8.21486022,14.6048658 C8.95594013,14.7608953 9.64863992,14.2121626 9.66294661,13.687283 C10.0265924,13.6679513 10.4679229,13.0148769 10.3885103,12.6101153 C10.3299704,12.3121251 9.22850972,10.4713464 8.98460475,10.1022555 C9.46743844,10.4931892 10.6904536,10.6038477 10.8389806,10.1024963 C11.6174514,10.7107224 12.8306177,10.3914742 12.9268251,9.89683047 C13.8727257,10.1414693 14.9576501,9.60417199 14.7795076,8.95342998 C16.2990929,8.84882555 16.1046048,7.23947912 15.6782376,6.83165602 Z" opacity=".4"/>
    <path d="M11.4471533 3.39938575C11.7744449 2.75301229 12.1857106 2.04723342 12.7051749 1.61058477 12.1334255 1.83995086 11.568933 2.52560688 11.2351793 3.258457 11.065054 3.15082555 10.8923369 3.05482064 10.7181685 2.97085504 11.1837581 1.98163636 12.2656069 1.15549877 13.4578661 1.09096806 12.6592829 1.81188206 12.9427559 3.31026044 12.2861685 4.10347912 12.0982808 3.91563145 11.6668683 3.55311057 11.4471533 3.39938575zM10.9309374 4.4519312C10.9312829 4.42719902 10.9405788 4.23639312 10.9580302 4.1492973 10.9122419 4.13856511 10.6276285 4.08314988 10.4792397 4.08662408 10.4684233 4.27213268 10.5575464 4.58773464 10.6456328 4.77771499 11.2522851 4.76505651 11.6904708 4.58422604 11.9483715 4.41798034 11.7287948 4.31609337 11.3541253 4.22552334 11.0692354 4.17134644 11.0374428 4.2368059 10.9592052 4.40360197 10.9309374 4.4519312zM8.67673434 9.56574939C8.67687257 9.56660934 8.6772527 9.56777887 8.67735637 9.56863882 8.60046652 9.40394103 8.51880778 9.20388206 8.42128726 8.94238821 8.80100216 9.49255037 9.99108423 9.20880098 9.92867387 8.71580835 10.5111706 9.15207862 11.710203 8.64312531 11.4376156 8.03139066 12.0211145 8.3020344 12.6871015 7.75747912 12.5377451 7.52020147 13.5325443 7.71117936 14.4858747 7.90153808 14.7851404 7.97776413 14.5863326 8.30041769 14.1335637 8.52827027 13.4510583 8.36993612 13.8198531 8.87001474 13.1038272 9.46995086 12.1065054 9.13952334 12.3260475 9.63045209 11.4380648 10.0724324 10.4288207 9.56072727 10.4416415 10.0518624 9.17677754 10.1084128 8.67673434 9.56574939zM10.6501253 7.08334644C11.8047171 7.1715774 13.7140734 7.3429484 14.8961382 7.50761179 14.82146 7.12469287 14.6174687 7.01530713 13.9757754 6.84372973 13.2856328 6.91699754 11.5347214 7.08819656 10.6501253 7.08334644z"/>
    <path d="M9.92867387 8.71580835C10.5111706 9.15207862 11.710203 8.64312531 11.4376156 8.03139066 12.0211145 8.3020344 12.6871015 7.75747912 12.5377451 7.52020147 11.3616242 7.29448157 10.1274816 7.06793612 9.84753348 7.02834398 10.0173477 7.03732187 10.2988164 7.05651597 10.6501253 7.08338084 11.5347559 7.08823096 12.3498702 7.10161179 13.0399782 7.02834398 11.9225354 6.7463145 10.3127084 6.40052349 8.73710583 6.29911809 8.66408639 6.40533922 8.7940216 6.33512039 8.5602419 6.52654545 7.87089417 7.97838329 6.98522053 8.71580835 5.60327669 8.71580835 5.20054667 8.71580835 4.71346685 7.75162458 4.20841285 7.59091696 3.89345821 7.92677937 2.42554943 8.99373988 1.3359598 8.4613959 2.20023625 10.4758136 3.99876844 12.0306416 6.21737751 12.0306416 8.08588723 12.0306416 8.91842765 10.2329681 8.73710583 9.73044717 8.69311447 9.60843735 8.51877322 9.20388206 8.42121814 8.9424226 8.80100216 9.49255037 9.99104968 9.20880098 9.92867387 8.71580835zM9.03661339 5.18947447C9.20158963 5.10014277 9.63834125 4.73709529 10.1816156 4.60782748 10.1730454 4.5479405 10.0596458 4.2105258 10.0556371 4.14977887 9.69921382 4.23474201 9.02724838 4.52141523 8.64217711 4.12635381 9.45458315 4.37037346 9.71439471 3.99010309 10.3115092 3.99010309 10.6673105 3.99010309 11.3208467 4.00785258 11.721054 4.16426044 11.5501869 3.49141546 11.5216851 2.83500569 9.16587826 2.97504743 9.12313482 2.97758833 9.07998437 2.97195531 9.03661339 2.97185258 8.7448121 3.32398526 8.66971922 4.38284056 9.03661339 5.18947447z"/>
    <path d="M4.07290592,8.20733876 C3.75795127,8.54320117 2.52815517,9.32265265 1.4386001,8.79027427 C1.15004718,8.11782709 0.988492106,7.37073619 0.988492106,6.5741465 C0.988492106,3.2090556 3.07830348,0.92749912 6.09293847,0.92749912 C7.82035099,0.92749912 8.95586298,1.98286219 9.116174,2.4955305 C8.07399689,3.54687202 8.2345054,4.92817199 8.61394384,5.52931204 C8.07415983,6.42304177 7.47795167,6.37934955 6.24532964,6.65756085 C6.85611553,6.90147334 8.10408639,7.16403045 8.61394384,6.74038426 C7.92456156,8.1921877 7.36807052,8.94333992 5.98612667,8.94333992 C5.58339665,8.94333992 4.57795991,8.36804638 4.07290592,8.20733876 Z M4.91963383,3.49792533 C4.91963383,4.38153292 5.63594685,5.09792536 6.51959415,5.09792536 C7.40324145,5.09792536 8.11963388,4.38153292 8.11963388,3.49792533 C8.11963388,2.61427803 7.40324145,1.89792531 6.51959415,1.89792531 C5.63594685,1.89792531 4.91963383,2.61427803 4.91963383,3.49792533 Z M5.68919946,3.46376019 C5.68919946,3.87794138 6.02503381,4.21374464 6.43918391,4.21374464 C6.85342729,4.21374464 7.18919946,3.87794138 7.18919946,3.46376019 C7.18919946,3.04954791 6.85345838,2.71374464 6.43918391,2.71374464 C6.02503381,2.71374464 5.68919946,3.04954791 5.68919946,3.46376019 Z" opacity=".8"/>
    <path d="M4.91963383,3.49792533 C4.91963383,4.38153292 5.63594685,5.09792536 6.51959415,5.09792536 C7.40324145,5.09792536 8.11963388,4.38153292 8.11963388,3.49792533 C8.11963388,2.61427803 7.40324145,1.89792531 6.51959415,1.89792531 C5.63594685,1.89792531 4.91963383,2.61427803 4.91963383,3.49792533 Z"/>
    <path d="M5.68919946,3.46376019 C5.68919946,3.87794138 6.02503381,4.21374464 6.43918391,4.21374464 C6.85342729,4.21374464 7.18919946,3.87794138 7.18919946,3.46376019 C7.18919946,3.04954791 6.85345838,2.71374464 6.43918391,2.71374464 C6.02503381,2.71374464 5.68919946,3.04954791 5.68919946,3.46376019 Z" opacity=".3"/>
  </g>
</svg>
