<svg xmlns="http://www.w3.org/2000/svg" width="16" height="16" viewBox="0 0 16 16">
  <g fill="#585E6F" fill-rule="evenodd" transform="translate(1)">
    <path d="M9.12716092,6.7265077 L4.90715026,9.36799418 C4.64970409,8.97493606 4.5,8.50495066 4.5,8 C4.5,6.61928813 5.61928813,5.5 7,5.5 C7.84295227,5.5 8.58846283,5.91719755 9.04131434,6.55637529 L8.98182077,6.59220051 C9.03424537,6.63073179 9.08269208,6.67550085 9.12716092,6.7265077 Z M11.3039467,5.45365553 C10.4330209,3.98474677 8.83151041,3 7,3 C4.23857625,3 2,5.23857625 2,8 C2,8.97604136 2.27966764,9.88676283 2.76324045,10.656402 C2.05227,11.0895042 1.23794834,11.585565 0.320275457,12.1445842 C0.115667401,11.8731362 4.29664883e-17,11.5385835 0,11.1877355 L3.29225625e-16,4.77003304 C1.48508419e-15,4.20474315 0.300247095,3.68199251 0.788528177,3.39715178 L6.14464071,0.27264202 C6.63579652,-0.0138756916 7.24259781,-0.0161849121 7.73592008,0.266586306 L13.2009996,3.39915762 C13.4380019,3.53500681 13.6314496,3.72669884 13.7686083,3.95225629 L11.3039467,5.45365553 Z"/>
    <path d="M2.64532422,10.4587745 C3.50382745,11.9759831 5.13232775,13 7,13 C8.80522816,13 10.38701,12.0433128 11.2660033,10.6092806 L13.6763555,12.083561 C13.5539471,12.3062542 13.5174502,12.3750886 13.2930032,12.5052547 L7.62830548,15.7904466 C7.20070249,16.0384313 6.67748196,16.0364015 6.25171459,15.7851064 L0.697869221,12.5071324 C0.442312446,12.3562984 0.244765587,12.1292027 0.126103184,11.8628958 C1.03534886,11.357401 1.8750892,10.8893606 2.64532422,10.4587745 Z M7,10.5 C6.05446533,10.5 5.2315316,9.97508293 4.80671166,9.20076162 L7,8 L9.13854822,9.29554799 C8.70017973,10.0176097 7.90642401,10.5 7,10.5 Z" opacity=".75"/>
    <path d="M10.4701796,8.38633213 L10.0434783,8.38633213 L10,9.00215977 L10.4251639,9.00215977 L10.3886837,9.50121893 L10.7499852,9.50121893 L10.786962,9.00215977 L11.2077726,9.00215977 L11.1712924,9.50121893 L11.5325939,9.50121893 L11.5695707,9.00215977 L11.826087,9.00215977 L11.8695652,8.38633213 L11.6151992,8.38633213 L11.6722349,7.61654757 L11.9565217,7.61654757 L12,7.00071992 L11.7178634,7.00071992 L11.7492035,6.57773771 L11.3849927,6.57773771 L11.3540736,7.00071992 L10.9352547,7.00071992 L10.9665948,6.57773771 L10.6023841,6.57773771 L10.5714649,7.00071992 L10.173913,7.00071992 L10.1304348,7.61654757 L10.5264492,7.61654757 L10.4701796,8.38633213 Z M10.8325905,8.38633213 L10.8896262,7.61654757 L11.3090579,7.61654757 L11.2527883,8.38633213 L10.8325905,8.38633213 Z M13.6702309,3.78266343 C13.7856054,3.99305932 14,4.44583963 14,4.69591571 L14,11.2612533 C14,11.5117903 13.786063,11.8786993 13.6702309,12.0894283 L7,8 L13.6702309,3.78266343 Z" opacity=".6"/>
  </g>
</svg>
