<svg xmlns="http://www.w3.org/2000/svg" width="16" height="16" viewBox="0 0 16 16">
  <g fill="none" fill-rule="evenodd">
    <path fill="#585E6F" d="M2,1 L14,1 C14.5522847,1 15,1.44771525 15,2 L15,15 L15,15 C15,15.5522847 14.5522847,16 14,16 L2,16 L2,16 C1.44771525,16 1,15.5522847 1,15 L1,2 L1,2 C1,1.44771525 1.44771525,1 2,1 L2,1 Z M3,5 L3,12 L4,12 L4,5 L3,5 Z M5,7 L5,10 L6,10 L6,7 L5,7 Z M7,8.89999962 L7,10.0499996 L9,10.0499996 L9,8.89999962 L7,8.89999962 Z M5,11 L5,12.15 L9,12.15 L9,11 L5,11 Z M7,6.9000001 L7,8.05000007 L13,8.05000007 L13,6.9000001 L7,6.9000001 Z M5,4.9000001 L5,6.05000007 L10,6.05000007 L10,4.9000001 L5,4.9000001 Z M3,2.9000001 L3,4.05000007 L7,4.05000007 L7,2.9000001 L3,2.9000001 Z M10,8.89999962 L10,10.0499996 L12,10.0499996 L12,8.89999962 L10,8.89999962 Z M3,12.8999996 L3,14.0499996 L6,14.0499996 L6,12.8999996 L3,12.8999996 Z" opacity=".4"/>
    <g transform="translate(3 2)">
      <path fill="#6A7182" d="M0,0.900000095 L4,0.900000095 L4,2.05000007 L0,2.05000007 L0,0.900000095 Z M7,6.89999962 L9,6.89999962 L9,8.04999959 L7,8.04999959 L7,6.89999962 Z M0,10.8999996 L3,10.8999996 L3,12.0499996 L0,12.0499996 L0,10.8999996 Z"/>
      <path fill="#585E6F" d="M4,6.89999962 L6,6.89999962 L6,8.04999959 L4,8.04999959 L4,6.89999962 Z M2,9 L6,9 L6,10.15 L2,10.15 L2,9 Z M4,4.9000001 L10,4.9000001 L10,6.05000007 L4,6.05000007 L4,4.9000001 Z M2,2.9000001 L7,2.9000001 L7,4.05000007 L2,4.05000007 L2,2.9000001 Z" opacity=".8"/>
    </g>
    <path fill="#585E6F" d="M3,5 L4,5 L4,12 L3,12 L3,5 Z M5,7 L6,7 L6,10 L5,10 L5,7 Z" opacity=".57"/>
  </g>
</svg>
