<svg xmlns="http://www.w3.org/2000/svg" xmlns:xlink="http://www.w3.org/1999/xlink" width="16" height="16" viewBox="0 0 16 16">
  <defs>
    <path id="a" d="M1,2 L14,2 L14,2 C14.5522847,2 15,2.44771525 15,3 L15,14 L15,14 C15,14.5522847 14.5522847,15 14,15 L1,15 L1,15 C0.44771525,15 1.04869017e-15,14.5522847 0,14 L0,3 L0,3 C-6.76353751e-17,2.44771525 0.44771525,2 1,2 Z"/>
  </defs>
  <g fill="none" fill-rule="evenodd">
    <mask id="b" fill="white">
      <use xlink:href="#a"/>
    </mask>
    <use fill="#F1F4F7" xlink:href="#a"/>
    <path fill="#4BA8F1" d="M0,2 L8.72564558,2 C7.43234526,3.87014322 6.68954696,6.33497484 6.49725068,9.39449485 L8.91078526,9.47974869 C8.71900869,11.0397437 8.7912259,12.8798275 9.12743689,15 L0,15 L0,2 Z" mask="url(#b)"/>
    <path stroke="#2B3E47" stroke-linecap="round" stroke-width=".75" d="M3,11 C3.74323702,12.1381506 5.20714855,12.707226 7.39173459,12.707226 C9.57632063,12.707226 11.0402322,12.1381506 11.7834692,11" mask="url(#b)"/>
    <path fill="#0A1F28" d="M3.5,5 L3.5,5 C3.77614237,5 4,5.22385763 4,5.5 L4,6.5 C4,6.77614237 3.77614237,7 3.5,7 C3.22385763,7 3,6.77614237 3,6.5 L3,5.5 L3,5.5 C3,5.22385763 3.22385763,5 3.5,5 L3.5,5 Z M11.5,5 C11.7761424,5 12,5.22385763 12,5.5 L12,6.5 C12,6.77614237 11.7761424,7 11.5,7 C11.2238576,7 11,6.77614237 11,6.5 L11,5.5 L11,5.5 C11,5.22385763 11.2238576,5 11.5,5 Z" mask="url(#b)"/>
    <path stroke="#24303F" stroke-width=".5" d="M9.07356561,1.67156496 C7.22540962,3.52087516 6.36335284,6.13521142 6.48739528,9.51457373 L8.85327152,9.51457373 C8.40012377,12.2358561 8.71015764,14.6543602 9.78337313,16.770086" mask="url(#b)"/>
  </g>
</svg>
