<svg xmlns="http://www.w3.org/2000/svg" width="16" height="16" viewBox="0 0 16 16">
  <g fill="none" fill-rule="evenodd">
    <path fill="#585E6F" d="M8.83227158,15.0300294 L8.75936616,15.0303844 C8.59016753,14.3559824 8.46952131,13.6921271 8.39742749,13.0388184 C8.41727771,13.0370116 8.43706202,13.0351482 8.45678039,13.0332282 C8.52279469,13.7218485 8.64793813,14.3875016 8.83227158,15.0300294 Z M9.35278153,15.0274951 C9.15369847,14.3685063 9.02043951,13.6829989 8.95308112,12.9707744 C10.4212373,12.7415951 11.4754664,12.1575092 12.0974513,11.2050371 C12.2106902,11.0316296 12.1619139,10.7992568 11.9885063,10.6860179 C11.8150988,10.572779 11.5827259,10.6215553 11.4694871,10.7949629 C10.9853769,11.5363015 10.136675,12.0151188 8.90675422,12.2191792 C8.88160938,11.3677919 8.94594296,10.4800496 9.09987586,9.55563826 L9.14834391,9.26457373 L6.73004831,9.26457373 C6.6591345,6.15872931 7.45175259,3.74206135 9.10274177,2 L14,2 L14,2 C14.5522847,2 15,2.44771525 15,3 L15,14.0048569 C15,14.5552413 14.5552466,15.0021654 14.0048687,15.0048451 L9.35278153,15.0274951 Z M8.43127978,2 C6.85163671,3.86154995 6.12194306,6.37382674 6.23756352,9.52374402 L6.24640339,9.76457373 L8.5608977,9.76457373 C8.43220185,10.6346932 8.38140828,11.4748208 8.40860924,12.2847171 C8.38449763,12.2871214 8.36025985,12.2894349 8.33589582,12.2916573 C8.2941133,11.5179782 8.3221412,10.7594634 8.41997951,10.0161129 L6.15645116,9.99638666 C6.15645116,6.00027519 6.91096061,3.33481297 8.41997951,2 L8.43127978,2 Z M11.5,5 C11.2238576,5 11,5.22385763 11,5.5 L11,6.5 C11,6.77614237 11.2238576,7 11.5,7 C11.7761424,7 12,6.77614237 12,6.5 L12,5.5 C12,5.22385763 11.7761424,5 11.5,5 Z"/>
    <path fill="#585E6F" d="M8.43127978,2 C6.85163671,3.86154995 6.12194306,6.37382674 6.23756352,9.52374402 L6.24640339,9.76457373 L8.5608977,9.76457373 C8.43220185,10.6346932 8.38140828,11.4748208 8.40860924,12.2847171 C8.09154253,12.3163343 7.75265955,12.332226 7.39173459,12.332226 C5.32145428,12.332226 3.97640268,11.8093558 3.31398213,10.7949629 C3.20074325,10.6215553 2.96837041,10.572779 2.79496287,10.6860179 C2.62155533,10.7992568 2.57277899,11.0316296 2.68601787,11.2050371 C3.51007137,12.4669455 5.09284283,13.082226 7.39173459,13.082226 C7.76576802,13.082226 8.12084444,13.0659384 8.45678039,13.0332282 C8.52176685,13.7111266 8.64405549,14.3667675 8.82370438,15 L0,15 L0,2 L8.43127978,2 Z M3.5,5 C3.22385763,5 3,5.22385763 3,5.5 L3,6.5 C3,6.77614237 3.22385763,7 3.5,7 C3.77614237,7 4,6.77614237 4,6.5 L4,5.5 C4,5.22385763 3.77614237,5 3.5,5 Z" opacity=".9"/>
  </g>
</svg>
