<svg xmlns="http://www.w3.org/2000/svg" width="16" height="16" viewBox="0 0 16 16">
  <g fill="none" fill-rule="evenodd">
    <path fill="#5B6071" d="M1.45623499,12.8285661 C1.6880653,13.0332407 1.9273545,13.1810448 2.17410259,13.2719784 C2.54422472,13.4083788 2.91487603,13.135578 3.01216916,13.135578 C3.1094623,13.135578 3.27766527,12.8285661 2.76519429,12.5369566 C2.42354696,12.3425502 1.94414043,12.2116049 1.3269747,12.1441205 C1.3269747,11.603413 1.60935066,10.4276199 2.17410259,8.61674127 C2.46277125,8.79189457 3.0013683,8.95808781 3.78989375,9.11532098 C4.97268192,9.35117072 5.51237269,8.48707945 5.6222149,8.45590433 C5.69544304,8.43512092 5.83003062,8.48873323 6.02597763,8.61674127 C6.01448691,10.1497276 7.13998346,10.1776445 7.69728337,10.1970456 C8.25458328,10.2164468 9.84325089,10.1546149 10.2551781,9.82738728 C10.5297962,9.60923552 10.6278957,9.29634892 10.5494766,8.8887275 L11.2627328,9.11532098 C11.2627328,9.23824423 11.1665232,9.54555238 10.974104,10.0372454 C10.6854753,10.774785 9.09151591,11.7894202 8.58093484,12.0438566 C8.07035378,12.2982929 6.96505237,12.7245997 6.48985063,13.135578 C6.01464889,13.5465564 3.15610555,13.7719651 2.17410259,13.6383786 C1.51943395,13.5493209 1.28014475,13.2793834 1.45623499,12.8285661 Z M3.57473755,5.8006766 C3.82291059,5.14706516 4.03509589,4.69894004 4.21129345,4.45630125 C4.4755898,4.09234307 5.36217256,3.73765051 5.89770058,3.73535495 C6.4332286,3.7330594 8.48417089,3.98786599 8.92626121,4.14551877 C9.36835154,4.30317155 10.692657,4.92578527 10.9782619,6.35302799 C11.2638667,7.7802707 11.2104198,7.79300733 11.2638667,7.99975537 C11.299498,8.13758739 11.3173137,8.43845318 11.3173137,8.90235272 C10.9120642,8.77375229 10.6579328,8.68953257 10.5549196,8.64969359 C10.4003996,8.58993511 9.65690468,8.20057939 8.40940561,7.99975537 C7.16190655,7.79893134 6.57799655,7.76175816 6.40888641,7.88075677 C6.29614633,7.96008917 6.2472875,7.99975537 6.26230993,7.99975537 C6.11736971,7.82166027 6.0094996,7.72808121 5.93869959,7.71901818 C5.98471551,7.59269328 5.97104917,7.45767538 5.89770058,7.31396446 C5.78767769,7.09839809 5.12892999,6.53073683 5.07812561,6.49624628 C5.02732124,6.46175573 3.79671746,5.91005473 3.48950795,5.89694832 L3.57473755,5.8006766 Z"/>
    <path fill="#5B6071" d="M3.82741718,3.82963873 C3.94625773,2.05002674 4.54192756,1.13064288 5.56445043,0.54187009 C6.5869733,-0.0469027048 8.27893486,-0.104473075 8.82149339,0.137596887 C9.36405191,0.379666849 9.37080018,1.20727909 9.32347656,1.81567517 C9.29192747,2.22127256 9.12459975,2.73583783 8.82149339,3.35937097 C9.16618035,3.46771451 9.66565655,3.62447043 10.319922,3.82963873 C10.9741875,4.03480703 11.324878,4.39181226 11.3719936,4.90065441 C11.841828,4.50530062 13.3143119,4.08142648 13.8798518,4.05476843 C14.4453918,4.02811037 15.1629553,4.05827443 15.6737631,5.21893658 C16.184571,6.37959873 15.7001009,8.09170545 15.6737631,8.12519561 C15.1294659,8.81730468 14.3139384,9.29147276 13.2271806,9.54769984 C13.0616817,9.72867151 12.8783381,9.7844525 12.6771497,9.71504282 C12.4759613,9.64563314 12.2017331,9.58985215 11.854465,9.54769984 C11.9431401,10.3760249 10.3586788,11.7554365 10.1424718,11.9843996 C9.92626488,12.2133627 8.53646924,13.0569764 7.9655619,13.4249317 C7.39465456,13.7928869 6.64437963,13.9961496 5.63916844,14.37462 C4.63395725,14.7530903 2.28613374,14.696244 1.88312818,14.696244 C1.48012261,14.696244 0.291040576,14.1440327 0.191781924,13.4249317 C0.0282911564,12.075491 0.48171972,10.3089123 1.55206762,8.12519561 C1.15125317,7.56522832 1.11245793,6.6764029 1.20702958,6.15316449 C1.27007734,5.80433889 1.83149437,5.58386836 2.89128066,5.49175289 C3.10952874,4.8558842 3.15528567,5.01392289 3.82741718,3.82963873 Z M1.45623499,12.8285661 C1.28014475,13.2793834 1.51943395,13.5493209 2.17410259,13.6383786 C3.15610555,13.7719651 6.01464889,13.5465564 6.48985063,13.135578 C6.96505237,12.7245997 8.07035378,12.2982929 8.58093484,12.0438566 C9.09151591,11.7894202 10.5377953,11.1212529 10.8264241,10.3837134 C11.0188432,9.89202033 11.1150528,9.58471218 11.1150528,9.46178892 L10.4017966,9.23519544 C10.4802158,9.64281687 10.3821163,9.95570346 10.1074981,10.1738552 C9.69557094,10.5010829 8.10690333,10.5629147 7.54960342,10.5435136 C6.99230351,10.5241124 5.86680696,10.4961956 5.87829768,8.96320921 C5.68235067,8.83520117 5.5477631,8.78158886 5.47453496,8.80237227 C5.36469275,8.83354739 4.82500197,9.69763866 3.6422138,9.46178892 C2.85368835,9.30455575 2.3150913,9.13836252 2.02642264,8.96320921 C1.56012401,10.5431092 1.3269747,11.603413 1.3269747,12.1441205 C1.94414043,12.2116049 2.42354696,12.3425502 2.76519429,12.5369566 C3.27766527,12.8285661 3.1094623,13.135578 3.01216916,13.135578 C2.91487603,13.135578 2.54422472,13.4083788 2.17410259,13.2719784 C1.9273545,13.1810448 1.6880653,13.0332407 1.45623499,12.8285661 Z M3.57473755,5.8006766 L3.48950795,5.89694832 C3.79671746,5.91005473 5.02732124,6.46175573 5.07812561,6.49624628 C5.12892999,6.53073683 5.78767769,7.09839809 5.89770058,7.31396446 C5.97104917,7.45767538 5.98471551,7.59269328 5.93869959,7.71901818 C6.0094996,7.72808121 6.11736971,7.82166027 6.26230993,7.99975537 C6.2472875,7.99975537 6.29614633,7.96008917 6.40888641,7.88075677 C6.57799655,7.76175816 7.16190655,7.79893134 8.40940561,7.99975537 C9.65690468,8.20057939 10.4003996,8.58993511 10.5549196,8.64969359 C10.6579328,8.68953257 10.9120642,8.77375229 11.3173137,8.90235272 C11.3173137,8.43845318 11.299498,8.13758739 11.2638667,7.99975537 C11.2104198,7.79300733 11.2638667,7.7802707 10.9782619,6.35302799 C10.692657,4.92578527 9.36835154,4.30317155 8.92626121,4.14551877 C8.48417089,3.98786599 6.4332286,3.7330594 5.89770058,3.73535495 C5.36217256,3.73765051 4.4755898,4.09234307 4.21129345,4.45630125 C4.03509589,4.69894004 3.82291059,5.14706516 3.57473755,5.8006766 Z M2.08294217,7.66190232 L2.51231461,6.72050737 C2.61754506,6.50262564 2.61754506,6.39779079 2.51231461,6.40600282 C2.35446893,6.41832087 2.08294217,6.57500652 1.95552881,6.85048748 C1.87058658,7.03414145 1.9130577,7.30461306 2.08294217,7.66190232 Z M4.08241754,8.28136027 C4.31949303,8.28136027 4.50141315,8.28136027 4.62817789,8.28136027 C4.99052854,8.19769023 5.11656991,8.11828798 5.20480223,7.7666058 C5.29303455,7.41492361 4.88974744,7.30609439 4.62817789,7.16720597 C4.36660834,7.02831754 3.31923061,6.68056856 3.20644804,6.76661276 C3.13125966,6.82397555 2.93590602,7.21106429 2.62038713,7.92787897 C2.68872124,8.11022986 3.17606471,8.22805696 4.08241754,8.28136027 Z M7.02818957,8.35479526 C6.86008103,8.63096161 6.85156697,8.89220758 7.0026474,9.13853317 C7.22926804,9.50802157 7.19849168,9.42624466 7.52941176,9.55031372 C7.86033185,9.67438279 8.00410151,9.77703021 8.81844247,9.70699246 C9.63278342,9.63695471 9.76078754,9.5672409 9.82865255,9.46469246 C9.89651755,9.36214401 10.1609018,8.91239145 9.82865255,8.76163222 C9.49640331,8.61087299 8.76602017,8.40335068 8.37614823,8.35479526 C8.1162336,8.32242498 7.66691405,8.32242498 7.02818957,8.35479526 Z M5.03603461,3.46696444 C5.23217639,3.46696444 5.408315,3.44277178 5.56445043,3.39438646 C5.79865358,3.32180849 6.57762049,3.39438646 6.74898986,3.46696444 C6.92035924,3.53954241 7.59893937,3.39438646 7.76412905,3.39438646 C7.92931873,3.39438646 8.14445766,3.06672623 8.38862048,2.68861125 C8.6327833,2.31049627 8.77473374,1.30962975 8.78373769,1.10978165 C8.79274163,0.90993354 8.25587518,0.342219073 7.76412905,0.289054352 C7.27238292,0.235889631 6.57762049,0.54187009 6.4966353,0.628983367 C6.4156501,0.716096644 5.68783968,1.24399916 5.49875685,1.44266473 C5.30967403,1.64133031 4.87044252,2.6271688 4.76189218,2.9353665 C4.65334184,3.24356421 4.76189218,3.5853163 4.77532264,3.39438646 C4.78875311,3.20345663 5.35464344,2.26733381 5.56445043,1.90464103 C5.70432176,1.66284584 6.04204511,1.31646217 6.57762049,0.865490001 C6.98469266,0.585196791 7.46476887,0.477323488 8.01784913,0.54187009 C8.84746951,0.638689993 8.51824709,1.90464103 8.31809797,2.39987607 C8.11794884,2.8951111 7.76412905,3.12486744 7.66307361,3.06672623 C7.59570332,3.02796542 7.62938847,2.88144628 7.76412905,2.6271688 C8.07381778,2.23118442 8.25847408,1.90214457 8.31809797,1.64004923 C8.40753379,1.24690622 8.18444724,0.880665844 7.89340356,0.865490001 C7.60235987,0.850314159 7.00789835,0.865490001 6.91328149,1.01468627 C6.81866463,1.16388254 6.51554861,1.29455245 5.86469927,1.90464103 C5.43079971,2.31136674 5.15457816,2.83214121 5.03603461,3.46696444 Z M11.488945,6.58678258 C11.7291843,7.7427416 11.7752939,8.50746281 11.6272738,8.88094621 C12.1941701,8.99466648 12.5885999,9.02309655 12.810563,8.96623641 C13.1435078,8.88094621 15.0070224,8.00390077 15.3300074,7.17735936 C15.6529925,6.35081794 15.7233138,6.2427147 15.6529925,6.01310617 C15.5826712,5.78349765 15.1187417,5.09437644 14.4256895,4.96424852 C13.7326373,4.8341206 13.2964239,4.75193455 12.9531674,4.96424852 C12.6099109,5.1765625 11.4753133,5.66977738 11.3958875,5.84144178 C11.3164616,6.01310617 11.488945,6.17880864 11.488945,6.13283766 C11.488945,6.08686668 12.1476414,5.65238428 12.4312908,5.53753075 C12.7149401,5.42267722 13.179775,5.20676637 13.6795191,5.19331505 C14.1792631,5.17986374 14.8810174,5.33571176 15.026489,5.43662125 C15.1719605,5.53753075 14.9550611,5.43662125 13.8167915,5.43662125 C13.0579451,5.43662125 12.2819963,5.82000836 11.488945,6.58678258 Z" opacity=".5"/>
    <path stroke="#5B6071" stroke-width=".5" d="M4.23242952,8.12033905 C4.09324565,8.00016411 4.22312377,7.54769736 4.37161339,7.30700258 C4.52010302,7.06630781 4.54399617,6.92371402 4.76854145,6.95381934 C4.99308674,6.98392467 5.25123333,7.25532021 5.05772399,7.53508576 C4.92871776,7.72159613 4.80241682,7.91668056 4.67882118,8.12033905 C4.47401599,8.20045567 4.32521877,8.20045567 4.23242952,8.12033905 Z M8,9.33086859 C7.86081613,9.21069366 7.99069425,8.7582269 8.13918387,8.51753213 C8.2876735,8.27683736 8.31156664,8.13424357 8.53611193,8.16434889 C8.76065722,8.19445421 9.01880381,8.46584975 8.82529447,8.74561531 C8.69628824,8.93212567 8.5699873,9.1272101 8.44639166,9.33086859 C8.24158647,9.41098521 8.09278925,9.41098521 8,9.33086859 Z M4.78988229,7.06798307 C4.57347851,7.23447517 4.46148905,7.40203567 4.45391393,7.57066456 C4.44255126,7.82360791 4.52256345,7.97350422 4.62189811,7.82360791 C4.72123278,7.6737116 4.88936491,7.38081015 4.88344685,7.25607462 C4.87950148,7.17291761 4.84831329,7.11022042 4.78988229,7.06798307 Z M8.53328402,8.41385536 C8.32639277,8.52342392 8.21329897,8.63102418 8.1940026,8.73665614 C8.16505806,8.89510409 8.08707507,9.12774592 8.22294715,9.03222882 C8.35881922,8.93671171 8.5895975,8.92423395 8.61008043,8.73418983 C8.62373572,8.60749376 8.59813692,8.5007156 8.53328402,8.41385536 Z"/>
    <path fill="#5B6071" d="M5.03603461,3.46696444 C5.15457816,2.83214121 5.43079971,2.31136674 5.86469927,1.90464103 C6.51554861,1.29455245 6.81866463,1.16388254 6.91328149,1.01468627 C7.00789835,0.865490001 7.60235987,0.850314159 7.89340356,0.865490001 C8.18444724,0.880665844 8.40753379,1.24690622 8.31809797,1.64004923 C8.25847408,1.90214457 8.07381778,2.23118442 7.76412905,2.6271688 C7.62938847,2.88144628 7.59570332,3.02796542 7.66307361,3.06672623 C7.76412905,3.12486744 8.11794884,2.8951111 8.31809797,2.39987607 C8.51824709,1.90464103 8.84746951,0.638689993 8.01784913,0.54187009 C7.46476887,0.477323488 6.98469266,0.585196791 6.57762049,0.865490001 C6.04204511,1.31646217 5.70432176,1.66284584 5.56445043,1.90464103 C5.35464344,2.26733381 4.78875311,3.20345663 4.77532264,3.39438646 C4.76189218,3.5853163 4.65334184,3.24356421 4.76189218,2.9353665 C4.87044252,2.6271688 5.30967403,1.64133031 5.49875685,1.44266473 C5.68783968,1.24399916 6.4156501,0.716096644 6.4966353,0.628983367 C6.57762049,0.54187009 7.27238292,0.235889631 7.76412905,0.289054352 C8.25587518,0.342219073 8.79274163,0.90993354 8.78373769,1.10978165 C8.77473374,1.30962975 8.6327833,2.31049627 8.38862048,2.68861125 C8.14445766,3.06672623 7.92931873,3.39438646 7.76412905,3.39438646 C7.59893937,3.39438646 6.92035924,3.53954241 6.74898986,3.46696444 C6.57762049,3.39438646 5.79865358,3.32180849 5.56445043,3.39438646 C5.408315,3.44277178 5.23217639,3.46696444 5.03603461,3.46696444 Z M11.6819149,6.61893304 C12.2548047,6.10060553 12.9206727,5.84144178 13.6795191,5.84144178 C14.8177886,5.84144178 14.6723588,5.77467792 14.7295514,6.01310617 C14.7867441,6.25153443 14.885573,6.26587264 14.9461359,6.13283766 C15.0066987,5.99980268 15.1719605,5.53753075 15.026489,5.43662125 C14.8810174,5.33571176 14.1792631,5.17986374 13.6795191,5.19331505 C13.179775,5.20676637 12.7149401,5.42267722 12.4312908,5.53753075 C12.1476414,5.65238428 11.488945,6.08686668 11.488945,6.13283766 C11.488945,6.17880864 11.3164616,6.01310617 11.3958875,5.84144178 C11.4753133,5.66977738 12.6099109,5.1765625 12.9531674,4.96424852 C13.2964239,4.75193455 13.7326373,4.8341206 14.4256895,4.96424852 C15.1187417,5.09437644 15.5826712,5.78349765 15.6529925,6.01310617 C15.7233138,6.2427147 15.2691209,6.32703031 14.9461359,7.15357172 C14.6231508,7.98011314 13.1561308,8.54456878 12.8231861,8.62985898 C12.6012229,8.68671912 12.3214649,8.75117429 11.9839119,8.8232245 C12.1319321,8.4497411 12.0312664,7.71497728 11.6819149,6.61893304 Z"/>
  </g>
</svg>
