<svg xmlns="http://www.w3.org/2000/svg" width="16" height="16" viewBox="0 0 16 16">
  <g fill="#5A5F6F" fill-rule="evenodd" opacity=".6">
    <path d="M.37399424 2.985939L7.37399424 1.16302233 7.37399424 1.16302233C7.64122391 1.09343127 7.91427106 1.25364902 7.98386212 1.52087869 7.99457695 1.56202364 8 1.60436723 8 1.64688445L8 14.3531155 8 14.3531155C8 14.6292579 7.77614237 14.8531155 7.5 14.8531155 7.45748278 14.8531155 7.41513919 14.8476925 7.37399424 14.8369777L.37399424 13.014061.37399424 13.014061C.153728243 12.9567001-1.9417013e-16 12.7578112-2.22044605e-16 12.5301989L0 3.46980112 1.11022302e-16 3.46980112C8.31478276e-17 3.24218876.153728243 3.04329994.37399424 2.985939zM4.01497997 7.20815221L5.18514575 4.95458378 6.66174385 4.95458378 4.81144473 8.03104901 6.75767378 11 5.29695308 11 4.01497997 8.75243082 2.74359179 11 1.27228615 11 3.37189389 8.03104901 1.42696635 4.95458378 2.88768705 4.95458378 4.01497997 7.20815221zM9 3L14 3 14 13 9 13 9 3zM9 4L9 5.84164423 10.1583383 5.84164423 10.1583383 4 9 4zM9 7L9 8.84164423 10.1583383 8.84164423 10.1583383 7 9 7zM11 4L11 5.84164423 13.0716595 5.84164423 13.0716595 4 11 4zM11 7L11 8.84164423 13.0716595 8.84164423 13.0716595 7 11 7zM9 10L9 11.8416442 10.1583383 11.8416442 10.1583383 10 9 10zM11 10L11 11.8416442 13.0716595 11.8416442 13.0716595 10 11 10z"/>
  </g>
</svg>
