<svg xmlns="http://www.w3.org/2000/svg" width="16" height="16" viewBox="0 0 16 16">
  <g fill="none" fill-rule="evenodd">
    <path fill="#44B05D" d="M0.37399424,2.985939 L7.37399424,1.16302233 L7.37399424,1.16302233 C7.64122391,1.09343127 7.91427106,1.25364902 7.98386212,1.52087869 C7.99457695,1.56202364 8,1.60436723 8,1.64688445 L8,14.3531155 L8,14.3531155 C8,14.6292579 7.77614237,14.8531155 7.5,14.8531155 C7.45748278,14.8531155 7.41513919,14.8476925 7.37399424,14.8369777 L0.37399424,13.014061 L0.37399424,13.014061 C0.153728243,12.9567001 -1.9417013e-16,12.7578112 -2.22044605e-16,12.5301989 L0,3.46980112 L-1.11022302e-16,3.46980112 C-1.38896777e-16,3.24218876 0.153728243,3.04329994 0.37399424,2.985939 Z"/>
    <polygon fill="#FFFFFF" points="4.015 7.208 5.185 4.955 6.662 4.955 4.811 8.031 6.758 11 5.297 11 4.015 8.752 2.744 11 1.272 11 3.372 8.031 1.427 4.955 2.888 4.955"/>
    <rect width="5" height="10" x="9" y="3" fill="#44B05D"/>
    <path fill="#FFFFFF" d="M9,4 L10.0471929,4 L10.0471929,5.93307723 L9,5.93307723 L9,4 Z M9,7 L10.0471929,7 L10.0471929,8.93307723 L9,8.93307723 L9,7 Z M11,4 L12.986312,4 L12.986312,5.93307723 L11,5.93307723 L11,4 Z M11,7 L12.986312,7 L12.986312,8.93307723 L11,8.93307723 L11,7 Z M9,10 L10.0471929,10 L10.0471929,11.9330772 L9,11.9330772 L9,10 Z M11,10 L12.986312,10 L12.986312,11.9330772 L11,11.9330772 L11,10 Z"/>
  </g>
</svg>
