<svg xmlns="http://www.w3.org/2000/svg" width="16" height="16" viewBox="0 0 16 16">
  <path fill="#99A1B8" fill-rule="evenodd" d="M0,3 L13,3 L13,3 C14.1045695,3 15,3.8954305 15,5 L15,12 L15,12 C15,13.1045695 14.1045695,14 13,14 L2,14 L2,14 C0.8954305,14 1.3527075e-16,13.1045695 0,12 L0,3 Z M6.43494747,1 L2,1 C1.44771525,1 1,1.44771525 1,2 L1,3 L7.11163097,3 L6.43494747,1 Z M6.43494747,1.99840144e-15 C6.86636293,1.38731214e-15 7.24914353,0.208488025 7.38447349,0.517175656 L8.4741704,3 L0,3.01423173 L0,1.50711587 C4.30562135e-15,0.674758757 0.8954305,1.5824694e-14 2,1.41932292e-14 L6.43494747,1.99840144e-15 Z"/>
</svg>
