<svg xmlns="http://www.w3.org/2000/svg" width="16" height="16" viewBox="0 0 16 16">
  <g fill="none" fill-rule="evenodd">
    <path fill="#5B6071" d="M7.14534467 12.0391591C6.85777 12.0652706 6.57884553 12.1020825 6.31074329 12.1482502 6.31074329 12.4190508 6.31074329 12.6967142 6.31074329 12.9812404 6.31074329 13.7804676 6.08416961 14.0633758 5.57229333 14.2166628 5.23104247 14.3188542 4.97822271 14.3271486 4.81383402 14.2415462 4.67006875 14.0887021 4.71054756 13.986483 4.93527045 13.9348889 5.27020434 13.8031367 5.44490278 13.5548163 5.45936578 13.1899278 5.4651082 12.9407954 5.46800597 12.6550889 5.46805908 12.3328082 3.99550556 12.729651 3.01351351 13.418943 3.01351351 14.096423 3.01351351 15.1339969 5.31682697 15.9751166 8.15810811 15.9751166 10.9993892 15.9751166 13.3027027 15.1339969 13.3027027 14.096423 13.3027027 13.3530529 12.1204095 12.5954614 10.4050373 12.225599 10.4051915 12.5406794 10.4080873 12.82051 10.4137248 13.0650906 10.4281878 13.4299791 10.6028863 13.6782995 10.9378201 13.8100517 11.162543 13.8616458 11.2030218 13.9638649 11.0592566 14.116709 10.8948679 14.2023114 10.6420481 14.194017 10.3007973 14.0918256 9.82378925 13.9489803 9.59453888 13.6935715 9.56551986 13.0126646L9.56551986 14.40622C9.61440919 14.6217162 9.70368681 14.7702308 9.83335273 14.8517639 10.0278516 14.9740635 9.98198636 15.053878 9.96096899 15.1041487 9.93995162 15.1544194 9.72257052 15.3272992 9.56551986 15.2487737 9.4084692 15.1702483 8.62104865 15.1464792 8.62104865 14.1793736L8.62104865 12.0030266C8.46855247 11.9967823 8.3141415 11.9935696 8.15810811 11.9935696 8.13530909 11.9935696 8.11254471 11.9936382 8.08981588 11.9937748L8.08981589 14.1793736C8.08981589 15.1464792 7.30239533 15.1702483 7.14534467 15.2487737 6.98829401 15.3272992 6.77091292 15.1544194 6.74989555 15.1041487 6.72887818 15.053878 6.68301293 14.9740635 6.87751181 14.8517639 7.00717772 14.7702308 7.09645535 14.6217162 7.14534467 14.40622L7.14534467 12.0391591zM8.04441985 4.04017779C8.89809087 4.03402631 9.51491188 3.99904114 9.89488286 3.93522228 11.0950797 3.85600862 11.8200418 4.58187953 12.0697692 6.11283501 12.0697692 8.46003009 10.5979598 9.0049177 8.00237115 9.0049177 5.40678253 9.0049177 3.93497313 8.08741273 3.93497313 6.24220559 3.93497313 4.39699845 5.27149057 3.99337612 5.58253154 3.93522228 5.89357251 3.87706843 6.76391333 4.04940501 8.04441985 4.04017779zM6.0187181 7.57809334C6.57100284 7.57809334 7.0187181 7.02106037 7.0187181 6.33392538 7.0187181 5.64679039 6.57100284 5.08975742 6.0187181 5.08975742 5.46643335 5.08975742 5.0187181 5.64679039 5.0187181 6.33392538 5.0187181 7.02106037 5.46643335 7.57809334 6.0187181 7.57809334zM9.97074688 7.49208014C10.5230316 7.49208014 10.9707469 6.93504717 10.9707469 6.24791218 10.9707469 5.56077719 10.5230316 5.00374422 9.97074688 5.00374422 9.41846213 5.00374422 8.97074688 5.56077719 8.97074688 6.24791218 8.97074688 6.93504717 9.41846213 7.49208014 9.97074688 7.49208014z"/>
    <path fill="#606475" d="M1.03955212,2.36225152 C0.763409745,2.36225152 0.552772523,2.04688269 0.552772523,1.55901684 C0.552772523,1.071151 0.763409745,0.755782162 1.03955212,0.755782162 C1.3156945,0.755782162 1.55277252,1.071151 1.55277252,1.55901684 C1.55277252,2.04688269 1.3156945,2.36225152 1.03955212,2.36225152 Z M5.04164423,2.36225152 C4.76550186,2.36225152 4.55486464,2.04688269 4.55486464,1.55901684 C4.55486464,1.071151 4.76550186,0.755782162 5.04164423,0.755782162 C5.31778661,0.755782162 5.55486464,1.071151 5.55486464,1.55901684 C5.55486464,2.04688269 5.31778661,2.36225152 5.04164423,2.36225152 Z" opacity=".4" transform="translate(4.935 4.977)"/>
    <path fill="#5B6071" d="M3.07541973,0.0424766719 C2.77478628,0.857341887 2.77478628,1.61262312 3.07541973,2.30832037 C2.0325567,3.15041431 1.59581691,4.25125003 1.76520035,5.61082753 C2.01927552,7.65019378 3.53877553,9.94221192 7.76037604,9.94221192 C11.9819765,9.94221192 13.7643549,7.67558799 13.7200771,5.34695269 C13.6757992,3.01831738 12.5197832,2.54898911 12.3796332,2.30832037 C12.8587354,1.11761275 12.962064,0.362331519 12.6896189,0.0424766719 C12.2081669,0.167387965 11.4896643,0.552290476 10.5341111,1.1971842 C9.52704314,0.924634222 8.66618229,0.797431289 7.95152857,0.815575405 C7.23687486,0.833719521 6.46305191,0.960922454 5.63005973,1.1971842 C4.96055803,0.512321281 4.10901137,0.12741877 3.07541973,0.0424766719 Z M5.46561639,11.7739158 C5.47031804,12.333158 5.46823451,12.805162 5.45936578,13.1899278 C5.44490278,13.5548163 5.27020434,13.8031367 4.93527045,13.9348889 C4.71054756,13.986483 4.67006875,14.0887021 4.81383402,14.2415462 C4.97822271,14.3271486 5.23104247,14.3188542 5.57229333,14.2166628 C6.08416961,14.0633758 6.31074329,13.7804676 6.31074329,12.9812404 C6.31074329,12.4484222 6.31074329,11.9396707 6.31074329,11.4549857 C6.68725424,11.158014 6.9654547,10.9480484 7.14534467,10.825089 L7.14534467,14.40622 C7.09645535,14.6217162 7.00717772,14.7702308 6.87751181,14.8517639 C6.68301293,14.9740635 6.72887818,15.053878 6.74989555,15.1041487 C6.77091292,15.1544194 6.98829401,15.3272992 7.14534467,15.2487737 C7.30239533,15.1702483 8.08981589,15.1464792 8.08981589,14.1793736 L8.08981589,10.7929681 L8.28156225,10.6107045 C8.28156225,10.5242217 8.30516545,10.4809803 8.39692954,10.4809803 C8.4901567,10.4809803 8.64332748,10.5242217 8.64332748,10.6107045 L8.62104865,10.6124971 L8.62104865,14.1793736 C8.62104865,15.1464792 9.4084692,15.1702483 9.56551986,15.2487737 C9.72257052,15.3272992 9.93995162,15.1544194 9.96096899,15.1041487 C9.98198636,15.053878 10.0278516,14.9740635 9.83335273,14.8517639 C9.70368681,14.7702308 9.61440919,14.6217162 9.56551986,14.40622 L9.56551986,13.0126646 C9.59453888,13.6935715 9.82378925,13.9489803 10.3007973,14.0918256 C10.6420481,14.194017 10.8948679,14.2023114 11.0592566,14.116709 C11.2030218,13.9638649 11.162543,13.8616458 10.9378201,13.8100517 C10.6028863,13.6782995 10.4281878,13.4299791 10.4137248,13.0650906 C10.4021328,12.5621743 10.4021328,11.9102172 10.4137248,11.1092192 C10.4214962,10.5722261 10.2213574,10.2379728 9.81330836,10.1064593 L9.85368025,10.0424767 L6.9416419,10.0424767 C6.5676118,10.0410782 6.26435186,10.0957828 6.03187112,10.2066178 L6.06693875,9.92527464 C5.72857328,10.1082196 5.34760139,10.2002896 4.92402308,10.2014846 C4.28865563,10.2032772 3.5523145,10.0686448 3.00719755,9.46986932 C2.46208059,8.87109382 1.61885699,9.22543793 1.60601538,9.31271244 C1.59317377,9.39998694 1.55397306,9.48619291 1.68997741,9.55259947 C1.82598176,9.61900603 2.41689141,10.4296232 2.68499848,10.9265568 C2.95310555,11.4234903 3.95497615,11.8577141 4.93527045,11.8577141 C5.14545586,11.8577141 5.32223784,11.8297813 5.46561639,11.7739158 Z M7.81600493,4.22674958 C9.06888195,4.22674958 9.58423611,4.19176441 9.36206741,4.12179406 C10.7806253,3.80960453 11.6147679,4.41898751 11.8644952,5.94994299 C11.8644952,8.29713807 10.3505976,8.84539143 7.75500902,8.84539143 C5.1594204,8.84539143 3.72969921,7.9245207 3.72969921,6.07931356 C3.72969921,4.23410642 5.04307565,4.17994791 5.35411662,4.12179406 C5.66515759,4.06364022 5.93668941,4.22674958 7.81600493,4.22674958 Z M3.00027392,6.98667851 L3.08435394,7.45021021 C2.44263447,7.45021021 0.872238819,7.58134055 0.286001614,7.76793706 L0.0549205339,7.32223517 C0.653398944,7.13174234 2.34678029,6.98667851 3.00027392,6.98667851 Z M16.0002739,6.98667851 L16.0843539,7.45021021 C15.4426345,7.45021021 13.8722388,7.58134055 13.2860016,7.76793706 L13.0549205,7.32223517 C13.6533989,7.13174234 15.3467803,6.98667851 16.0002739,6.98667851 Z" opacity=".5"/>
  </g>
</svg>
