<svg xmlns="http://www.w3.org/2000/svg" width="16" height="16" viewBox="0 0 16 16">
  <g fill="none" fill-rule="evenodd">
    <path fill="#A4DCF0" d="M8.15810811,15.9751166 C10.9993892,15.9751166 13.3027027,15.1339969 13.3027027,14.096423 C13.3027027,13.0588492 10.9993892,11.9935696 8.15810811,11.9935696 C5.31682697,11.9935696 3.01351351,13.0588492 3.01351351,14.096423 C3.01351351,15.1339969 5.31682697,15.9751166 8.15810811,15.9751166 Z"/>
    <path fill="#F4CAB1" d="M8.04441985,4.04017779 C8.89809087,4.03402631 9.51491188,3.99904114 9.89488286,3.93522228 C11.0950797,3.85600862 11.8200418,4.58187953 12.0697692,6.11283501 C12.0697692,8.46003009 10.5979598,9.0049177 8.00237115,9.0049177 C5.40678253,9.0049177 3.93497313,8.08741273 3.93497313,6.24220559 C3.93497313,4.39699845 5.27149057,3.99337612 5.58253154,3.93522228 C5.89357251,3.87706843 6.76391333,4.04940501 8.04441985,4.04017779 Z"/>
    <g transform="translate(4.935 4.977)">
      <path fill="#FFFFFF" d="M1.08358296,3.11308557 C0.53129821,3.11308557 0.08358296,2.44151269 0.08358296,1.61308557 C0.08358296,0.784658442 0.53129821,0.113085567 1.08358296,0.113085567 C1.63586771,0.113085567 2.17833326,0.784658442 2.17833326,1.61308557 C2.17833326,2.44151269 1.63586771,3.11308557 1.08358296,3.11308557 Z M5.03561175,3.02707237 C4.483327,3.02707237 4.03561175,2.35549949 4.03561175,1.52707237 C4.03561175,0.698645244 4.483327,0.0270723689 5.03561175,0.0270723689 C5.5878965,0.0270723689 6.15126573,0.698645244 6.15126573,1.52707237 C6.15126573,2.35549949 5.5878965,3.02707237 5.03561175,3.02707237 Z"/>
      <path fill="#AC5C51" d="M1.03955212,2.36225152 C0.763409745,2.36225152 0.552772523,2.04688269 0.552772523,1.55901684 C0.552772523,1.071151 0.763409745,0.755782162 1.03955212,0.755782162 C1.3156945,0.755782162 1.55277252,1.071151 1.55277252,1.55901684 C1.55277252,2.04688269 1.3156945,2.36225152 1.03955212,2.36225152 Z M5.04164423,2.36225152 C4.76550186,2.36225152 4.55486464,2.04688269 4.55486464,1.55901684 C4.55486464,1.071151 4.76550186,0.755782162 5.04164423,0.755782162 C5.31778661,0.755782162 5.55486464,1.071151 5.55486464,1.55901684 C5.55486464,2.04688269 5.31778661,2.36225152 5.04164423,2.36225152 Z"/>
    </g>
    <path fill="#41505E" d="M3.07541973,0.0424766719 C2.77478628,0.857341887 2.77478628,1.61262312 3.07541973,2.30832037 C2.0325567,3.15041431 1.59581691,4.25125003 1.76520035,5.61082753 C2.01927552,7.65019378 3.53877553,9.94221192 7.76037604,9.94221192 C11.9819765,9.94221192 13.7643549,7.67558799 13.7200771,5.34695269 C13.6757992,3.01831738 12.5197832,2.54898911 12.3796332,2.30832037 C12.8587354,1.11761275 12.962064,0.362331519 12.6896189,0.0424766719 C12.2081669,0.167387965 11.4896643,0.552290476 10.5341111,1.1971842 C9.52704314,0.924634222 8.66618229,0.797431289 7.95152857,0.815575405 C7.23687486,0.833719521 6.46305191,0.960922454 5.63005973,1.1971842 C4.96055803,0.512321281 4.10901137,0.12741877 3.07541973,0.0424766719 Z M5.46023318,11.2952742 C5.47095024,12.0683337 5.47066111,12.6998849 5.45936578,13.1899278 C5.44490278,13.5548163 5.27020434,13.8031367 4.93527045,13.9348889 C4.71054756,13.986483 4.67006875,14.0887021 4.81383402,14.2415462 C4.97822271,14.3271486 5.23104247,14.3188542 5.57229333,14.2166628 C6.08416961,14.0633758 6.31074329,13.7804676 6.31074329,12.9812404 C6.31074329,12.4484222 6.31074329,11.9396707 6.31074329,11.4549857 C6.68725424,11.158014 6.9654547,10.9480484 7.14534467,10.825089 L7.14534467,14.40622 C7.09645535,14.6217162 7.00717772,14.7702308 6.87751181,14.8517639 C6.68301293,14.9740635 6.72887818,15.053878 6.74989555,15.1041487 C6.77091292,15.1544194 6.98829401,15.3272992 7.14534467,15.2487737 C7.30239533,15.1702483 8.08981589,15.1464792 8.08981589,14.1793736 L8.08981589,10.7929681 L8.28156225,10.6107045 C8.28156225,10.5242217 8.30516545,10.4809803 8.39692954,10.4809803 C8.4901567,10.4809803 8.64332748,10.5242217 8.64332748,10.6107045 L8.62104865,10.6124971 L8.62104865,14.1793736 C8.62104865,15.1464792 9.4084692,15.1702483 9.56551986,15.2487737 C9.72257052,15.3272992 9.93995162,15.1544194 9.96096899,15.1041487 C9.98198636,15.053878 10.0278516,14.9740635 9.83335273,14.8517639 C9.70368681,14.7702308 9.61440919,14.6217162 9.56551986,14.40622 L9.56551986,13.0126646 C9.59453888,13.6935715 9.82378925,13.9489803 10.3007973,14.0918256 C10.6420481,14.194017 10.8948679,14.2023114 11.0592566,14.116709 C11.2030218,13.9638649 11.162543,13.8616458 10.9378201,13.8100517 C10.6028863,13.6782995 10.4281878,13.4299791 10.4137248,13.0650906 C10.4021328,12.5621743 10.4021328,11.9102172 10.4137248,11.1092192 C10.4214962,10.5722261 10.2213574,10.2379728 9.81330836,10.1064593 L9.85368025,10.0424767 L6.9416419,10.0424767 C6.5676118,10.0410782 6.26435186,10.0957828 6.03187112,10.2066178 L6.06693875,9.92527464 C5.72857328,10.1082196 5.34760139,10.2002896 4.92402308,10.2014846 C4.28865563,10.2032772 3.69119876,9.98202967 3.1460818,9.38325417 C2.60096484,8.78447867 1.75774125,9.13882278 1.74489964,9.22609729 C1.73205803,9.31337179 1.69285731,9.39957776 1.82886167,9.46598432 C1.96486602,9.53239088 2.66808653,10.0721419 2.9361936,10.5690754 C3.20430067,11.066009 3.94372878,11.3245518 4.92402308,11.3245518 C5.13649887,11.3245518 5.31523557,11.3147926 5.46023318,11.2952742 Z M7.81600493,4.22674958 C9.06888195,4.22674958 9.58423611,4.19176441 9.36206741,4.12179406 C10.7806253,3.80960453 11.6147679,4.41898751 11.8644952,5.94994299 C11.8644952,8.29713807 10.3505976,8.84539143 7.75500902,8.84539143 C5.1594204,8.84539143 3.72969921,7.9245207 3.72969921,6.07931356 C3.72969921,4.23410642 5.04307565,4.17994791 5.35411662,4.12179406 C5.66515759,4.06364022 5.93668941,4.22674958 7.81600493,4.22674958 Z"/>
    <path fill="#AC5C51" d="M7.96729659,7.75326043 C8.10472358,7.75326043 8.31727017,7.50290134 8.31727017,7.36547434 C8.31727017,7.22804734 8.0943687,7.00073081 7.9569417,7.00073081 C7.8195147,7.00073081 7.61732301,7.22804734 7.61732301,7.36547434 C7.61732301,7.50290134 7.82986959,7.75326043 7.96729659,7.75326043 Z"/>
    <path fill="#201F1F" fill-rule="nonzero" d="M3.00027392,6.98667851 C2.34678029,6.98667851 0.653398944,7.13174234 0.0549205339,7.32223517 L0.286001614,7.76793706 C0.872238819,7.58134055 2.44263447,7.45021021 3.08435394,7.45021021 L3.00027392,6.98667851 Z"/>
    <path fill="#AC5C51" fill-rule="nonzero" d="M6.96988818,8.10512792 C7.09553885,8.6893777 7.45432922,9.06169304 8,9.06169304 C8.49894107,9.06169304 8.88514709,8.74968292 9.14440234,8.21971406 L8.24612459,7.78028594 C8.13901399,7.99924113 8.06171104,8.06169304 8,8.06169304 C7.98501867,8.06169304 7.98294996,8.05954635 7.94753458,7.89487208 L6.96988818,8.10512792 Z"/>
    <path fill="#201F1F" fill-rule="nonzero" d="M16.0002739,6.98667851 C15.3467803,6.98667851 13.6533989,7.13174234 13.0549205,7.32223517 L13.2860016,7.76793706 C13.8722388,7.58134055 15.4426345,7.45021021 16.0843539,7.45021021 L16.0002739,6.98667851 Z"/>
  </g>
</svg>
