<svg xmlns="http://www.w3.org/2000/svg" xmlns:xlink="http://www.w3.org/1999/xlink" width="16" height="16" viewBox="0 0 16 16">
  <defs>
    <path id="a" d="M0.991032398,3.50478959 C0.0954021509,2.97332279 -0.170438291,2.17587512 0.193511071,1.11244659 C0.739435115,-0.482696207 2.13583827,0.0117337194 2.47270333,0.37191528 C2.03310909,0.928788226 1.53921878,1.97307966 0.991032398,3.50478959 Z"/>
    <path id="b" d="M0.991032398,3.50478959 C0.0954021509,2.97332279 -0.170438291,2.17587512 0.193511071,1.11244659 C0.739435115,-0.482696207 2.13583827,0.0117337194 2.47270333,0.37191528 C2.03310909,0.928788226 1.53921878,1.97307966 0.991032398,3.50478959 Z"/>
    <path id="c" d="M12.0794745,12 C12.0561973,10.131406 12.0281953,8.7545018 11.9954685,7.8692873 C11.9463783,6.54146555 12.5787729,-0.126995547 7.15106037,0.00469019856 C3.75937733,-0.00140107619 2.0601955,1.83607468 2.05351486,5.51711746 L2.05351486,12 L12.0794745,12 Z"/>
    <path id="d" d="M0.713043669,0.53319706 L0.713043669,1.51713564 C0.822076277,2.39614577 1.07615271,2.83732979 1.47527296,2.84068771 C1.87439322,2.84404563 2.18653567,2.5976476 2.41170033,2.10149362 C2.53706552,2.59428968 2.7937509,2.84068771 3.18175646,2.84068771 C3.7637648,2.84068771 3.96304367,2.47293227 3.96304367,2.10149362 C3.96304367,1.85386784 3.96304367,1.23809335 3.96304367,0.254170123 C3.55309968,0.104248956 3.03598524,0.029288373 2.41170033,0.029288373 C1.78741542,0.029288373 1.22119653,0.197257935 0.713043669,0.53319706 Z"/>
    <path id="e" d="M6.36140657,6.30203927 C5.76761084,6.59473789 5.48289532,6.91792409 5.50726003,7.27159785 C5.54380709,7.8021085 5.77652148,7.91096145 6.13320324,7.99033924 C6.48988501,8.06971704 6.76252143,7.63378435 7.26492145,7.63625607 C7.76732147,7.63872778 8.11586785,7.91917142 8.36067296,7.91917142 C8.60547808,7.91917142 9.01576878,7.81771144 9.08303095,7.3960484 C9.15029313,6.97438536 8.33269072,6.35180709 8.20083832,6.30203927 C8.11293673,6.26886073 7.49979281,6.26886073 6.36140657,6.30203927 Z"/>
  </defs>
  <g fill="none" fill-rule="evenodd" transform="translate(1 2)">
    <g transform="matrix(-1 0 0 1 14 1.231)">
      <use fill="#596071" xlink:href="#a"/>
      <path stroke="#585E6F" d="M0.735874365,3.93478305 C-0.369143597,3.27906562 -0.718158491,2.23211765 -0.279551182,0.95054506 C0.0291686427,0.0484924584 0.632833391,-0.440048893 1.37810135,-0.489948693 C1.93458527,-0.527208361 2.53194933,-0.2967255 2.83787898,0.0303794248 L3.13149907,0.34432277 L2.86515921,0.681719061 C2.46777408,1.18512198 1.99300827,2.18897621 1.46179158,3.67327043 L1.25743336,4.24427606 L0.735874365,3.93478305 Z"/>
      <path fill="#000000" d="M1.73440075,1.45830374 C1.28626189,1.12442076 1.00304966,1.15261673 0.884764049,1.54289167 C0.707335638,2.12830408 1.03388303,2.36921921 1.28170656,2.50746888 L1.73440075,1.45830374 Z"/>
    </g>
    <g transform="translate(0 1.477)">
      <use fill="#596071" xlink:href="#b"/>
      <path stroke="#585E6F" d="M0.735874365,3.93478305 C-0.369143597,3.27906562 -0.718158491,2.23211765 -0.279551182,0.95054506 C0.0291686427,0.0484924584 0.632833391,-0.440048893 1.37810135,-0.489948693 C1.93458527,-0.527208361 2.53194933,-0.2967255 2.83787898,0.0303794248 L3.13149907,0.34432277 L2.86515921,0.681719061 C2.46777408,1.18512198 1.99300827,2.18897621 1.46179158,3.67327043 L1.25743336,4.24427606 L0.735874365,3.93478305 Z"/>
      <path fill="#000000" d="M1.73440075,1.45830374 C1.28626189,1.12442076 1.00304966,1.15261673 0.884764049,1.54289167 C0.707335638,2.12830408 1.03388303,2.36921921 1.28170656,2.50746888 L1.73440075,1.45830374 Z"/>
    </g>
    <use fill="#596071" xlink:href="#c"/>
    <path stroke="#585E6F" d="M12.5857418,12.5 L1.55351486,12.5 L1.55351486,12 L1.55351569,5.51621003 C1.56068164,1.56775559 3.47458111,-0.501913361 7.13893307,-0.495162708 C10.0663228,-0.566186275 11.6648189,1.1338669 12.2422507,3.94966305 C12.4586654,5.00499076 12.5065949,5.92366789 12.4944902,7.31976803 C12.4915444,7.65951762 12.4914168,7.75045497 12.4951272,7.85081468 C12.5280388,8.74102884 12.5561117,10.1214197 12.5794357,11.993772 L12.5857418,12.5 Z"/>
    <g transform="translate(2.549 1.674)">
      <circle cx="2.051" cy="2.326" r="1.8" fill="#83899A"/>
      <ellipse cx="2.01" cy="2.657" fill="#333849" rx="1" ry="1"/>
    </g>
    <g transform="translate(7.549 1.674)">
      <circle cx="2.051" cy="2.226" r="2" fill="#83899A"/>
      <ellipse cx="2.01" cy="2.657" fill="#333849" rx="1" ry="1"/>
    </g>
    <g transform="translate(5.087 7.682)">
      <use fill="#596071" xlink:href="#d"/>
      <path stroke="#363B4C" stroke-width=".5" d="M2.37147661 2.647803C2.13278058 2.94050274 1.83139698 3.09369274 1.47316971 3.09067886.903285219 3.08588425.587754774 2.5379901.463043669 1.51713564L.463043669.398779013.575173572.324650096C1.12449496-.0385054789 1.73870482-.220711627 2.41170033-.220711627 3.06319448-.220711627 3.60858909-.14165157 4.04890958.0193786302L4.21304367.0794043281 4.21304367 2.10149362C4.21304367 2.67610502 3.84579501 3.09068771 3.18175646 3.09068771 2.83050111 3.09068771 2.55749945 2.93557643 2.37147661 2.647803zM2.35304367.0313572593C2.22859922 1.43086313 2.18711774 2.39086317 2.22859922 2.91135737"/>
    </g>
    <use fill="#363B4C" xlink:href="#e"/>
    <path stroke="#363C4C" stroke-width=".75" d="M6.35048174,5.92719844 C7.63339849,5.88980752 8.17061472,5.88980752 8.33326319,5.95119935 C8.77240658,6.11695444 9.54271737,6.89487516 9.45334909,7.45512022 C9.36178802,8.02911173 8.8811161,8.29417142 8.36067296,8.29417142 C8.25329463,8.29417142 8.15219875,8.27123936 8.0313181,8.22868577 C7.97107656,8.20747895 7.74614327,8.11749622 7.77090849,8.12714103 C7.56782482,8.04805015 7.42243811,8.01203556 7.26307654,8.01125153 C7.14745595,8.0106827 7.04807223,8.04642799 6.8696973,8.14575355 C6.62487632,8.28207865 6.63954142,8.27425649 6.54208107,8.31165646 C6.37939651,8.37408593 6.21924224,8.39366078 6.05174168,8.35638434 C5.46692613,8.22623648 5.17794908,7.94771362 5.13314673,7.29737065 C5.09577385,6.75487257 5.4804734,6.31819253 6.1956071,5.96568301 L6.35048174,5.92719844 Z"/>
    <path fill="#343A4A" d="M7.72835001,6.79545455 C8.43602619,6.79545455 9.08695652,6.39333965 9.08695652,5.98540206 C9.08695652,5.57746446 8.43602619,5.31818182 7.72835001,5.31818182 C7.02067383,5.31818182 6.20108696,5.66243078 6.20108696,6.07036838 C6.20108696,6.47830598 7.02067383,6.79545455 7.72835001,6.79545455 Z"/>
  </g>
</svg>
