<svg id="logo" xmlns="http://www.w3.org/2000/svg" viewBox="0 0 16 16"><defs><style>.cls-1{fill:#e535ab;}</style></defs><title>graphql-icon</title><rect class="cls-1" x="-1.39" y="6.02" width="13.09" height="0.68" transform="translate(-2.93 7.64) rotate(-60)"/><rect class="cls-1" x="1.45" y="10.95" width="13.09" height="0.68"/><rect class="cls-1" x="4.82" y="9.15" width="0.68" height="7.56" transform="translate(-8.62 10.93) rotate(-60)"/><rect class="cls-1" x="10.5" y="-0.7" width="0.68" height="7.56" transform="translate(2.76 10.93) rotate(-60)"/><rect class="cls-1" x="1.38" y="2.74" width="7.56" height="0.68" transform="translate(-0.85 2.99) rotate(-30)"/><rect class="cls-1" x="10.51" y="-0.18" width="0.68" height="13.09" transform="translate(-1.73 6.28) rotate(-30)"/><rect class="cls-1" x="1.97" y="4.22" width="0.68" height="7.56"/><rect class="cls-1" x="13.35" y="4.22" width="0.68" height="7.56"/><rect class="cls-1" x="7.56" y="12.63" width="6.57" height="0.59" transform="matrix(0.87, -0.5, 0.5, 0.87, -5.01, 7.15)"/><path class="cls-1" d="M14.93,12a1.43,1.43,0,1,1-.53-1.95A1.43,1.43,0,0,1,14.93,12"/><path class="cls-1" d="M3.54,5.43A1.43,1.43,0,1,1,3,3.48a1.43,1.43,0,0,1,.52,1.95"/><path class="cls-1" d="M1.07,12a1.43,1.43,0,1,1,2,.52A1.44,1.44,0,0,1,1.07,12"/><path class="cls-1" d="M12.46,5.43A1.43,1.43,0,1,1,14.41,6a1.43,1.43,0,0,1-1.95-.52"/><path class="cls-1" d="M8,16a1.43,1.43,0,1,1,1.43-1.43A1.43,1.43,0,0,1,8,16"/><path class="cls-1" d="M8,2.85A1.43,1.43,0,1,1,9.43,1.43,1.43,1.43,0,0,1,8,2.85"/></svg>