<svg xmlns="http://www.w3.org/2000/svg" width="16" height="16" viewBox="0 0 16 16">
  <g fill="none" fill-rule="evenodd">
    <path fill="#FBA919" fill-rule="nonzero" d="M5.04148111,2.04300915 C4.97682659,2.32447618 4.55252571,2.54820299 4.55252571,2.54820299 L3.73017852,3.15358944 C3.84706437,3.17507525 3.86106895,3.20528528 3.86106895,3.20528528 C3.86106895,3.20528528 3.87591219,3.19289804 3.90483842,3.17055958 L3.80825143,3.12568358 C3.80825143,3.12568358 4.04784297,3.01077619 4.36922396,2.85735003 C4.96773605,2.49677732 6.05873958,1.97862555 7.44713143,1.92806081 C8.38397295,1.89394301 9.20804884,2.13218195 9.83969558,2.41185067 C9.81216273,2.38834927 9.79746045,2.37497195 9.79746045,2.37497195 L9.79746045,2.23960741 C9.79746045,2.23960741 9.71225143,2.08114627 9.90850286,1.80766567 C10.1049086,1.53408955 10.6613657,0.986937313 11.5482,0.980823881 C12.4349314,0.974662687 13.3122514,1.19971343 13.3122514,1.19971343 L12.6121579,1.61050093 C12.5723178,1.66763594 12.5170763,1.7468582 12.4464334,1.8481677 C12.3172734,2.18417408 12.1007467,2.85529864 11.9246651,3.14300044 L12.1217832,3.1271002 C12.1217832,3.1271002 12.8806632,3.1271002 13.3019147,3.5576196 C13.7234232,3.98809125 12.9646975,4.57536289 12.8383375,4.81020468 C12.7302683,5.01109375 12.8379728,5.75585043 12.8714179,5.96724971 C12.8808957,5.95228093 12.8874,5.94469254 12.8874,5.94469254 C12.8874,5.94469254 13.3137248,6.24017189 13.4919304,6.63689816 C13.5778765,6.74790877 13.6482331,6.86078716 13.6812518,6.96299274 C13.7436294,7.1560988 13.5804359,7.36819198 13.3079575,7.5805358 C13.114757,7.79775922 12.7678388,8.02369562 12.0655578,8.33820384 C11.5195531,8.80860775 11.6695113,9.81922288 11.7846175,10.6031121 C11.9110804,11.4642942 12.0965898,13.1427116 11.7592698,14.0428668 C11.4221555,14.9432131 9.93010324,15.065345 9.93010324,15.065345 C9.93010324,15.065345 9.63526324,15.3784196 8.53942324,15.6524256 C7.4436861,15.9264315 5.58912038,15.2217151 5.33629753,15.2217151 C5.0835261,15.2217151 5.33629753,15.2217151 4.19844038,14.7520793 C3.06058324,14.2823957 3.27123467,11.6599241 3.27123467,11.6599241 C3.27123467,11.6599241 3.60834895,10.6032077 3.60834895,10.0552435 C3.60834895,9.50713602 3.48204038,8.60693304 2.55468038,8.25464647 C1.62732038,7.90231214 1.45894324,7.19778677 1.45894324,6.80633602 C1.45894324,6.41488528 2.25978895,5.63207931 2.2175661,5.2798405 C2.17549753,4.92750617 1.23962744,3.3689791 2.5124061,3.20528528 C2.87705607,3.15838714 3.14346285,3.13836155 3.33798851,3.13366007 C3.19175241,3.01092177 3.01290527,2.80264399 2.93268,2.47980896 C2.83772712,2.09760577 3.01884951,1.8737966 3.00807277,1.73246342 L2.46221143,1.64909851 C2.53654286,1.19947463 2.86928571,0.976716418 3.46044,0.980823881 C4.34722286,0.986937313 4.90347429,1.53408955 5.09993143,1.80766567 C5.29638857,2.08114627 5.68899429,2.14189851 5.68899429,2.14189851 L5.04148111,2.04300915 Z M11.2204904,3.19980165 C11.1846125,3.18935598 11.148949,3.17805673 11.1135596,3.16600787 L11.1081648,3.16851476 C11.1374213,3.19214057 11.152509,3.20528528 11.152509,3.20528528 L11.2204904,3.19980165 Z"/>
    <g fill="#FBA919" transform="translate(4.286 13)">
      <path d="M.694285714.297719403C.694285714.297719403.878194286 1.34149254 1.61454857 1.34149254 2.24028 1.34149254 2.42465143.459820896 2.42465143.27761194L.694285714.297719403zM5.66989714.31921194C5.66989714.31921194 5.48578286 1.36298507 4.74963429 1.36298507 4.12400571 1.36298507 3.93958286.481313433 3.93958286.299104478L5.66989714.31921194z"/>
    </g>
    <path fill="#FFFFFF" fill-rule="nonzero" d="M6.01633714,7.01812537 C6.01633714,7.01812537 5.55810857,7.44367761 4.85441143,7.30679403 C4.15071429,7.17010149 3.72519429,6.88133731 3.69248571,6.37979701 C3.65977714,5.87830448 3.83988,5.68076418 3.83988,5.68076418 C3.83988,5.68076418 4.62524571,5.90887164 5.00180571,6.21282388 C5.37816,6.5166806 5.65628571,7.00298507 6.01633714,7.01812537 Z M8.99225143,7.01812537 C9.35235429,7.00298507 9.63048,6.51677612 10.0068343,6.21282388 C10.3831886,5.90887164 11.16876,5.68076418 11.16876,5.68076418 C11.16876,5.68076418 11.3486571,5.87830448 11.316,6.37979701 C11.28324,6.88133731 10.8577714,7.17010149 10.1540229,7.30679403 C9.45048,7.44367761 8.99225143,7.01812537 8.99225143,7.01812537 Z"/>
    <path fill="#A65D00" fill-rule="nonzero" d="M9.87200967,1.93776648 C10.1125948,1.64264385 10.4677104,0.356896868 11.2506272,0.122459701 C11.5219129,0.0410746269 11.7945358,2.83059645e-17 12.0609358,-4.73316543e-30 C13.0372044,2.83059645e-17 13.6137186,0.540513433 13.6186558,0.545958209 L13.8921015,0.842841791 L13.4795415,0.917970149 C13.4727015,0.919259701 12.6589029,1.67627463 12.3746571,2.09284776 C12.3275486,2.16210149 12.3152057,2.29903284 12.3018343,2.44441791 C12.2940686,2.53086567 12.3136114,2.61511642 12.33264,2.69654925 C12.3467449,2.75693236 12.3610061,2.81802481 12.3640501,2.87968336 C12.6215327,2.88846741 13.2398943,2.93583617 13.4186571,3.02075224 C13.6610914,3.13590448 13.8251486,3.31964179 13.8934457,3.55190448 C14.0605886,4.12126567 13.1183657,4.7552 13.0998,4.77545075 C13.0363371,4.88066866 13.0094914,5.64499104 13.1559086,5.95090149 C13.1760686,5.99312239 13.2313543,6.03462687 13.3015029,6.08706866 C13.3234114,6.10354627 13.3477371,6.12064478 13.3739143,6.13893731 C13.5808114,6.2839403 13.8934457,6.5030209 13.8934457,7.008 C13.8934457,7.69896119 13.1394,8.0736 12.5336229,8.37482985 C12.4341086,8.42450149 12.33912,8.47149851 12.2535943,8.51739701 C12.1630286,8.56597015 11.8436571,8.8729791 11.8436571,9.33215522 C11.8434649,9.54738445 11.8650659,10.5721009 11.9682294,11.2820853 C12.7746501,11.1323477 14.1700123,10.9419187 14.2504774,10.3832441 C14.2504774,10.3832441 15.2323571,10.6186511 14.9433286,12.1273317 C14.766586,13.0496071 12.2298931,14.2664472 11.4291484,14.5369573 C11.1914753,15.0036758 10.8958896,15.1387331 9.64501255,15.3902021 C9.1590489,15.759467 8.48642074,15.9985893 7.50673714,15.9993791 C6.52207362,15.9986319 5.84937458,15.7594881 5.36339041,15.3901806 C4.49275083,15.3071728 3.89377691,14.8929555 3.50699916,14.4487385 C2.37700611,14.0602832 0.249688876,13.2134807 0.0458603607,12.1490592 C-0.243168211,10.6403786 0.989521116,10.6258426 1.05747315,10.5852722 C1.13791116,11.1440142 2.08961225,11.290737 3.33613914,11.5870307 C3.43918551,10.8770421 3.16508571,9.54739576 3.16508571,9.33215522 C3.16488,8.8729791 2.84566286,8.56597015 2.75514857,8.51739701 C2.66936571,8.47149851 2.57448,8.42450149 2.47506857,8.37482985 C1.86908571,8.0736 1.11504,7.69896119 1.11504,7.008 C1.11504,6.5030209 1.42782857,6.2839403 1.63467429,6.13893731 C1.66064571,6.12064478 1.68517714,6.10354627 1.70708571,6.08706866 C1.77708,6.03462687 1.83236571,5.99312239 1.85252571,5.95090149 C1.99914857,5.64499104 1.97225143,4.88066866 1.90878857,4.77545075 C1.89022286,4.7552 0.912977143,4.12126567 1.08012,3.55190448 C1.14831429,3.31964179 1.31247429,3.13590448 1.55485714,3.02075224 C1.74474008,2.93046057 2.41517771,2.88262054 2.69393072,2.87847929 C2.70144386,2.74049535 2.77019612,2.59847575 2.75592,2.44031045 C2.74198286,2.28933731 2.72912571,2.14686567 2.67553714,2.06829851 C2.37725143,1.63085373 1.80098722,0.874459701 1.7939415,0.873074627 L1.46366722,0.812991045 L1.68229007,0.575474627 C1.71062722,0.544716418 2.60846722,-0.250841791 3.9978615,0.165731343 C4.77951618,0.399854037 5.13731041,1.52231907 5.36339041,1.80200161 C5.4446359,1.77778588 5.52694194,1.75515828 5.6102904,1.7341231 C5.57769426,0.907928261 6.24906311,0.255903364 6.50241156,0.227809973 C6.51650299,0.369087585 6.67817143,1.10199403 6.93310286,1.27145075 C7.00731429,0.821349254 7.25828571,0.325110448 8.24931429,1.42108547e-14 C8.03706857,0.52279403 8.22097714,0.960716418 8.30856,1.16370149 C8.98530857,0.593241791 9.44127429,0.687522388 9.44127429,0.687522388 C9.44127429,0.687522388 9.04889624,1.31632035 9.12120095,1.80200161 C9.23872884,1.84183418 9.36456002,1.88905755 9.49009825,1.93881688 L9.87200967,1.93776648 Z M10.5626222,2.19522043 C11.1540468,2.4630128 11.123205,2.81777741 11.2793749,3.01871215 C11.1984248,2.93270207 11.5255534,2.95956416 11.6661712,2.93512838 C11.7770789,2.79628376 11.7942986,2.6057077 11.8125943,2.40520597 C11.8301829,2.21201194 11.8483371,2.01213134 11.9597829,1.84869254 C12.1645714,1.54856119 12.0653613,1.43081501 12.3324298,1.31900605 C10.5940129,1.20563968 10.5154871,2.17388424 10.5626222,2.19522043 Z M4.57199306,2.26274905 C4.61912814,2.24141285 4.54060233,1.27316829 2.80218539,1.38653467 C3.06925396,1.49834362 2.9700438,1.61608981 3.17483238,1.91622115 C3.28627809,2.07965996 3.30443238,2.27954055 3.32202095,2.47273458 C3.34031661,2.67323631 3.35753632,2.86381237 3.46844401,3.00265699 C3.60906183,3.02709277 3.93619043,3.00023069 3.85524033,3.08624076 C4.01141019,2.88530603 3.98056845,2.53054141 4.57199306,2.26274905 Z M10.8399063,9.19092537 C10.8750321,8.64506269 11.7165257,8.27873433 12.0083314,8.12250746 C12.09972,8.07369552 12.1952743,8.02569552 12.2916514,7.97740896 C12.7915371,7.72656716 13.3084457,7.4670806 13.3084457,7.024 C13.3084457,6.67739701 12.7757486,6.2784 12.7076057,6.13597612 C12.5210743,5.7465791 12.1955779,4.90211343 12.4125036,4.65031642 C12.5206579,4.52484776 12.8106636,4.10292537 12.7273493,3.81941493 C12.6954122,3.71118806 12.6219722,3.63099701 12.502555,3.57416119 C12.3760922,3.51402985 12.205555,3.48355821 11.9951093,3.48355821 C11.582395,3.48355821 11.4190114,3.45284776 11.1829029,3.5223403 C10.3384971,3.77088955 9.31959429,4.48749851 9.02732571,4.70122985 C9.02177143,4.70520995 8.95474286,4.74878408 8.82624,4.83195224 L8.94313714,4.65031642 C8.9499971,4.63983118 9.08574237,3.66911557 10.2313624,3.19667485 C9.81386959,3.19667485 9.26823648,2.56086206 7.49953714,2.56032177 C5.7308378,2.55978148 5.13857521,3.10630702 5.07073599,3.19667485 C6.2165889,3.66907355 6.05878149,4.63983034 6.06545143,4.65031642 L6.18234857,4.83195224 L5.99545714,4.7112597 C5.6892,4.48749851 4.67029714,3.77088955 3.82589143,3.5223403 C3.58957714,3.45284776 3.43844493,3.58137313 3.0254735,3.58137313 C2.8152335,3.58137313 2.64443921,3.61184478 2.51802779,3.67197612 C2.39855921,3.72881194 2.32517064,3.80900299 2.29343921,3.91722985 C2.21012493,4.2007403 2.49992493,4.62266269 2.60807921,4.74813134 C2.82505636,4.99992836 3.07446857,5.65355306 2.88798857,6.04295007 C2.81964,6.18537395 2.13162857,6.59466992 2.13162857,7.01740572 C2.13162857,7.46048632 2.49152784,7.6040597 2.99141355,7.85490149 C3.08758498,7.90318806 3.18308784,7.95118806 3.27447641,8 C3.56633355,8.15622687 4.08682828,8.63148075 4.12200543,9.17734344 C4.15137719,9.63467095 4.14476504,10.1795128 4.05926627,10.9906601 C4.38708785,11.1084656 4.27240387,11.1778732 4.62506516,11.2021277 C4.64761757,11.1404235 4.67134485,11.0756251 4.696245,11.0077633 C4.71866785,10.9466289 5.70570857,9.76692537 5.93482286,9.41736119 C5.74512391,10.6760425 5.5602071,10.8844654 5.49874837,11.3365911 C5.66411491,11.336506 6.97145733,10.9910166 7.49953714,10.9906601 C8.01756025,10.9909632 9.3972554,11.3493715 9.61625381,11.3494914 C9.50187116,10.8446473 9.09759677,10.6141537 8.9157932,9.40785943 C9.1447532,9.75742361 9.96302389,11.0730881 10.0312668,11.2021277 C10.467765,11.1905321 10.4211062,11.1411782 10.8399063,10.9906601 C10.7543931,10.1795162 10.8103385,9.64824626 10.8399063,9.19092537 Z M4.79328417,14.7998315 C4.53258802,14.4396106 4.34953971,14.0319919 4.18892571,13.626603 C4.02533904,13.2144107 4.04893713,12.8791005 4.25859293,12.6296271 C4.275738,12.5812719 2.00870617,12.5136213 1.20750528,11.9138634 C1.03959099,12.0699948 0.634943152,12.875984 3.48408642,13.4208974 C3.43209213,13.6140914 4.68967493,14.7609697 4.79328417,14.7998315 Z M10.3925239,14.7998315 C10.4961331,14.7609697 11.7537159,13.6140914 11.7017216,13.4208974 C14.5508649,12.875984 13.9907816,11.9865389 13.8228674,11.8304076 C13.0216665,12.4301655 11.4291484,12.6296271 10.9272151,12.6296271 C11.1368709,12.8791005 11.160469,13.2144107 10.9968823,13.626603 C10.8362683,14.0319919 10.65322,14.4396106 10.3925239,14.7998315 Z M9.88712594,13.1188208 C9.99899294,12.739007 9.99037698,12.4581186 9.8609971,12.2833522 C9.77249622,12.1639441 9.56931878,12.0215624 9.10602365,12.0215624 L8.62235926,12.021341 C8.26549933,12.0209535 8.0305839,12.0215624 7.5,12.021341 C6.96922879,12.0215624 6.71041167,12.0209535 6.35345808,12.021341 L5.86960639,12.0215624 C5.40645174,12.0215624 5.20322748,12.1639995 5.11477341,12.2833522 C4.98525306,12.4579525 4.97673075,12.739007 5.08859775,13.1188208 C5.29074502,13.8034378 5.74126475,14.9929451 7.59673974,14.9958237 C9.4519806,14.9929451 9.68497867,13.8033824 9.88712594,13.1188208 Z M5.57143961,7.76953806 C4.92310857,8.30899478 3.73874227,7.20377723 3.50699916,6.9655403 C3.00718971,6.45195101 3.1690636,5.7923363 3.20803657,5.53194108 C3.01921717,5.46084133 3.16686783,5.09218629 2.99141355,5.05635803 C4.41320784,4.73611923 5.37471429,5.60143284 5.70190286,5.95090149 C6.26232,6.54949254 6.88013143,6.68212537 6.88013143,6.68212537 C6.89021469,7.02877823 6.53321064,7.2772267 6.16975945,7.29214717 C6.20861483,7.77529687 5.70190286,8.3080597 5.70190286,8.3080597 C5.70190286,8.3080597 5.65841511,8.12855249 5.57143961,7.76953806 Z M9.6574569,7.76953806 C10.3057879,8.30899478 11.4901542,7.20377723 11.7218974,6.9655403 C12.2217068,6.45195101 12.0598329,5.7923363 12.0208599,5.53194108 C12.2096793,5.46084133 12.0620287,5.09218629 12.237483,5.05635803 C10.8156887,4.73611923 9.85418223,5.60143284 9.52699365,5.95090149 C8.96657651,6.54949254 8.34876508,6.68212537 8.34876508,6.68212537 C8.33868182,7.02877823 8.69568587,7.2772267 9.05913706,7.29214717 C9.02028168,7.77529687 9.52699365,8.3080597 9.52699365,8.3080597 C9.52699365,8.3080597 9.5704814,8.12855249 9.6574569,7.76953806 Z M5.57091618,6.9655403 L5.57091618,7.01645692 C5.31974467,6.66146757 4.91567563,6.47902194 4.25859293,6.13597612 C4.15891151,6.41958233 3.94416946,6.72395769 4.29389143,6.9655403 C4.84121409,7.34325808 5.3779278,7.12165601 5.57143961,7.01740572 L5.57091618,6.9655403 Z M9.45922227,6.9655403 L9.45922227,7.01645692 C9.71039378,6.66146757 10.1144628,6.47902194 10.7715455,6.13597612 C10.8712269,6.41958233 11.085969,6.72395769 10.736247,6.9655403 C10.1889244,7.34325808 9.65221064,7.12165601 9.45869883,7.01740572 L9.45922227,6.9655403 Z M8.69057953,5.07192493 C8.69057953,5.07192493 8.07744802,5.99664172 7.5,5.99664172 C6.92255198,5.99664172 6.40442352,5.03380045 6.40442352,5.03380045 C6.73922352,5.22193179 7.21477714,5.19486098 7.5,5.20064008 C7.78517143,5.19486098 8.35583096,5.26005627 8.69057953,5.07192493 Z M7.40194062,13.4203496 C7.33094387,13.6504842 7.24911192,14.0503889 6.59752718,14.0513566 C5.94586022,14.0503889 5.78763183,13.6505028 5.71663508,13.4203496 C5.67734594,13.2926646 5.68033908,13.1981803 5.72582831,13.1394835 C5.75689453,13.0993598 5.82826954,13.0514756 5.99093548,13.0514756 L6.16087049,13.0514011 C6.28623723,13.0512709 6.37713718,13.0514756 6.56355093,13.0514011 C6.7498989,13.0514756 6.83240425,13.0512709 6.95773811,13.0514011 L7.12760733,13.0514756 C7.29032261,13.0514756 7.36168117,13.0993412 7.39276383,13.1394835 C7.43820373,13.1982361 7.44122977,13.2926646 7.40194062,13.4203496 Z M9.54479776,13.4203496 C9.47380101,13.6504842 9.39196906,14.0503889 8.74038433,14.0513566 C8.08871737,14.0503889 7.93048898,13.6505028 7.85949222,13.4203496 C7.82020308,13.2926646 7.82319622,13.1981803 7.86868546,13.1394835 C7.89975167,13.0993598 7.97112668,13.0514756 8.13379262,13.0514756 L8.30372763,13.0514011 C8.42909438,13.0512709 8.51999432,13.0514756 8.70640807,13.0514011 C8.89275604,13.0514756 8.9752614,13.0512709 9.10059525,13.0514011 L9.27046447,13.0514756 C9.43317975,13.0514756 9.50453831,13.0993412 9.53562098,13.1394835 C9.58106087,13.1982361 9.58408691,13.2926646 9.54479776,13.4203496 Z"/>
    <path fill="#FFFFFF" d="M3.10073045,12.2436576 C3.584978,12.3889595 3.04873617,13.5280244 3.10073045,13.3348304 C0.541293976,12.7730819 0.887714446,11.7946221 1.05562873,11.6384908 C1.85682962,12.2382486 2.6164829,12.0983557 3.10073045,12.2436576 Z M12.0755517,12.2436576 C12.5597993,12.0983557 13.3194526,12.2382486 14.1206535,11.6384908 C14.2885677,11.7946221 14.6349882,12.7730819 12.0755517,13.3348304 C12.127546,13.5280244 11.5913042,12.3889595 12.0755517,12.2436576 Z"/>
    <path fill="#A65D00" d="M3.07203768 11.9581556C2.88951687 12.961574 2.88951687 13.5065707 3.16228969 13.7237224 3.38986133 13.9048899 3.81730728 13.977491 4.47816782 13.977491L4.47816782 13.477491C3.94117388 13.477491 3.60725204 13.4207748 3.50994257 13.3433077 3.45783428 13.3018248 3.45783428 12.8244781 3.60019458 12.0418444L3.07203768 11.9581556zM11.8506154 11.9552594C12.0334802 12.9605686 12.0334802 13.5116753 11.7603584 13.7291048 11.5381994 13.9059633 11.1170736 13.977491 10.4625997 13.977491L10.4625997 13.477491C11.0059803 13.477491 11.3462224 13.4197013 11.4489444 13.3379253 11.5007038 13.2967202 11.5007038 12.8254835 11.3586875 12.0447406L11.8506154 11.9552594z"/>
  </g>
</svg>
