<svg xmlns="http://www.w3.org/2000/svg" width="16" height="16" viewBox="0 0 16 16">
  <path fill="#585E6F" fill-rule="evenodd" d="M8.66714722,2.01530516 L3.49942711,2.01530516 L3.49942711,2.01530516 C3.22360113,2.01530516 3,2.2389063 3,2.51473227 L3,2.51473227 L3,2.51473227 C3,2.79055824 3.22360113,3.01415938 3.49942711,3.01415938 L3.49942711,3.01415938 L12.5005729,3.01415938 C12.7763989,3.01415938 13,2.79055824 13,2.51473227 L13,2.51473227 C13,2.2389063 12.7763989,2.01530516 12.5005729,2.01530516 L12.5005729,2.01530516 L10.5399639,2.01530516 L12.1667473,0 L10.6024329,0 L8.66714722,2.01530516 Z M4.15656936,3.94913712 L11.8518726,3.94913712 L11.8518726,3.94913712 C12.4041574,3.94913712 12.8518726,4.39685237 12.8518726,4.94913712 C12.8518726,4.99505361 12.8487101,5.04091558 12.8424076,5.08639747 L11.5691916,14.2745207 C11.432138,15.2635635 10.5866152,16 9.58812162,16 L6.4883365,16 C5.49535235,16 4.65273718,15.271453 4.50930965,14.2888818 L3.16705593,5.09357804 C3.08728342,4.54708486 3.46563527,4.03939621 4.01212845,3.9596237 C4.0599587,3.95264184 4.10823222,3.94913712 4.15656936,3.94913712 L4.15656936,3.94913712 Z M10.7726346,6.83051595 C11.0380605,6.67383809 11.0412958,5.60550861 9.39051124,4.94397868 C8.2979434,4.66165711 6.26257579,6.65477783 5.68330539,8.63250749 C5.104035,10.6102372 5.23732213,11.8265137 6.21608935,12.1347262 C6.86860083,12.3402013 7.60405698,11.961566 8.4224578,10.9988203 L7.76978903,12.8989128 C7.64170218,13.2718077 7.83055238,13.6793574 8.19785308,13.8226999 C8.5209713,13.9487998 8.8851345,13.7890848 9.01123436,13.4659666 C9.02007482,13.4433138 9.02759218,13.4201667 9.03374848,13.3966422 L10.1882165,8.98517286 L10.1882165,8.98517286 C10.2646936,8.69293771 10.0897871,8.39403742 9.79755193,8.31756037 C9.77437661,8.31149546 9.75082787,8.30695965 9.72705785,8.30398226 C9.36206304,8.25826357 9.01200325,8.46390944 8.87423272,8.80498229 L8.52139458,9.67848924 C7.73500991,10.7476432 7.16882335,11.1725514 6.82283488,10.9532139 C6.30385219,10.6242077 6.78703257,9.10988204 7.23519538,8.08555139 C7.68335818,7.06122074 9.17742813,5.67916246 9.58098153,6.2700058 C10.0038566,7.07937008 10.5072087,6.98719381 10.7726346,6.83051595 Z"/>
</svg>
