<svg xmlns="http://www.w3.org/2000/svg" width="16" height="16" viewBox="0 0 16 16">
  <g fill="#5A5F6F" fill-rule="evenodd" transform="translate(2)">
    <path d="M0.166977237,0.806974125 L3.21816299,7.40596177 L1.14861104,14.7928192 C1.47939172,15.3240977 1.96687199,15.6246628 2.61105185,15.6945146 C3.25523171,15.7643663 3.8191773,15.7643663 4.30288863,15.6945146 L5.59978391,7.98655554 L11.5720602,3.03216917 C10.9230472,2.19846064 10.2726597,1.8136774 9.62089755,1.87781945 L4.82992069,5.91952844 L2.06153912,0.300491359 C1.67120904,0.136613713 1.303537,0.136613713 0.958522996,0.300491359 C0.613508988,0.464369005 0.349660402,0.633196593 0.166977237,0.806974125 Z" opacity=".3"/>
    <path fill-rule="nonzero" d="M5.45804665,10.0180045 L4.65680721,15.822318 C4.07967682,16.0078344 3.24147318,16.058111 2.63911944,16 C2.03676569,15.941889 0.935026422,15.4400801 0.501593379,14.8457836 L2.81480544,7.80243301 C1.77654324,4.95495725 1.06237099,3.09757468 0.672288698,2.23028527 C0.648540718,2.17748521 0.237948051,2.36659642 0.214863491,2.31527136 C0.198880176,2.27973486 -0.0090748638,1.72853892 0.0196499761,1.46737992 C0.0324121687,1.35134928 0.334044783,1.47825073 0.305808589,1.41547179 C0.242217786,1.27408719 0.146831582,1.06201029 0.0196499761,0.779241088 C0.112108363,0.578535437 0.344711016,0.407370506 0.717457935,0.265746297 C1.09020485,0.124122087 1.58861163,0.0889015563 2.21267825,0.160084704 C2.42829795,0.60830675 2.59001272,0.944473285 2.69782257,1.16858431 C2.72620949,1.22759398 2.8916853,1.16561989 2.92181639,1.22825525 C2.94312594,1.27255273 3.04288027,1.39126215 3.031776,1.46737992 C3.02017039,1.54693424 2.89768006,1.58404049 2.92181639,1.63421417 C3.22286303,2.26001851 3.84121106,3.54541695 4.77686049,5.49040949 L4.72138963,5.53934035 L4.80938642,5.55802317 L4.91321072,5.77384917 L5.09027627,5.61765958 L5.17827306,5.6363424 L5.14574713,5.56872872 C6.94659351,4.03281817 7.9984179,3.12318172 8.30122031,2.83981938 C8.33237844,2.81066161 8.1607555,2.65620738 8.1869173,2.63201137 C8.32334666,2.50583325 8.43973153,2.40025324 8.5360719,2.31527136 C8.57400858,2.28180741 8.68101165,2.45027057 8.71729006,2.41826936 C8.92469308,2.23531908 9.2357976,1.96089367 9.65060364,1.59499311 C10.3245824,1.71640975 11.009555,2.15766535 11.7055215,2.91875991 C11.425667,3.19709197 11.1927426,3.41795393 11.0067485,3.58134578 C10.900208,3.67493931 10.7883174,3.77309239 10.6710768,3.87580502 L10.8216846,3.98608073 L10.3070236,4.59153933 L10.0854074,4.38797553 C9.72548765,4.70222916 9.32689957,5.04943756 8.88964319,5.42960073 C8.56369792,6.31411786 8.80325919,6.93975177 9.608327,7.30650245 C10.8903904,7.89054967 12.3086015,8.74051243 11.7755169,9.57161936 C11.4201272,10.1256907 11.1012963,10.5321385 10.8190242,10.790963 L10.8190242,11.2171876 C10.4208335,11.7356653 9.97793772,11.9955258 9.49033673,11.9967691 C9.00273575,11.9980123 8.5394876,11.8646862 8.10059229,11.5967907 C8.10059229,11.4406948 8.10059229,11.3141604 8.10059229,11.2171876 C8.10059229,11.0951144 6.21288789,10.603872 5.45804665,10.0180045 Z M5.60859524,8.92740517 C6.82528587,9.90998918 7.78959404,10.4088079 8.50151976,10.4238614 C8.61024285,10.2351189 8.73477335,10.0956456 8.87511127,10.0054416 C9.08561814,9.87013546 9.30483794,10.4608133 9.70862538,10.4027263 C9.977817,10.3640016 10.3717387,10.0350722 10.8903904,9.4159379 L10.8903904,10.2109218 C11.1956309,9.8209123 11.3462558,9.51346329 11.3422652,9.28857472 C11.3362792,8.95124187 10.4033313,8.42838983 9.71394625,8.18471449 C9.03969807,7.94638957 7.77359965,7.62039079 8.07771167,6.13482706 C7.37157852,6.74761557 6.5827139,7.43091138 5.7111178,8.18471449 L5.60859524,8.92740517 Z M8.99177132,10.5037051 C8.69371398,10.8082532 8.53029679,11.106424 8.50151976,11.3982174 C8.47274273,11.6900108 8.9383631,11.7578365 9.89838087,11.6016946 C10.319572,11.4194924 10.5454207,11.2501012 10.575927,11.093521 C10.6064333,10.9369407 10.6064333,10.7137208 10.575927,10.4238614 C10.2291837,10.6986638 9.93057212,10.8102102 9.68009222,10.7585006 C9.42961232,10.7067909 9.20017202,10.6218591 8.99177132,10.5037051 Z"/>
  </g>
</svg>
