<svg xmlns="http://www.w3.org/2000/svg" width="16" height="16" viewBox="0 0 16 16">
  <path fill="#585E6F" fill-rule="evenodd" d="M7.01797474,6.93455147 C7.59795606,6.6909929 7.92529781,6.37947575 8,6 C8.06446525,6.2780793 8.40379016,6.61345947 9.01797474,7.00614052 L9.00199456,15.0019986 C9.00089235,15.5535019 8.55350099,16 8.00199656,16 L8,16 C7.44880922,16 7.00198081,15.5531716 7.00198081,15.0019808 C7.00198081,15.0013212 7.00198146,15.0006616 7.00198277,15.000002 L7.01797474,6.93455147 Z M2.89628668,3.89906529 C4.62909625,3.4411061 5.9314842,0.984082242 8.01705438,0.984082242 C10.1026246,0.984082242 11.8507896,3.43795385 13.1683226,3.98847469 C14.1028409,4.35462919 14.1601876,4.05964773 14.3733348,3.43351297 C14.35282,2.86952716 14.2250111,2.54514633 13.9899082,2.46037049 C13.7548052,2.37559465 13.2199339,3.68897829 12.8864067,2.56596097 C13.0101585,1.2389903 13.635339,0.984082242 14.2840768,0.984082242 C15.2571835,0.984082242 16,1.46849729 16,3.08640011 C16,4.70430292 15.3940407,5.99230594 13.0037083,5.97938793 C11.0725166,5.96374606 9.53246302,4.97035089 8.03315151,4.96526612 C6.53384,4.96018135 5.06258258,5.96342572 3.09184056,5.97938793 C0.701508131,5.99230594 0,5.05900891 0,3.4411061 C0,1.82320328 0.851265156,0.99859275 1.82437182,0.99859275 C2.29473418,0.99859275 2.6695054,1.28530436 2.88272316,1.87192632 C2.96358169,2.09439085 3.02120638,2.35998705 3.05199969,2.66943478 C2.77925077,3.50840143 2.04139853,2.44891235 1.80629558,2.53368819 C1.57119263,2.61846403 1.53438205,3.03994214 1.65971136,3.53843217 C1.87285864,4.16456693 2.37354512,4.10388114 2.89628668,3.89906529 Z"/>
</svg>
