<svg xmlns="http://www.w3.org/2000/svg" width="16" height="16" viewBox="0 0 16 16">
  <g fill="none" fill-rule="evenodd" transform="translate(0 2)">
    <path fill="#AD1F00" d="M0.37461777,0.0119498891 L2.44932933,0.0119498891 L2.44932933,0.0119498891 C2.49949017,0.0119498891 2.54633112,0.0370228646 2.57414918,0.0787633196 L6.13334054,5.41926156 L6.13334054,5.41926156 C6.16690308,5.46962151 6.16691499,5.53521723 6.13337073,5.58558937 L2.57414434,10.9303445 L2.57414434,10.9303445 C2.54633074,10.9721111 2.49947443,10.9972032 2.44929429,10.9972032 L0.289307231,10.9972032 L0.289307231,10.9972032 C0.206464518,10.9972032 0.139307231,10.9300459 0.139307231,10.8472032 C0.139307231,10.8169509 0.148454691,10.7874055 0.165548792,10.7624456 L3.71056839,5.58620002 L3.71056839,5.58620002 C3.74522481,5.53559659 3.74558257,5.46899201 3.71147176,5.41801921 L0.249955965,0.245373112 L0.249955965,0.245373112 C0.203882591,0.176524298 0.222345733,0.0833614571 0.291194547,0.0372880832 C0.31588019,0.0207685419 0.344914636,0.0119498891 0.37461777,0.0119498891 Z"/>
    <path fill="#FF6C00" d="M4.43582133,0.0148142468 L6.4845765,0.0120571252 L6.4845765,0.0120571252 C6.53440253,0.0119900716 6.58100975,0.0366689654 6.60895841,0.0779183307 L13.848719,10.7630646 L13.848719,10.7630646 C13.8951875,10.8316473 13.8772604,10.9249148 13.8086776,10.9713833 C13.7838441,10.9882093 13.754536,10.9972032 13.724539,10.9972032 L11.5346779,10.9972032 L11.5346779,10.9972032 C11.4842039,10.9972032 11.4371141,10.9718183 11.4093702,10.9296532 L9.16078007,7.51224103 L9.16078007,7.51224103 C9.11524422,7.44303554 9.02222797,7.4238475 8.95302248,7.46938336 C8.93641262,7.48031232 8.92214128,7.49443443 8.91103835,7.5109285 L6.60877913,10.9310693 L6.60877913,10.9310693 C6.58094408,10.9724199 6.53438605,10.997242 6.48453971,10.9973067 L4.35141316,11.0000751 L4.35141316,11.0000751 C4.26857052,11.0001826 4.20132613,10.9331125 4.20121861,10.8502699 C4.20117927,10.8199512 4.21032844,10.7903323 4.22746005,10.7653176 L7.77222643,5.58944174 L7.77222643,5.58944174 C7.80688285,5.53883831 7.80724061,5.47223374 7.7731298,5.42126093 L4.31136138,0.248237334 L4.31136138,0.248237334 C4.26528801,0.17938852 4.28375115,0.0862256791 4.35259997,0.0401523051 C4.37722846,0.0236710097 4.40618699,0.0148541274 4.43582133,0.0148142468 Z"/>
    <polygon fill="#FFC509" points="10.231 3.079 16 3.079 16 4.955 11.393 4.955"/>
    <polygon fill="#FFC509" points="12.05 5.979 16 5.979 16 7.915 13.33 7.915"/>
  </g>
</svg>
