<svg xmlns="http://www.w3.org/2000/svg" width="16" height="16" viewBox="0 0 16 16">
  <g fill="none" transform="translate(1)">
    <path fill="#6A48BC" d="M11.4576719,14.9624151 L1.53653906,14.9624151 C0.687832031,14.9624151 0,14.3236003 0,13.5355165 L0,1.42694578 C0,0.638861965 0.687882812,0 1.53648828,0 L11.4576211,0 C12.3061758,0 12.9942617,0.638861965 12.9942617,1.42694578 L12.9942617,13.5355165 C12.9942617,14.3236003 12.3061758,14.9624151 11.4576211,14.9624151 L11.4576719,14.9624151 Z"/>
    <path fill="#EDF2F7" d="M8.14328125,6.97861635 C8.14328125,6.97861635 8.51937209,5.36283743 2.97720803,7.50039718 C2.96705178,7.52751668 3.01767494,2.1211102 3.01767494,2.1211102 L4.94349341,2.10961313 L4.93293175,5.4989935 C4.93293175,5.4989935 10.0072559,3.49727122 10.0072559,6.97646619 L10.0072559,12.8800832 L8.14333203,12.903617 L8.14328125,6.97861635 Z M7.16535611,3.92939131 C7.85674283,3.09185672 8.58223354,2.12105989 8.58223354,2.12105989 L10.5682882,2.12105989 C10.5682882,2.12105989 10.1286452,2.59203282 9.08615689,3.92939131 L7.16535611,3.92939131 Z M3.0714859,13.1094309 L3.03939434,9.03166367 L5.03777127,10.9888208 L3.0714859,13.1094309 Z"/>
  </g>
</svg>
