<svg xmlns="http://www.w3.org/2000/svg" width="16" height="16" viewBox="0 0 16 16">
  <g fill="none">
    <polygon fill="#242539" points=".583 1.615 13.4 1.615 13.4 14.383 .583 14.383"/>
    <path fill="#F98E38" d="M1.15878108,2.15788352 L12.7900934,2.15788352 L12.7900934,13.8259247 L1.15878108,13.8259247 L1.15878108,2.15788352 Z M0.5,15 L13.5,15 L13.5,15 C13.7761424,15 14,14.7761424 14,14.5 L14,1.5 L14,1.5 C14,1.22385763 13.7761424,1 13.5,1 L0.5,1 L0.5,1 C0.223857625,1 -8.93288388e-17,1.22385763 -5.55111512e-17,1.5 L0,14.5 L-5.55111512e-17,14.5 C9.59361329e-16,14.7761424 0.223857625,15 0.5,15 Z M9.0364305,6.13377989 C9.0364305,6.08264587 9.05515533,6.05705309 9.111355,6.05705309 L10.0914137,6.05705309 C10.1413214,6.05705309 10.1663131,6.07622835 10.1663131,6.13377989 L10.1663131,11.1775686 C10.1663131,11.2286768 10.1538298,11.2542696 10.0914137,11.2542696 L9.12383822,11.2542696 C9.06142211,11.2542696 9.04267211,11.2223108 9.04267211,11.1711768 L9.04267211,6.13377989 L9.0364305,6.13377989 Z M8.96777278,4.68264587 C8.96777278,4.27352216 9.24867043,4.03060979 9.60451775,4.03060979 C9.98530634,4.03060979 10.2412375,4.29269742 10.2412375,4.68264587 C10.2412375,5.10455309 9.97282312,5.33468195 9.59203453,5.33468195 C9.2299456,5.33470773 8.96777278,5.10455309 8.96777278,4.68264587 Z M5.41581808,5.23241391 L5.40333486,5.23241391 C5.27223587,5.98035206 4.94140533,7.24607371 4.67923251,8.23695 L6.15867043,8.23695 C5.98390533,7.52736237 5.57190869,5.98035206 5.41581808,5.23241391 Z M3.93011339,11.1903521 C3.91763017,11.2414603 3.89890533,11.2542438 3.83648923,11.2542438 L2.91884661,11.2542438 C2.8564305,11.2542438 2.84392211,11.2350686 2.8564305,11.1583675 L4.62927446,4.80408917 C4.66048251,4.68903762 4.67920735,4.58674381 4.69169057,4.27352216 C4.69169057,4.22877989 4.7104154,4.20960463 4.74162345,4.20960463 L6.05253788,4.20960463 C6.09622916,4.20960463 6.11495399,4.22238814 6.12746238,4.27352216 L8.11254627,11.171151 C8.12502949,11.2222593 8.11254627,11.2542438 8.06261339,11.2542438 L7.026355,11.2542438 C6.97642211,11.2542438 6.94518889,11.2414603 6.93273084,11.1967438 L6.42084325,9.27256855 L4.42327614,9.27256855 L3.93011339,11.1903521 Z"/>
  </g>
</svg>
