<svg xmlns="http://www.w3.org/2000/svg" width="16" height="16" viewBox="0 0 16 16">
  <defs>
    <linearGradient id="a" x1="50%" x2="50%" y1="0%" y2="100%">
      <stop offset="0%" stop-color="#585E6F"/>
      <stop offset="100%" stop-color="#585E6F" stop-opacity=".79"/>
    </linearGradient>
    <linearGradient id="b" x1="50%" x2="50%" y1="0%" y2="100%">
      <stop offset="0%" stop-color="#777D8C" stop-opacity=".7"/>
      <stop offset="100%" stop-color="#808593"/>
    </linearGradient>
  </defs>
  <g fill="none" fill-rule="evenodd">
    <rect width="15" height="14" x=".5" y=".5" stroke="url(#a)" rx="1"/>
    <polygon fill="url(#b)" points="1 1 15 1 15 5 11.959 5.084 11.959 6.095 10.064 6.095 10.064 9.005 8.982 9.005 8.982 5.084 5.055 5.084 5.055 7 4.035 7 4 6 1 6.095"/>
    <g opacity=".8">
      <path fill="#525968" d="M0.5,2.22044605e-16 L2.5,2.22044605e-16 L2.5,0 C2.77614237,-5.07265313e-17 3,0.223857625 3,0.5 L3,1.02505967 L2.02495059,1.02505967 L2.02495059,8 L0,8 L0,0.5 L0,0.5 C-3.38176876e-17,0.223857625 0.223857625,5.07265313e-17 0.5,0 Z" opacity=".9" transform="translate(1 6)"/>
    </g>
    <g opacity=".9">
      <path fill="#525968" d="M8.5,9 L9.5,9 L9.5,9 C9.77614237,9 10,9.22385763 10,9.5 L10,14 L8,14 L8,9.5 L8,9.5 C8,9.22385763 8.22385763,9 8.5,9 Z"/>
      <path fill="#525968" d="M5.5 5L8.5 5 8.5 5C8.77614237 5 9 5.22385763 9 5.5L9 9.03247172 8 9.03247172 8 7.06358427 5 7.06358427 5 5.5 5 5.5C5 5.22385763 5.22385763 5 5.5 5zM12.4823921 5L14.5 5 14.5 5C14.7761424 5 15 5.22385763 15 5.5L15 14 13 14 12.9233421 6.01452187 11.9636207 6.01452187 11.9827132 5.48208224 11.9827132 5.48208224C11.992359 5.21308588 12.2132228 5 12.4823921 5z"/>
      <rect width="1" height="1" x="6.207" y="2.207" fill="#FFF6E9" opacity=".45" transform="rotate(-45 6.707 2.707)"/>
      <rect width="1" height="1" x="4.207" y="4.207" fill="#FFF6E9" opacity=".2" transform="rotate(-45 4.707 4.707)"/>
      <rect width="1" height="1" x="11" y="1" fill="#FFF6E9" opacity=".3" transform="rotate(-45 11.5 1.5)"/>
      <rect width="1" height="1" x="13" y="2" fill="#FFF6E9" opacity=".4" transform="rotate(-45 13.5 2.5)"/>
      <rect width="1" height="1" x="9" y="3" fill="#FFF6E9" opacity=".6" transform="rotate(-45 9.5 3.5)"/>
      <rect width="1" height="1" x="8" y="1" fill="#FFF6E9" opacity=".1" transform="rotate(-45 8.5 1.5)"/>
      <rect width="1" height="1" x="3" y="1" fill="#FFF6E9" opacity=".5" transform="rotate(-45 3.5 1.5)"/>
      <rect width="1" height="1" x="1" y="3" fill="#FFF6E9" opacity=".3" transform="rotate(-45 1.5 3.5)"/>
    </g>
    <g transform="translate(3 7)">
      <path fill="#626875" d="M0.5,0 L4.5,0 L4.5,0 C4.77614237,-5.07265313e-17 5,0.223857625 5,0.5 L5,7 L0,7 L0,0.5 L0,0.5 C-3.38176876e-17,0.223857625 0.223857625,5.07265313e-17 0.5,0 Z" opacity=".2"/>
      <path fill="#585E6F" d="M1,1 L2,1 L2,2 L1,2 L1,1 Z M3,1 L4,1 L4,2 L3,2 L3,1 Z M1,3 L2,3 L2,4 L1,4 L1,3 Z M3,3 L4,3 L4,4 L3,4 L3,3 Z M1,5 L2,5 L2,6 L1,6 L1,5 Z M3,5 L4,5 L4,6 L3,6 L3,5 Z"/>
    </g>
    <g transform="translate(10 6)">
      <path fill="#626875" d="M0.5,0 L2.5,0 L2.5,0 C2.77614237,-5.07265313e-17 3,0.223857625 3,0.5 L3,8 L0,8 L0,0.5 L0,0.5 C-3.38176876e-17,0.223857625 0.223857625,5.07265313e-17 0.5,0 Z" opacity=".2"/>
      <path fill="#585E6F" d="M1,1 L2,1 L2,2 L1,2 L1,1 Z M1,3 L2,3 L2,4 L1,4 L1,3 Z M1,5 L2,5 L2,6 L1,6 L1,5 Z"/>
    </g>
  </g>
</svg>
