<svg xmlns="http://www.w3.org/2000/svg" xmlns:xlink="http://www.w3.org/1999/xlink" width="16" height="16" viewBox="0 0 16 16">
  <defs>
    <linearGradient id="a" x1="50%" x2="50%" y1="0%" y2="100%">
      <stop offset="0%" stop-color="#777D8C" stop-opacity=".7"/>
      <stop offset="100%" stop-color="#808593"/>
    </linearGradient>
    <circle id="b" cx="4" cy="4" r="1"/>
  </defs>
  <g fill="none" fill-rule="evenodd">
    <path stroke="#585E6F" d="M2,1.5 C1.72385763,1.5 1.5,1.72385763 1.5,2 L1.5,14 C1.5,14.2761424 1.72385763,14.5 2,14.5 L14,14.5 C14.2761424,14.5 14.5,14.2761424 14.5,14 L14.5,2 C14.5,1.72385763 14.2761424,1.5 14,1.5 L2,1.5 Z"/>
    <path fill="url(#a)" d="M2.5,2 L13.5,2 L13.5,2 C13.7761424,2 14,2.22385763 14,2.5 L14,10.6933992 L10.5697065,7.32466207 L8,10.9497373 L5.86809297,9.33246574 L2,12.3719996 L2,2.5 L2,2.5 C2,2.22385763 2.22385763,2 2.5,2 Z"/>
    <polygon fill="#585E6F" points="9 7 14 14 6 14 6 9" opacity=".4" transform="matrix(-1 0 0 1 20 0)"/>
    <use fill="#B4B6BB" xlink:href="#b"/>
    <circle cx="4" cy="4" r="1.5" stroke="#A5A8B0" stroke-opacity=".385"/>
    <polygon fill="#585E6F" points="6 9 12 14 2 14 2 12" opacity=".8"/>
  </g>
</svg>
