<svg xmlns="http://www.w3.org/2000/svg" width="16" height="16" viewBox="0 0 16 16">
  <path fill="#585E6F" fill-rule="evenodd" d="M12.8277024,2.46354162 C13.1337272,3.31846739 13.220042,4.24972582 13.369131,5.14281791 C13.4162118,5.37944915 13.6986963,5.93667756 13.6437687,6.19620859 C13.5103733,6.89083578 13.6192623,8.03467746 13.7997385,8.93540283 C14.0116019,9.96589371 13.3926714,10.8830338 12.0744103,10.6845689 C11.8468534,10.6540358 11.4661064,10.8611264 11.2385494,10.9450924 C11.0816135,11.0061585 10.6306006,11.348663 10.5285923,11.5013283 C10.2539546,11.9135247 10.238261,12.7913502 9.71252597,12.9134825 C8.97492753,12.8905827 8.22948229,12.9516488 7.52327102,12.7150176 C4.36101388,11.6539936 5.96175943,12.6234184 5.96175943,12.6234184 C5.05937836,12.7302841 4.15699729,13.0050817 3.23892263,12.9211158 C2.51701778,12.8600496 2.46209023,12.8753162 2.21099289,12.1119896 C1.95989555,11.348663 1.6224835,10.631136 1.30076503,9.8983425 C1.15952277,9.57011207 0.743642802,8.62358711 1.06536127,8.29535668 C1.4263137,7.92132666 1.25368428,8.56252099 1.53616879,8.60832058 C1.47339445,8.60068732 1.92850838,7.24959927 2.0069763,7.09693396 C2.28946081,6.48627269 2.62687286,5.89087796 3.16045471,5.45578181 C4.26685237,4.56268971 5.57726663,4.4100244 6.958302,4.57032298 C7.46049669,4.62375584 7.97053816,4.66955544 8.37072455,4.95961954 C8.87291923,5.33364956 9.23387166,5.73821265 9.9714701,5.46341508 C10.6855282,5.20388404 9.79385324,4.57036747 9.47213477,4.13527132 C9.02486763,3.51697679 9.04554865,3.06656962 8.70028981,2.3795757 C8.54335397,2.07424507 7.0518926,0.493340265 7.42069182,0.24907576 C7.59332124,0.134576773 8.83368527,0.188828419 9.01416149,0.318593937 C9.3908075,0.593391506 9.94008293,1.68494851 10.1284059,2.14294446 C10.5521327,3.15053554 10.9130851,4.50162359 11.9645552,5.11991812 C12.5922986,5.47104834 12.5783354,4.83284119 12.4527868,4.37484524 C12.2723105,3.71075112 11.8400938,2.97535415 11.7302387,2.30362676 C11.6517708,1.86853061 11.63499,1.55518299 12.199959,1.64678218 C12.6315326,1.71548158 12.6943069,2.10477813 12.8277024,2.46354162 Z M12.6353412,8.47895319 C12.7373495,8.4102538 12.7295027,8.27285501 12.643188,8.18888909 C12.4156311,7.96752438 12.1409933,7.89119173 11.850662,7.83775886 C11.5054032,7.76142621 11.1287572,7.66982702 10.7756516,7.71562661 C10.6187157,7.73852641 10.0615935,7.86065866 10.3911588,8.03622378 C10.3990055,8.04385704 10.090902,8.30800688 10.0987488,8.30800688 C10.3576929,8.76600283 11.0790872,8.88942407 11.5812819,8.94285693 C11.87946,8.97338999 12.3842439,8.63925177 12.6353412,8.47895319 Z" transform="translate(0 1)"/>
</svg>
