<svg xmlns="http://www.w3.org/2000/svg" width="16" height="16" viewBox="0 0 16 16">
  <path fill="#E0BE24" fill-rule="evenodd" d="M1,1 L12.9999995,1 L12.9999995,1 C13.5522843,1 13.9999995,1.44771525 13.9999995,2 L13.9999995,14 L13.9999995,14 C13.9999995,14.5522847 13.5522843,15 12.9999995,15 L1,15 C0.44771525,15 -4.33869274e-17,14.5522847 -1.11022302e-16,14 L-1.11022302e-16,2 L-1.11022302e-16,2 C-1.78657678e-16,1.44771525 0.44771525,1 1,1 L1,1 Z M5.80367566,7.05326635 L5.80367566,12.2182605 C5.80367566,12.2182605 6.05973065,12.8384275 5.1229866,12.8384275 C4.49849056,12.8384275 4.1637814,12.5929396 4.11885911,12.1019636 L3.16076452,12.7018861 C3.4657716,13.5519606 4.14378605,13.9899894 5.19480787,14.0159726 C6.2458297,14.0419558 6.8845179,13.4427184 7.11087248,12.2182605 L7.11087248,7.05326635 L5.80367566,7.05326635 Z M11.8925583,8.96798912 L12.838529,8.1446057 C12.3422343,7.38153523 11.5892878,7 10.5796895,7 C9.0652921,7 8.56419679,8.18290342 8.56419679,8.90634983 C8.56419679,9.62979624 8.92295429,10.3943084 9.97619915,10.9713787 C11.029444,11.5484491 11.5077407,11.611292 11.4957829,12.0955406 C11.4937896,12.5422901 11.4097642,12.855043 10.5796895,12.8872794 C10.0263064,12.9087704 9.48491069,12.5843108 8.95550231,11.9139006 L7.80324734,12.7085442 C8.67397155,13.5695147 9.59945228,14 10.5796895,14 C12.0500454,14 13,13.1856542 13,12.0045249 C13,11.2171053 12.2355697,10.5055596 10.7067092,9.86988777 C10.0544118,9.59818347 9.72826304,9.2154974 9.72826304,8.72182957 C9.87687859,8.25136399 10.1037611,8.0161312 10.4089106,8.0161312 C10.9855779,7.94497263 11.4801271,8.26225861 11.8925583,8.96798912 Z"/>
</svg>
