<svg xmlns="http://www.w3.org/2000/svg" width="16" height="16" viewBox="0 0 16 16">
  <path fill="#45C0E7" fill-rule="evenodd" d="M1,1 L12.9999995,1 L12.9999995,1 C13.5522843,1 13.9999995,1.44771525 13.9999995,2 L13.9999995,14 L13.9999995,14 C13.9999995,14.5522847 13.5522843,15 12.9999995,15 L1,15 C0.44771525,15 -4.33869274e-17,14.5522847 -1.11022302e-16,14 L-1.11022302e-16,2 L-1.11022302e-16,2 C-1.78657678e-16,1.44771525 0.44771525,1 1,1 L1,1 Z M4.04767025,8.92653785 L4.04767025,12.702085 C4.04767025,12.702085 4.23048064,13.1554195 3.56169247,13.1554195 C3.11583368,13.1554195 2.87686816,12.9759708 2.84479591,12.6170734 L2.16076452,13.0556094 C2.37852424,13.6770034 2.86259249,13.997197 3.61296925,14.0161904 C4.36334601,14.0351839 4.81933729,13.5971487 4.98094308,12.702085 L4.98094308,8.92653785 L4.04767025,8.92653785 Z M8.39482641,10.3261766 L9.07020197,9.72429349 C8.71587251,9.16649836 8.17830657,8.8876008 7.45750413,8.8876008 C6.37630046,8.8876008 6.0185436,9.75228865 6.0185436,10.2811191 C6.0185436,10.8099495 6.27467842,11.3687985 7.02664232,11.7906298 C7.77860621,12.2124611 8.120086,12.2583985 8.11154874,12.6123783 C8.11012562,12.9389467 8.05013571,13.1675652 7.45750413,13.1911296 C7.0624164,13.2068393 6.67588705,12.9696633 6.29791608,12.4796017 L5.47526393,13.0604764 C6.09691726,13.6898353 6.75766399,14.0045147 7.45750413,14.0045147 C8.50726433,14.0045147 9.18548416,13.4092379 9.18548416,12.5458469 C9.18548416,11.9702529 8.63971937,11.4501218 7.54818981,10.9854535 C7.0824822,10.786841 6.8496284,10.5071021 6.8496284,10.146237 C6.95573243,9.80233248 7.11771516,9.63038021 7.33557658,9.63038021 C7.74728804,9.57836417 8.10037131,9.81029631 8.39482641,10.3261766 Z M11.3080625,12.2737702 L12.2924375,13.9305085 L13.5229062,13.9305085 L11.9540586,11.5003327 L13.5053281,9.12289128 L12.3056211,9.12289128 L11.3564023,10.775235 L11.2816953,10.775235 L10.3236875,9.12289128 L9.06245699,9.12289128 L10.6313046,11.544278 L9.07564059,13.9305085 L10.2489804,13.9305085 L11.2333554,12.2737702 L11.3080625,12.2737702 Z"/>
</svg>
