<svg id="logo" xmlns="http://www.w3.org/2000/svg" xmlns:xlink="http://www.w3.org/1999/xlink" viewBox="0 0 16 16"><defs><style>.cls-1{fill-rule:evenodd;fill:url(#linear-gradient);}</style><linearGradient id="linear-gradient" x1="135.94" y1="-415.05" x2="135.94" y2="-398.26" gradientTransform="matrix(0.96, 0, 0, -0.96, -122.37, -381.95)" gradientUnits="userSpaceOnUse"><stop offset="0" stop-color="#585e6f"/><stop offset="1" stop-color="#585e6f"/></linearGradient></defs><title>mint-icon</title><path class="cls-1" d="M8,0C7.79.79,6,1.3,5.87,2.31l-.21-.6c-1.06,1.33-1,2-1,2l-.09-.48C3.84,4.51,4,5.13,4.09,5.32l0,.07a.22.22,0,0,1,0-.07L3.88,5c-.8,2.19-.1,2.86-.1,2.86l-.43-.49a3.57,3.57,0,0,0,.31,2.37l-.32-.29a2.47,2.47,0,0,0,.72,1.82l-.5-.34c1,4.14,2.87,4.25,3.12,4.25l-.76,0A2.86,2.86,0,0,0,7.51,16C7.75,14.75,8,11.72,8,3.79c0,7.93.25,11,.49,12.21a2.86,2.86,0,0,0,1.59-.83l-.76,0c.25,0,2.16-.11,3.12-4.25l-.5.34a2.47,2.47,0,0,0,.72-1.82l-.32.29a3.57,3.57,0,0,0,.31-2.37l-.43.49s.7-.67-.1-2.86l-.21.35a.22.22,0,0,1,0,.07l0-.07c.09-.19.25-.82-.52-2.09l-.09.48s.1-.67-1-2l-.21.6C10,1.3,8.21.79,8,0Z"/></svg>