<svg xmlns="http://www.w3.org/2000/svg" width="16" height="16" viewBox="0 0 16 16">
  <path fill="#585E6F" fill-rule="evenodd" d="M1.46861953,4.62990658 L6.96543319,1.15475291 L6.96543319,1.15475291 C7.29165007,0.948514559 7.70742917,0.9484081 8.03375162,1.15447937 L13.5369378,4.62971855 L13.5369378,4.62971855 C13.827172,4.81300023 14.0031174,5.13233482 14.002995,5.47559573 L14.0000016,13.8708297 L14.0000016,13.8708297 C13.9998539,14.2850432 13.6639478,14.6207099 13.2497342,14.6205622 C13.1034082,14.6205101 12.9602934,14.5776552 12.8380204,14.4972771 L10.3741638,12.8776208 L10.3741638,12.8776208 C10.1631833,12.7389294 10.036145,12.5033898 10.036145,12.250906 L10.036145,7.74233035 L10.036145,7.74233035 C10.036145,7.40491351 9.86598845,7.09024906 9.5836336,6.90551719 L8.05013851,5.90222149 L8.05013851,5.90222149 C7.71597693,5.68359485 7.28378195,5.68472995 6.95077337,5.90510883 L5.43984213,6.90501498 L5.43984213,6.90501498 C5.16001464,7.0901996 4.99171869,7.40338637 4.99171869,7.73894079 L4.99171869,12.2492952 L4.99171869,12.2492952 C4.99171869,12.5026633 4.86379506,12.7389036 4.6516141,12.8773762 L2.1598954,14.5035104 L2.1598954,14.5035104 C1.81301584,14.7298894 1.34829797,14.6322044 1.12191899,14.2853248 C1.04231223,14.1633437 0.999948112,14.0208213 1.00000005,13.875162 L1.00299527,5.47479711 L1.00299527,5.47479711 C1.0031175,5.13197164 1.17884728,4.81310419 1.46861953,4.62990658 Z"/>
</svg>
