<svg xmlns="http://www.w3.org/2000/svg" width="16" height="16" viewBox="0 0 16 16">
  <g fill="#585E6F">
    <polygon points=".583 1.615 13.4 1.615 13.4 14.383 .583 14.383" opacity=".1"/>
    <path d="M1.15878108,2.15788352 L12.7900934,2.15788352 L12.7900934,13.8259247 L1.15878108,13.8259247 L1.15878108,2.15788352 Z M0.5,15 L13.5,15 L13.5,15 C13.7761424,15 14,14.7761424 14,14.5 L14,1.5 L14,1.5 C14,1.22385763 13.7761424,1 13.5,1 L0.5,1 L0.5,1 C0.223857625,1 -8.93288388e-17,1.22385763 -5.55111512e-17,1.5 L0,14.5 L-5.55111512e-17,14.5 C9.59361329e-16,14.7761424 0.223857625,15 0.5,15 Z M8.82707499,7.27769674 C8.82707499,7.49248368 8.93193405,7.64164863 9.54953137,7.9698067 C10.4642528,8.42326718 10.7497495,8.8588067 10.7497495,9.49722595 C10.7497495,10.4518479 10.0389441,10.9649648 9.07759512,10.9649648 C8.57070586,10.9649648 8.13372264,10.8575593 7.88320251,10.7084184 C7.84242398,10.6905215 7.83659848,10.6606933 7.83659848,10.6129442 L7.83659848,9.73587543 C7.83659848,9.67621907 7.865726,9.65829811 7.90652801,9.68815034 C8.2735817,9.93278952 8.69306492,10.040171 9.07759512,10.040171 C9.53788036,10.040171 9.73014546,9.84328093 9.73014546,9.57477921 C9.73014546,9.35999227 9.59613539,9.16906787 9.00766559,8.8588067 C8.18032667,8.45309536 7.83659848,8.04141839 7.83659848,7.35527406 C7.83659848,6.58558677 8.42506828,5.94719158 9.44464882,5.94719158 C9.94571257,5.94719158 10.2952898,6.0247689 10.4875549,6.11425344 C10.5341589,6.14408162 10.5458099,6.1918067 10.5458099,6.23356615 L10.5458099,7.05095447 C10.5458099,7.09867955 10.5166824,7.12853179 10.4584038,7.11061083 C10.2020582,6.94359708 9.82335351,6.84215722 9.44464882,6.84215722 C8.98436358,6.84215722 8.82707499,7.0808067 8.82707499,7.27769674 Z M4.30421692,7.21622059 C4.43822698,7.22815186 4.54310953,7.22815186 4.77615316,7.22815186 C5.4578545,7.22815186 6.09873034,6.98353674 6.09873034,6.03488038 C6.09873034,5.27714842 5.6384451,4.89527557 4.8635592,4.89527557 C4.63051557,4.89527557 4.40909947,4.90720684 4.30421692,4.91317248 L4.30421692,7.21622059 Z M3.30104744,4.14301773 C3.67395012,4.12512082 4.22744341,4.11318955 4.80423872,4.11318955 C6.41811455,4.11318955 7.04733939,5.02008645 7.04733939,6.17758817 C7.04733939,7.69305209 5.97530583,8.3434026 4.65857764,8.3434026 C4.43718502,8.3434026 4.36145348,8.33147133 4.20411791,8.33147133 L4.21063531,10.8698996 C4.21063531,10.9176247 4.1931588,10.9414872 4.14072927,10.9414872 L3.24930981,10.9414872 C3.20270578,10.9414872 3.17938028,10.9235903 3.17938028,10.8698996 L3.17286288,4.21462941 C3.17288637,4.17286996 3.2544669,4.14301773 3.30104744,4.14301773 Z"/>
  </g>
</svg>
