<svg xmlns="http://www.w3.org/2000/svg" width="16" height="16" viewBox="0 0 16 16">
  <path fill="#6181B6" fill-rule="evenodd" d="M8,14 C3.581722,14 0,11.3137085 0,8 C0,4.6862915 3.581722,2 8,2 C12.418278,2 16,4.6862915 16,8 C16,11.3137085 12.418278,14 8,14 Z M2.98597503,11 L3.21984521,9.7398374 L3.80672741,9.7398374 C4.17937939,9.7398374 4.4859167,9.69892683 4.72658777,9.61684553 C4.96725884,9.53495935 5.30089449,9.39746341 5.4977479,9.2044878 C5.662988,9.04549593 5.68172585,8.87004878 5.78411198,8.67821138 C5.8863739,8.48653659 6.02987597,8.03723778 6.07282411,7.80579062 C6.17713561,7.24390444 6.09841288,6.80627843 5.83687329,6.49278249 C5.57533371,6.17925404 5.15926778,6.13264362 4.58889286,6.13264362 L3.27998257,6.13264362 L3.27998257,6.13264362 C3.08862813,6.13264362 2.92407529,6.26816955 2.88739868,6.45597623 L2,11 L2.98597503,11 Z M4.33232556,6.91827742 C4.70693396,6.91827742 4.81382833,6.99066767 4.93863569,7.1355132 C5.06334988,7.2803262 5.09306888,7.52891157 5.02782373,7.88117173 C4.95962842,8.24803352 4.78347931,8.59973984 4.58889286,8.75661789 C4.39430642,8.91349593 4.24095478,8.99186992 3.84342827,8.99186992 L3.35862701,8.99186992 L3.77168962,6.91827742 L4.33232556,6.91827742 Z M8.27765183,4.78563389 L7.29944038,4.78563389 L6.35123141,10.0124013 L7.41438388,10.0124013 L7.95354678,6.78673371 L8.4388362,6.78673371 C8.68910306,6.78673371 8.85275939,6.83018087 8.92964991,6.91694509 C9.00657149,7.00370932 9.02281291,7.16644103 8.97852943,7.40501013 L8.55414334,10.0124013 L9.54788195,10.0124013 L9.99242231,7.29652233 C10.0756479,6.8478394 10.0132908,6.52325404 9.80513363,6.32292883 C9.59697645,6.12273371 9.21873469,6.02250607 8.6704394,6.02250607 L8.09546508,6.02250607 L8.27765183,4.78563389 Z M10.9799066,11 L11.2137767,9.7398374 L11.8716096,9.7398374 C12.2442616,9.7398374 12.5507989,9.69892683 12.7914699,9.61684553 C13.032141,9.53495935 13.2508567,9.39746341 13.4477411,9.2044878 C13.6129502,9.04549593 13.7466391,8.87004878 13.8490252,8.67821138 C13.9512871,8.48653659 14.0947892,8.03723778 14.1377063,7.80579062 C14.2420488,7.24390444 14.1633261,6.91641598 13.9017865,6.60292004 C13.6402469,6.28939159 13.224181,6.13264362 12.653775,6.13264362 L11.2738851,6.13264362 C11.0825297,6.13264362 10.9179764,6.26817083 10.8813008,6.45597864 L9.99393153,11 L10.9799066,11 Z M12.2544874,6.91827742 C12.6290647,6.91827742 12.8787105,6.99066767 13.0035489,7.1355132 C13.1282631,7.2803262 13.1579821,7.52891157 13.0927059,7.88117173 C13.0245416,8.24803352 12.8483925,8.59973984 12.653775,8.75661789 C12.4592197,8.91349593 12.1631166,8.99186992 11.7656212,8.99186992 L11.3525585,8.99186992 L11.7656212,6.91827742 L12.2544874,6.91827742 Z"/>
</svg>
