<svg xmlns="http://www.w3.org/2000/svg" width="16" height="16" viewBox="0 0 16 16">
  <g fill="#5A5F6F" fill-rule="evenodd" transform="translate(-1 1)">
    <path d="M4.21744047,3.30719108 C5.04969419,2.03267058 5.59087173,1.3265689 5.84097308,1.18888603 C6.2161251,0.982361732 6.9001744,0.986284825 9,0.96989044 C10.3998837,0.95896085 11.4337589,1.03195938 12.1016256,1.18888603 C13.6430746,2.52964476 14.5159731,3.93579283 14.7203211,5.40733024 C14.9246692,6.87886764 15.0107014,7.77002968 14.9784177,8.08081635 C14.8811338,8.82737331 14.7379127,9.29122135 14.5487545,9.47236046 C14.3595962,9.65349957 14.1359255,10.1082553 13.8777424,10.8366277 C13.7065436,11.6224747 13.2471067,12.1135053 12.4994317,12.3097198 C13.4699358,9.44684297 12.7411588,7.45256114 10.3131008,6.32687427 C9.95760327,5.84708195 9.53896213,5.60718579 9.05717737,5.60718579 C8.57539261,5.60718579 8.1898803,5.81589921 7.90064042,6.23332605 C5.27461791,7.52553838 4.55625326,9.58127901 5.7455465,12.400548 C4.77541908,12.1146465 4.2009789,11.5933398 4.02222597,10.8366277 C3.88634365,10.1568946 3.64593444,9.70213882 3.30099836,9.47236046 C3.02646167,8.76000097 2.90438725,8.25732212 2.9347751,7.96432391 C2.98035687,7.5248266 3.6808672,6.44051736 3.6808672,5.40331667 C3.6808672,4.71184955 3.85972496,4.01314102 4.21744047,3.30719108 Z M6.34970778,7.37037216 C6.89641089,6.72074143 7.60552173,6.75830574 7.60552173,6.00328355 C7.60552173,5.24826136 7.04327468,4.63619494 6.34970778,4.63619494 C5.65614089,4.63619494 5.09389383,5.24826136 5.09389383,6.00328355 C5.09389383,6.75830574 5.65614089,7.37037216 6.34970778,7.37037216 Z M11.4959026,7.21839439 C11.2010757,6.65892673 10.2400886,6.60632797 10.2400886,5.85130578 C10.2400886,5.09628359 10.8023357,4.48421718 11.4959026,4.48421718 C12.1894695,4.48421718 12.7517165,5.09628359 12.7517165,5.85130578 C12.7517165,6.60632797 12.1894695,7.21839439 11.4959026,7.21839439 Z"/>
    <path d="M0.472920697,0.713481476 C1.90178886,2.7005238 2.64834951,4.17033714 2.71260263,5.12292149 C2.8089823,6.55179802 2.81834579,8.22927982 3.08401629,8.250273 C3.26112996,8.26426846 3.70244225,7.6182801 4.40795315,6.31230792 C5.12328518,5.63703328 5.46792095,5.05974121 5.44186047,4.58043173 C5.40276973,3.8614675 2.95807761,0.701600476 0.472920697,0.713481476 Z" opacity=".6" transform="matrix(-1 0 0 1 6.442 .36)"/>
    <path d="M0.472920697,0.713481476 C1.90178886,2.7005238 2.64834951,4.17033714 2.71260263,5.12292149 C2.8089823,6.55179802 2.81834579,8.22927982 3.08401629,8.250273 C3.26112996,8.26426846 3.70244225,7.6182801 4.40795315,6.31230792 C5.12328518,5.63703328 5.46792095,5.05974121 5.44186047,4.58043173 C5.40276973,3.8614675 2.95807761,0.701600476 0.472920697,0.713481476 Z" opacity=".6" transform="translate(11.442 .36)"/>
    <path d="M12.4994317,12.3097198 C11.9605809,12.4308158 11.2855537,12.6102763 10.4743503,12.8481013 C10.2377756,12.9174592 9.7937566,12.9174592 9.14229315,12.8481013 C8.4529889,12.9617033 7.9573724,12.9617033 7.65544365,12.8481013 C7.12806136,12.6496713 6.49142897,12.5004868 5.7455465,12.400548 C4.55625326,9.58127901 5.27461791,7.52553838 7.90064042,6.23332605 C8.1898803,5.81589921 8.57539261,5.60718579 9.05717737,5.60718579 C9.53896213,5.60718579 9.95760327,5.84708195 10.3131008,6.32687427 C12.7411588,7.45256114 13.4699358,9.44684297 12.4994317,12.3097198 Z M7.63535471,10.9381709 C7.66959431,10.1402081 8.41997687,9.60330386 9.07967581,9.60419073 C9.73937475,9.6050776 10.3691955,10.0980613 10.4751293,10.9381709 L11.2013248,10.9223209 C11.0910217,10.0475607 10.3497624,9.11271931 9.38109448,9.03930671 C9.36641973,9.03819455 9.20292303,8.19648481 9.15561271,7.64602185 C9.15155389,7.5987968 10.2374801,7.17124228 9.92378014,7.23328625 C9.61008016,7.29533022 9.02131484,7.28325394 9.01717685,7.25114826 C9.0081772,7.18132221 8.99966278,7.14042024 8.99197843,7.14044248 C8.98436248,7.14046452 8.97755882,7.18053538 8.97142581,7.24903792 C8.96837782,7.28308245 8.55321504,7.31958008 8.12870473,7.24903792 C7.70419442,7.17849575 8.78642677,7.60257554 8.78443216,7.64602185 C8.75918742,8.19589873 8.59071904,9.0424894 8.574986,9.04382429 C7.61289124,9.12545447 6.99390482,10.0913907 6.95802685,10.9275361 L7.63535471,10.9381709 Z" opacity=".6"/>
  </g>
</svg>
