<svg xmlns="http://www.w3.org/2000/svg" width="16" height="16" viewBox="0 0 16 16">
  <g fill="#5B6071" fill-rule="evenodd" transform="translate(3)">
    <path d="M9.29941662,0.808192415 C9.62320467,0.977416953 9.85673246,1.16249947 10,1.36343997 L10,3.31164466 L10,1.55737705 C9.56546469,1.99532586 8.97454416,2.32698889 8.22723842,2.55236614 C7.54920317,2.75685236 5.5277331,3.06820134 3.84118894,3.30992238 C2.742699,3.15360116 1.78932363,3.02691415 1.44165815,2.97799282 C0.850770125,2.89484673 0.370217407,2.79604954 0,2.68160125 L0,0.819841385 L0,2.63968277 C0.158272788,2.51746487 0.635817503,2.41675874 1.43263415,2.33756439 C2.62785911,2.21877286 6.91200969,1.62306507 8.22723842,1.22835961 C8.65159805,1.10100758 9.00899078,0.960951844 9.29941662,0.808192415 Z M3.61070371,8.26085798 C2.61101285,8.11969532 1.76476152,8.00706448 1.44165815,7.96159938 C0.850770125,7.87845329 0.370217407,7.7796561 0,7.66520781 L0,5.80344794 L0,7.62328933 C0.158272788,7.50107143 0.635817503,7.4003653 1.43263415,7.32117095 C2.62785911,7.20237942 6.91200969,6.60667162 8.22723842,6.21196617 C8.65159805,6.08461413 9.00899078,5.9445584 9.29941662,5.79179897 C9.62320467,5.96102351 9.85673246,6.14610603 10,6.34704653 L10,8.26246434 L10,6.47540984 C9.56546469,6.91335865 8.97454416,7.24502168 8.22723842,7.47039893 C7.51800922,7.68429281 5.33888858,8.01510839 3.61070371,8.26085798 Z" opacity=".5" transform="translate(0 3.426)"/>
    <path d="M0,7.36791758 C0.367900045,7.2534693 0.84544476,7.15467211 1.43263415,7.07152601 C2.31341822,6.94680687 7.10627982,6.31666152 8.22723842,5.97859565 C8.97454416,5.7532184 9.56546469,5.42155537 10,4.98360656 L10,8.68607886 C9.69497811,9.05768644 9.10405758,9.37505871 8.22723842,9.63819568 C6.91200969,10.0329011 2.62785911,10.6286089 1.43263415,10.7474005 C0.635817503,10.8265948 0.158272788,10.9273009 0,11.0495188 L0,7.36791758 Z M0,12.2859504 C0.367900045,12.1715021 0.84544476,12.0727049 1.43263415,11.9895588 C2.31341822,11.8648397 7.10627982,11.2346943 8.22723842,10.8966284 C8.97454416,10.6712512 9.56546469,10.3395882 10,9.90163934 L10,13.6041116 C9.69497811,13.9757192 9.10405758,14.2930915 8.22723842,14.5562285 C6.91200969,14.9509339 2.62785911,15.5466417 1.43263415,15.6654332 C0.635817503,15.7446276 0.158272788,15.8453337 0,15.9675516 L0,12.2859504 Z M0,2.38431102 C0.367900045,2.26986274 0.84544476,2.17106555 1.43263415,2.08791946 C2.31341822,1.96320032 7.10627982,1.33305497 8.22723842,0.994989093 C8.97454416,0.769611844 9.56546469,0.437948813 10,0 L10,3.70247231 C9.69497811,4.07407988 9.10405758,4.39145215 8.22723842,4.65458912 C6.91200969,5.04929457 2.62785911,5.64500237 1.43263415,5.7637939 C0.635817503,5.84298825 0.158272788,5.94369438 0,6.06591228 L0,2.38431102 Z"/>
  </g>
</svg>
