<svg xmlns="http://www.w3.org/2000/svg" width="16" height="16" viewBox="0 0 16 16">
  <g fill="none" fill-rule="evenodd">
    <path fill="#CBD1E1" d="M13.7324356,4 L2.39147041,4 L2.39147041,4 C2.16608002,4 1.96855266,4.15079891 1.90914886,4.3682202 L-8.46545056e-16,11.3558136 L-2.22044605e-16,3 L12,3 L12,3 C12.7402824,3 13.3866262,3.40219863 13.7324356,4 Z M3,5 L14.5887381,5 L14.5887381,5 C15.4171653,5 16.0887381,5.67157288 16.0887381,6.5 C16.0887381,6.60944352 16.0767604,6.71855834 16.0530187,6.82539569 L14.7196854,12.8253957 L14.7196854,12.8253957 C14.5671729,13.511702 13.9584528,14 13.2554048,14 L2.01438097,14 C1.46209622,14 1.01438097,13.5522847 1.01438097,13 C1.01438097,12.9175729 1.02457217,12.8354619 1.04472266,12.7555358 L3,5 Z M6.43494747,1 L2,1 C1.44771525,1 1,1.44771525 1,2 L1,3 L7.11163097,3 L6.43494747,1 Z M6.43494747,2.66453526e-15 C6.86636293,2.05344596e-15 7.24914353,0.208488025 7.38447349,0.517175656 L8.4741704,3 L0,3.01423173 L0,1.50711587 C4.30562135e-15,0.674758757 0.8954305,1.64908278e-14 2,1.4859363e-14 L6.43494747,2.66453526e-15 Z"/>
    <polygon fill="#646A7B" points="5.445 8.062 .879 3.478 3.316 1.013 5.445 .692 7.385 1.013 9.914 3.478" opacity=".9" transform="translate(3 5)"/>
  </g>
</svg>
