<svg id="logo" xmlns="http://www.w3.org/2000/svg" viewBox="0 0 16 16"><defs><style>.cls-1{fill:#ff3e00;}.cls-2{fill:#fff;}</style></defs><title>svelte-icon</title><g id="svelte"><path class="cls-1" d="M13.67,2.24A4.78,4.78,0,0,0,7.28.86L3.63,3.2A4.14,4.14,0,0,0,1.75,6a4.3,4.3,0,0,0,.44,2.82,4.12,4.12,0,0,0-.63,1.57,4.48,4.48,0,0,0,.76,3.37,4.78,4.78,0,0,0,6.39,1.38l3.65-2.33A4.08,4.08,0,0,0,14.24,10a4.33,4.33,0,0,0-.43-2.83,4.12,4.12,0,0,0,.62-1.56,4.34,4.34,0,0,0-.76-3.39"/><path class="cls-2" d="M6.92,14a2.89,2.89,0,0,1-3.1-1.16,2.66,2.66,0,0,1-.47-2c0-.12.06-.22.08-.34l.07-.21.19.13a4.67,4.67,0,0,0,1.43.71l.13,0v.14a.88.88,0,0,0,.14.54.89.89,0,0,0,1,.36,2,2,0,0,0,.22-.09l3.64-2.33a.76.76,0,0,0,.34-.5.82.82,0,0,0-.13-.61.87.87,0,0,0-.94-.34.92.92,0,0,0-.23.09l-1.39.89a2.78,2.78,0,0,1-.75.32A2.89,2.89,0,0,1,4,8.41a2.69,2.69,0,0,1-.45-2A2.49,2.49,0,0,1,4.68,4.7L8.33,2.38A2.77,2.77,0,0,1,9.07,2a2.88,2.88,0,0,1,3.1,1.16,2.66,2.66,0,0,1,.47,2c0,.12-.05.22-.09.34l-.07.21-.19-.13a4.67,4.67,0,0,0-1.43-.71l-.13,0V4.76a.86.86,0,0,0-1.09-.89L9.43,4,5.79,6.29a.76.76,0,0,0-.34.5.81.81,0,0,0,.13.61.87.87,0,0,0,.94.35l.23-.09,1.39-.89a2.83,2.83,0,0,1,.75-.34A2.89,2.89,0,0,1,12,7.59a2.69,2.69,0,0,1,.46,2,2.49,2.49,0,0,1-1.14,1.68L7.66,13.62a2.63,2.63,0,0,1-.74.34"/></g></svg>