<svg xmlns="http://www.w3.org/2000/svg" width="16" height="16" viewBox="0 0 16 16">
  <path fill="#EF8457" d="M10.5600526,11.1697475 C8.91093881,12.080987 6.64345153,12.1746121 4.36218335,11.2393748 C2.51508404,10.4876699 0.982471817,9.17184823 0,7.66843832 C0.471589299,8.0442908 1.02176504,8.34510798 1.61123399,8.60806951 C3.96713102,9.66430961 6.32253335,9.59197829 7.98012769,8.61077349 C7.97906762,8.6097595 7.97836091,8.6090835 7.97765419,8.60806951 C5.6197077,6.87887772 3.61547084,4.62342486 2.12218718,2.78168013 C1.80766475,2.48093055 1.5718701,2.10501047 1.33607545,1.76670944 C3.14381087,3.34549264 6.01274589,5.33764597 7.03429892,5.90176268 C4.87317187,3.72134512 2.94738012,1.01500449 3.02582521,1.09003978 C6.44490063,4.39801478 9.62828741,6.27761516 9.62828741,6.27761516 C9.73358758,6.33439862 9.81485953,6.38171818 9.88023044,6.42396779 C9.94913492,6.25632136 10.0095588,6.08225299 10.0604421,5.90176268 C10.6106179,3.98464465 9.98199705,1.80422709 8.60638103,0 C11.7894145,1.84191373 13.6759837,5.30012832 12.8897659,8.19473319 C12.8692713,8.27281046 12.8470098,8.34987373 12.8229816,8.42558502 C12.8321689,8.43606292 12.8413561,8.44687882 12.8505434,8.45803272 C14.4222721,10.3376331 13.9901174,12.3297864 13.7936513,11.953934 C12.9410026,10.3579129 11.3625601,10.8459803 10.5600879,11.1697813 L10.5600526,11.1697475 Z" transform="translate(1 2)"/>
</svg>
