<svg xmlns="http://www.w3.org/2000/svg" width="16" height="16" viewBox="0 0 16 16">
  <g fill="none" fill-rule="evenodd">
    <path fill="#E1C8A5" d="M5.63980429,12.7037817 C5.50841484,12.8902958 5.37501695,13.1132891 5.22962821,13.3393755 C5.05370741,13.3956955 4.58851315,13.8850709 3.9519983,14.0749109 C2.79888833,13.2176494 2.67651485,11.79832 2.6469703,11.71032 C2.63540594,11.67616 2.62336634,11.64224 2.61219802,11.6076 L2.66758568,11.6467214 L2.46641678,10.732236 L1.11435714,7.2093729 C0.964582438,6.60044544 1.36609376,6.20081069 2.31889109,6.01046866 C2.23730693,6.10918866 6.5186115,6.68154068 7.32168815,6.41156486 C8.00699508,6.35956486 11.1174699,6.52055998 11.3078857,6.52391998 C11.2236035,6.59287179 13.0246608,6.54742727 13.9096872,6.72280587 C14.4211559,6.82415954 14.2783154,7.28915668 14.2248789,7.32167983 L13.0060198,11.1623265 C12.8990146,11.175503 12.5610941,12.8682989 11.7654486,13.1864048 C11.32038,13.3643471 10.0967908,12.9714218 9.32003854,13.0199921 C8.30042471,13.0837485 6.79877054,12.8868526 5.63980429,12.7037817 Z M10.6137636,14.5572143 C10.8776052,14.8211343 9.12582054,16.051713 8.01589844,16 C6.90597634,15.948287 4.98724317,14.9554206 5.22962821,14.737504 C5.73806594,14.2803924 7.39409559,13.6539644 7.48034477,13.6363579 L10.6137636,14.5572143 Z"/>
    <path fill="#D0102A" d="M9.51469675 6.41727666L8.34186139 7.10512C8.34186139 7.10512 4.94471287 8.15304 4.86487129 8.218L4.75912871 8.13224 5.35182951 7.35720908C3.09252884 7.98144517.419960396 9.38344.419960396 9.38344L.233425743 9.42216C.91410862 8.66568665.920082134 7.08315665 1.47684709 6.51215058 2.00158752 5.97398817 2.44976577 6.846 2.44976577 6.846L5.96159181 6.55986808 6.26385053 6.16462675C8.31734049 5.98758552 9.54455291 5.98758552 9.94548779 6.16462675L9.53982302 6.40254063 13.8621307 6.64357016C14.0382372 6.87096857 14.3722319 7.51995857 14.2079953 7.76859734 13.9264465 8.19483579 12.6153781 8.02735487 12.7816296 7.71111814 12.9654012 7.36155547 12.5388901 7.19475826 12.3717936 7.26079492 11.0686695 7.77579066 9.25718684 8.426 8.41774257 8.426 8.41774257 8.426 8.42653465 8.32144 8.34067327 8.35656L8.43786139 8.11816 9.51469675 6.41727666zM2.55009901 13.63384C2.54051485 13.62944 2.53085149 13.62496 2.52126733 13.62048 2.45291089 13.56088 2.3969901 13.51216 2.36047525 13.4804L2.55009901 13.63384zM12.5238812 12.9328L10.5400396 12.88952 9.29893069 11.91472 7.7989703 12.29376 6.064 12.14216 5.09251485 13.2144 3.26946535 13.76432 2.35920792 13.47936C2.33021782 13.45408 2.31342574 13.43944 2.31342574 13.43944L2.7219802 14.44984C2.7219802 14.44984 3.47313246 14.81208 3.99004335 14.92992 4.50687503 15.04784 5.27390456 15.2538263 5.974261 15.1443063 6.67453822 15.0348663 7.10637399 14.86232 7.3314829 14.44984 7.5565126 14.03712 7.89508911 13.9156336 7.89508911 13.9156336 7.89508911 13.9156336 8.85760611 14.7255109 9.43281403 14.8350309 10.0080219 14.9444709 11.5841584 14.72768 11.5841584 14.72768 11.5841584 14.72768 12.6263762 14.44144 12.8097426 14.07936 12.9931089 13.71728 13.4767525 12.53008 13.4767525 12.53008L12.9532673 12.81072 12.5238812 12.9328z"/>
    <path fill="#E9C870" d="M14.6218614,5.4908 C14.6171881,5.45264 14.6112475,5.4128 14.6047525,5.37592 C14.4615446,5.25424 14.2988515,5.14592 14.1294257,5.0476 C13.945901,4.93928 13.7537426,4.84224 13.557703,4.75216 C13.3630099,4.65936 13.1630891,4.57536 12.961901,4.49352 C12.8615446,4.45232 12.7603168,4.41248 12.6586139,4.37432 C12.5573069,4.3344 12.4549703,4.2972 12.3523168,4.25952 C12.5676832,4.29552 12.7808317,4.34488 12.992396,4.39992 C13.1300594,4.43584 13.2669307,4.47608 13.4028515,4.51904 C12.4356436,1.96592 10.0798416,-1.11022302e-16 7.55493069,-1.11022302e-16 C5.02970297,-1.11022302e-16 2.76071287,1.96592 1.79374257,4.51904 C1.92974257,4.47608 2.06661386,4.43584 2.2039604,4.39992 C2.41576238,4.34488 2.6289901,4.29552 2.84427723,4.25952 C2.74130693,4.2972 2.63928713,4.3344 2.53758416,4.37432 C2.43643564,4.41248 2.33512871,4.45232 2.23429703,4.49352 C2.03318812,4.57536 1.83374257,4.65936 1.63857426,4.75216 C1.4430099,4.84224 1.25077228,4.93928 1.06716832,5.0476 C0.897742574,5.14592 0.735207921,5.25424 0.591445545,5.37592 C0.58550495,5.4128 0.579485149,5.45264 0.574732673,5.4908 C0.568316832,5.54456 0.56229703,5.59864 0.557940594,5.6528 C0.548594059,5.76152 0.544792079,5.87072 0.543841584,5.98032 C0.54170297,6.19912 0.556277228,6.41792 0.583762376,6.63448 C0.613386139,6.8516 0.652831683,7.06728 0.711128713,7.27576 C0.739881188,7.38024 0.772514851,7.4832 0.810138614,7.58288 C0.829148515,7.63264 0.849663366,7.68168 0.871128713,7.72936 C0.881821782,7.75312 0.892990099,7.77648 0.904158416,7.79904 L0.917940594,7.82552 C0.933782178,7.83368 0.95049505,7.842 0.966336634,7.84976 L1.06249505,7.89616 C1.1160396,7.92072 1.19025743,7.95632 1.25164356,7.98408 L1.0830099,7.28832 C1.12079208,7.27784 1.45972277,7.18952 2.04388119,7.07728 C1.99667327,7.06824 1.94914851,7.05776 1.90233663,7.04656 C1.76934653,7.01312 1.63809901,6.97248 1.51112871,6.9204 C1.44807921,6.89352 1.38590099,6.86416 1.32673267,6.83048 C1.26748515,6.79608 1.20918812,6.7572 1.16411881,6.70552 C1.80578218,6.91704 3.13172277,6.8212 4.31041584,6.69824 C5.38843564,6.586 6.46891089,6.5132 7.55493069,6.51112 C8.64110891,6.5132 9.72205941,6.586 10.7995248,6.69824 C11.9786931,6.8212 13.3046337,6.91704 13.946297,6.70552 C13.9012277,6.7572 13.8430099,6.79608 13.7837624,6.83048 C13.7245941,6.86416 13.6624158,6.89352 13.5993663,6.9204 C13.4722376,6.97248 13.3410693,7.01312 13.2081584,7.04656 C13.1884356,7.05136 13.1685545,7.05568 13.1488317,7.06 C13.7893069,7.18 14.1621386,7.27744 14.2019802,7.28832 L14.0312871,7.94248 C14.0655842,7.92688 14.1002772,7.91168 14.1342574,7.89616 L14.2302574,7.84976 C14.2461782,7.842 14.2624158,7.83368 14.2787327,7.82552 L14.2919604,7.79904 C14.3036832,7.77648 14.3148515,7.75312 14.3254653,7.72936 C14.3470099,7.68168 14.367604,7.63264 14.3864554,7.58288 C14.4241584,7.4832 14.4568713,7.38024 14.4855446,7.27576 C14.5439208,7.06728 14.5833663,6.8516 14.6129109,6.63448 C14.6404752,6.41792 14.6549703,6.19912 14.6529109,5.98032 C14.6519604,5.87072 14.6480792,5.76152 14.6386535,5.6528 C14.634297,5.59864 14.6283564,5.54456 14.6218614,5.4908 Z"/>
    <path fill="#181E24" d="M13.9841526,11.06528 L12.042472,12.0672224 L8.40087129,11.534 L8.06917822,9.93699566 C8.05713862,9.89587566 8.02276238,9.86563566 7.98070298,9.85867566 C7.85555446,9.83827566 7.744901,9.82787566 7.65270298,9.82787566 C7.56002971,9.82787566 7.44977228,9.83827566 7.32406931,9.85867566 C7.28240595,9.86563566 7.24818812,9.89587566 7.23575248,9.93699566 L6.77411208,11.38888 L3.4163299,12.14352 L1.87159132,11.010767 L1.0569159,8.97970495 C1.11402481,8.94714495 1.17200501,8.91466495 1.23069807,8.88226495 C1.31307431,8.86434495 1.40574758,8.84538495 1.50824263,8.82546495 L2.62853167,10.41808 C2.63241286,10.4496 2.64960098,10.47784 2.67534355,10.496 L3.36751306,11.14632 C3.38636454,11.1592 3.40870118,11.16616 3.43103781,11.16616 C3.43642395,11.16616 4.30822124,11.0334667 6.04642968,10.76808 C6.05585542,10.76592 6.06536037,10.76248 6.07391482,10.75808 C6.09957819,10.74432 6.11985542,10.72048 6.12840987,10.69144 L6.85108911,9.03592 C6.98439604,9.00128 7.3260198,8.92072 7.62621782,8.92072 C7.92562376,8.92072 8.34932015,8.94506495 8.4827855,8.97970495 L9.00024241,10.6336747 C9.07967699,10.5626347 9.05006419,10.7072747 9.09418301,10.7125547 L11.7402011,11.010767 C11.7668942,11.013727 11.7943001,11.006687 11.8161615,10.991247 L12.6689688,10.3067849 C12.6937608,10.2890249 12.7104737,10.2611049 12.7147509,10.2304649 L14.046986,8.35651523 C14.2305108,8.39203523 14.3840949,8.42451523 14.5046494,8.45083523 L13.9841526,11.06528 Z"/>
    <path fill="#E1C8A5" d="M12.6496634,11.29712 L12.7616634,11.21768 C12.7430495,11.29624 12.7229307,11.37416 12.7019406,11.45128 C12.546297,11.9552 12.3626139,12.40088 12.158495,12.79464 C12.1134257,12.79784 12.0657426,12.7996 12.0148119,12.7996 C11.8572673,12.7996 11.6964752,12.78608 11.518495,12.76968 C11.2095842,12.74104 10.7193663,12.68432 10.5644356,12.66616 C10.4311287,12.55872 9.97473267,12.19248 9.5950099,11.89064 C9.58011881,11.8784 9.56728713,11.86712 9.55469307,11.85672 C9.48784158,11.7996 9.41188119,11.73472 9.25790099,11.73472 C9.1180198,11.73472 8.91382178,11.78608 8.42019802,11.93696 C8.67667327,11.74336 8.67841584,11.49336 8.67841584,11.49336 L8.69045545,11.38808 L11.9444752,11.76144 C11.9709307,11.76448 11.9984158,11.7576 12.0207525,11.742 L12.3476436,11.51064 L12.6496634,11.29712"/>
    <path fill="#292C2D" d="M10.4984243,10.2320241 C10.1556916,10.2441841 9.86785001,10.2480241 9.84899852,9.70426406 C9.83006783,9.16010406 10.0497114,8.71010406 10.3924441,8.69778406 C10.7351767,8.68578406 11.0478104,9.11722406 11.089949,9.66010406 C11.1015134,9.80962406 11.0851965,9.91874406 11.0483649,9.99962406 C11.3674936,9.96130406 11.4395728,10.1800241 11.4429787,10.1929841 C11.2121668,10.0803441 10.9590975,10.2233041 10.4984243,10.2320241 Z M4.63958396,10.3575754 C4.60481168,10.3584554 4.57186119,10.3589354 4.53914832,10.3593354 C4.50065327,10.3602154 4.46382158,10.3606154 4.42809881,10.3598154 C4.09526713,10.3593354 3.88251465,10.3441354 3.69423743,10.4468554 C3.69891069,10.4350954 3.78136614,10.2483754 4.08029683,10.1726154 C4.04726713,10.0989354 4.02659386,9.99669537 4.02104931,9.85509537 C4.00053446,9.31133537 4.33249485,8.86549537 4.67562356,8.86253537 C5.01835624,8.85901537 5.25772257,9.29885537 5.26287109,9.84293537 C5.2679404,10.3870954 4.98271267,10.3542154 4.63958396,10.3575754 Z"/>
    <path fill="#A57140" d="M5.29584075,1.62902712 C4.76411428,2.8490782 4.57335915,3.96501306 4.72357537,4.97683169 L5.63337357,5.26284307 C6.79939562,5.5643527 5.9393099,5.85762116 3.05311641,6.14264843 C2.89280688,6.14429901 2.95054267,5.50515315 3.15152368,5.19376308 C3.15941687,5.18153377 3.15941687,5.32407199 3.15152368,5.62137775 L3.78603493,4.97683169 C3.7995277,3.62047846 4.30279631,2.50454361 5.29584075,1.62902712 Z M10.0361471,1.62902712 C10.6429176,2.5063196 10.9530492,3.62314245 10.9665419,4.97949568 L13.3389973,5.94419491 C13.5743555,6.29345652 13.607158,6.46721341 13.4374046,6.4654656 C10.5512111,6.18043832 9.06413447,5.85100192 8.97617465,5.4771564 L10.189392,4.97949568 C10.0774739,3.99749418 10.0263922,2.88067133 10.0361471,1.62902712 Z"/>
    <polygon fill="#B93346" points="9.029 3.184 8.501 3.184 8.501 2.783 7.849 2.783 7.863 4.756 8.191 4.756 8.191 5.209 6.816 5.209 6.816 4.756 7.143 4.756 7.129 2.783 6.601 2.783 6.601 3.184 6.033 3.191 6.047 1.937 9.044 1.93"/>
  </g>
</svg>
