<svg xmlns="http://www.w3.org/2000/svg" width="16" height="16" viewBox="0 0 16 16">
  <g fill="none" fill-rule="evenodd">
    <path fill="#585E6F" d="M14.6218614,5.4908 C14.6283564,5.54456 14.634297,5.59864 14.6386535,5.6528 C14.6480792,5.76152 14.6519604,5.87072 14.6529109,5.98032 C14.6549703,6.19912 14.6404752,6.41792 14.6129109,6.63448 C14.5833663,6.8516 14.5439208,7.06728 14.4855446,7.27576 C14.4568713,7.38024 14.4241584,7.4832 14.3864554,7.58288 C14.367604,7.63264 14.3470099,7.68168 14.3254653,7.72936 C14.3148515,7.75312 14.3036832,7.77648 14.2919604,7.79904 L14.2787327,7.82552 C14.2624158,7.83368 14.2461782,7.842 14.2302574,7.84976 L14.1342574,7.89616 C14.1002772,7.91168 14.0655842,7.92688 14.0312871,7.94248 L14.2019802,7.28832 C14.1621386,7.27744 13.7893069,7.18 13.1488317,7.06 C13.1685545,7.05568 13.1884356,7.05136 13.2081584,7.04656 C13.3410693,7.01312 13.4722376,6.97248 13.5993663,6.9204 C13.6624158,6.89352 13.7245941,6.86416 13.7837624,6.83048 C13.8430099,6.79608 13.9012277,6.7572 13.946297,6.70552 C13.3046337,6.91704 11.9786931,6.8212 10.7995248,6.69824 C9.72205941,6.586 8.64110891,6.5132 7.55493069,6.51112 C6.46891089,6.5132 5.38843564,6.586 4.31041584,6.69824 C3.13172277,6.8212 1.80578218,6.91704 1.16411881,6.70552 C1.20918812,6.7572 1.26748515,6.79608 1.32673267,6.83048 C1.38590099,6.86416 1.44807921,6.89352 1.51112871,6.9204 C1.63809901,6.97248 1.76934653,7.01312 1.90233663,7.04656 C1.94914851,7.05776 1.99667327,7.06824 2.04388119,7.07728 C1.45972277,7.18952 1.12079208,7.27784 1.0830099,7.28832 L1.25164356,7.98408 C1.19025743,7.95632 1.1160396,7.92072 1.06249505,7.89616 L0.966336634,7.84976 C0.95049505,7.842 0.933782178,7.83368 0.917940594,7.82552 L0.904158416,7.79904 C0.892990099,7.77648 0.881821782,7.75312 0.871128713,7.72936 C0.849663366,7.68168 0.829148515,7.63264 0.810138614,7.58288 C0.772514851,7.4832 0.739881188,7.38024 0.711128713,7.27576 C0.652831683,7.06728 0.613386139,6.8516 0.583762376,6.63448 C0.556277228,6.41792 0.54170297,6.19912 0.543841584,5.98032 C0.544792079,5.87072 0.548594059,5.76152 0.557940594,5.6528 C0.56229703,5.59864 0.568316832,5.54456 0.574732673,5.4908 C0.579485149,5.45264 0.58550495,5.4128 0.591445545,5.37592 C0.735207921,5.25424 0.897742574,5.14592 1.06716832,5.0476 C1.25077228,4.93928 1.4430099,4.84224 1.63857426,4.75216 C1.83374257,4.65936 2.03318812,4.57536 2.23429703,4.49352 C2.33512871,4.45232 2.43643564,4.41248 2.53758416,4.37432 C2.63928713,4.3344 2.74130693,4.2972 2.84427723,4.25952 C2.6289901,4.29552 2.41576238,4.34488 2.2039604,4.39992 C2.06661386,4.43584 1.92974257,4.47608 1.79374257,4.51904 C2.76071287,1.96592 5.02970297,-1.11022302e-16 7.55493069,-1.11022302e-16 C10.0798416,-1.11022302e-16 12.4356436,1.96592 13.4028515,4.51904 C13.2669307,4.47608 13.1300594,4.43584 12.992396,4.39992 C12.7808317,4.34488 12.5676832,4.29552 12.3523168,4.25952 C12.4549703,4.2972 12.5573069,4.3344 12.6586139,4.37432 C12.7603168,4.41248 12.8615446,4.45232 12.961901,4.49352 C13.1630891,4.57536 13.3630099,4.65936 13.557703,4.75216 C13.7537426,4.84224 13.945901,4.93928 14.1294257,5.0476 C14.2988515,5.14592 14.4615446,5.25424 14.6047525,5.37592 C14.6112475,5.4128 14.6171881,5.45264 14.6218614,5.4908 Z M9.02057757,3.07595052 L9.03532673,1.82216 L6.03910033,1.82916448 L6.02435116,3.082955 L6.59222113,3.07595052 L6.59222113,2.67483052 L7.12012605,2.67483052 L7.13487521,4.64832 L6.80742967,4.64832 L6.80742967,5.10048 L8.18249505,5.10048 L8.18249505,4.64832 L7.8550495,4.64832 L7.84030034,2.67483052 L8.49299215,2.67483052 L8.49299215,3.07595052 L9.02057757,3.07595052 Z" opacity=".8"/>
    <path fill="#585E6F" d="M9.49530081,6.44791294 L8.43786139,8.11816 L8.34067327,8.35656 C8.42653465,8.32144 8.41774257,8.426 8.41774257,8.426 C9.25718684,8.426 11.0686695,7.77579066 12.3717936,7.26079492 C12.5388901,7.19475826 12.9654012,7.36155547 12.7816296,7.71111814 C12.6385467,7.98328452 13.5897197,8.14526697 14.0370887,7.91341015 L13.7750916,8.7389676 L12.7147509,10.2304649 C12.7104737,10.2611049 12.6937608,10.2890249 12.6689688,10.3067849 L11.8161615,10.991247 C11.7943001,11.006687 11.7668942,11.013727 11.7402011,11.010767 L9.09418301,10.7125547 C9.05006419,10.7072747 9.07967699,10.5626347 9.00024241,10.6336747 L8.4827855,8.97970495 C8.34932015,8.94506495 7.92562376,8.92072 7.62621782,8.92072 C7.3260198,8.92072 6.98439604,9.00128 6.85108911,9.03592 L6.12840987,10.69144 C6.11985542,10.72048 6.09957819,10.74432 6.07391482,10.75808 C6.06536037,10.76248 6.05585542,10.76592 6.04642968,10.76808 C4.30822124,11.0334667 3.43642395,11.16616 3.43103781,11.16616 C3.40870118,11.16616 3.38636454,11.1592 3.36751306,11.14632 L2.67534355,10.496 C2.64960098,10.47784 2.63241286,10.4496 2.62853167,10.41808 L2.03775686,9.57822812 L1.72859737,8.7459308 C2.7099978,8.29252879 4.09487166,7.7045017 5.35182951,7.35720908 L4.75912871,8.13224 L4.86487129,8.218 C4.94471287,8.15304 8.69045545,7.53026873 8.69045545,7.53026873 L9.1539827,6.39209709 C9.26792931,6.4103 9.38224745,6.42904182 9.49530081,6.44791294 Z M14.2004076,7.30602139 C14.2225736,7.31226426 14.2316952,7.31753123 14.2248789,7.32167983 L14.2146176,7.35401347 C14.2102013,7.33811808 14.205454,7.32210731 14.2004076,7.30602139 Z M6.07360071,6.41340235 L5.96159181,6.55986808 L2.44976577,6.846 C2.44976577,6.846 2.36787885,6.68667418 2.23312786,6.54625908 C2.30676949,6.53674932 2.38453247,6.52930296 2.46641678,6.52391998 C2.40873627,6.59371563 4.53744373,6.5439602 6.07360071,6.41340235 Z M12.4006063,12.9301106 L11.1700683,12.9032649 C10.7147884,12.7929599 10.3879227,12.621116 10.0659062,12.517123 L9.29893069,11.91472 L7.7989703,12.29376 L6.064,12.14216 L5.58229885,12.6738194 C5.42852973,12.6625819 5.27956452,12.6472088 5.13819694,12.6296104 C5.10588587,12.6690842 5.07426834,12.712548 5.04348515,12.7604173 C4.86756436,12.8167373 3.9929505,13.212417 3.35643564,13.402257 C2.20332567,12.5449955 2.67651485,11.79832 2.6469703,11.71032 C2.63540594,11.67616 2.62336634,11.64224 2.61219802,11.6076 L2.66758568,11.6467214 L2.65388002,11.5844174 L3.4163299,12.14352 L6.77411208,11.38888 L7.23575248,9.93699566 C7.24818812,9.89587566 7.28240595,9.86563566 7.32406931,9.85867566 C7.44977228,9.83827566 7.56002971,9.82787566 7.65270298,9.82787566 C7.744901,9.82787566 7.85555446,9.83827566 7.98070298,9.85867566 C8.02276238,9.86563566 8.05713862,9.89587566 8.06917822,9.93699566 L8.40087129,11.534 L12.042472,12.0672224 L12.9430824,11.6024911 C12.9016891,12.0494005 12.8054895,12.7064382 12.4006063,12.9301106 Z M10.2146907,14.8573616 C10.209861,15.2073466 9.02639105,16.0470804 8.01589844,16 C7.11157255,15.9578661 5.96051838,15.4693983 5.6962171,15.1720157 C5.78956793,15.1675915 5.88248689,15.1586577 5.974261,15.1443063 C6.67453822,15.0348663 7.10637399,14.86232 7.3314829,14.44984 C7.39530759,14.3327811 7.46826654,14.2391504 7.54004391,14.1650749 C7.71174483,14.1117584 7.82924454,14.0793539 7.8510099,14.0749109 C7.90814228,14.0556308 7.97612849,14.0454199 8.05496852,14.0442782 C8.35286513,14.277331 9.00164875,14.7529367 9.43281403,14.8350309 C9.61821685,14.870306 9.90760836,14.8716882 10.2146907,14.8573616 Z M10.4984243,10.2320241 C10.9590975,10.2233041 11.2121668,10.0803441 11.4429787,10.1929841 C11.4395728,10.1800241 11.3674936,9.96130406 11.0483649,9.99962406 C11.0851965,9.91874406 11.1015134,9.80962406 11.089949,9.66010406 C11.0478104,9.11722406 10.7351767,8.68578406 10.3924441,8.69778406 C10.0497114,8.71010406 9.83006783,9.16010406 9.84899852,9.70426406 C9.86785001,10.2480241 10.1556916,10.2441841 10.4984243,10.2320241 Z M4.63958396,10.3575754 C4.98271267,10.3542154 5.2679404,10.3870954 5.26287109,9.84293537 C5.25772257,9.29885537 5.01835624,8.85901537 4.67562356,8.86253537 C4.33249485,8.86549537 4.00053446,9.31133537 4.02104931,9.85509537 C4.02659386,9.99669537 4.04726713,10.0989354 4.08029683,10.1726154 C3.78136614,10.2483754 3.69891069,10.4350954 3.69423743,10.4468554 C3.88251465,10.3441354 4.09526713,10.3593354 4.42809881,10.3598154 C4.46382158,10.3606154 4.50065327,10.3602154 4.53914832,10.3593354 C4.57186119,10.3589354 4.60481168,10.3584554 4.63958396,10.3575754 Z" opacity=".7"/>
    <path fill="#636877" d="M2.55009901,13.63384 C2.54051485,13.62944 2.53085149,13.62496 2.52126733,13.62048 C2.45291089,13.56088 2.3969901,13.51216 2.36047525,13.4804 L2.55009901,13.63384 Z M12.5238812,12.9328 L10.5400396,12.88952 L9.29893069,11.91472 L7.7989703,12.29376 L6.064,12.14216 L5.09251485,13.2144 L3.26946535,13.76432 L2.35920792,13.47936 C2.33021782,13.45408 2.31342574,13.43944 2.31342574,13.43944 L2.7219802,14.44984 C2.7219802,14.44984 3.47313246,14.81208 3.99004335,14.92992 C4.50687503,15.04784 5.27390456,15.2538263 5.974261,15.1443063 C6.67453822,15.0348663 7.10637399,14.86232 7.3314829,14.44984 C7.5565126,14.03712 7.89508911,13.9156336 7.89508911,13.9156336 C7.89508911,13.9156336 8.85760611,14.7255109 9.43281403,14.8350309 C10.0080219,14.9444709 11.5841584,14.72768 11.5841584,14.72768 C11.5841584,14.72768 12.6263762,14.44144 12.8097426,14.07936 C12.9931089,13.71728 13.4767525,12.53008 13.4767525,12.53008 L12.9532673,12.81072 L12.5238812,12.9328 Z"/>
  </g>
</svg>
