<svg xmlns="http://www.w3.org/2000/svg" width="16" height="16" viewBox="0 0 16 16">
  <g fill="none" fill-rule="evenodd">
    <path fill="#596071" d="M10,1 L10,4.5 L10,4.5 C10,4.77614237 10.2238576,5 10.5,5 L14,5 L10,1 Z"/>
    <path stroke="#596071" stroke-width="1.25" d="M2.625,1.625 L2.625,15.375 L13.375,15.375 L13.375,4.68206301 L10.2359474,1.625 L2.625,1.625 Z"/>
    <path fill="#596071" d="M4,6.9000001 L7,6.9000001 L7,8.10000038 L4,8.10000038 L4,6.9000001 Z M8,6.9000001 L12,6.9000001 L12,8.10000038 L8,8.10000038 L8,6.9000001 Z M4,8.89999962 L6,8.89999962 L6,10.1000004 L4,10.1000004 L4,8.89999962 Z M7,8.89999962 L12,8.89999962 L12,10.1000004 L7,10.1000004 L7,8.89999962 Z M4,10.8999996 L9,10.8999996 L9,12.1000004 L4,12.1000004 L4,10.8999996 Z M10,10.8999996 L12,10.8999996 L12,12.1000004 L10,12.1000004 L10,10.8999996 Z" opacity=".8"/>
  </g>
</svg>
