<svg xmlns="http://www.w3.org/2000/svg" width="16" height="16" viewBox="0 0 16 16">
  <path fill="#585E6F" d="M1,14 L13,14 L13,14 C13.5522847,14 14,13.5522847 14,13 L14,1 L14,1 C14,0.44771525 13.5522847,7.68579428e-16 13,-1.11022302e-16 L1,0 L1,-1.11022302e-16 C0.44771525,-9.5692398e-18 -1.78657678e-16,0.44771525 -1.11022302e-16,1 L0,13 L-1.11022302e-16,13 C9.37667865e-16,13.5522847 0.44771525,14 1,14 Z M8.93557771,7.58398438 L8.93557771,8.16796875 L7.19073601,8.16796875 L7.19073601,13.043638 L5.92578125,13.043638 L5.88870271,8.16796875 L4.07387199,8.16796875 L4.07387199,7 L8.93557771,7 L8.93557771,7.58398438 Z M12.7914062,7.16263269 L12.9285156,7.21849207 L12.9285156,7.85325769 C12.9285156,8.20364832 12.9183594,8.48802332 12.9082031,8.48802332 C12.8980469,8.48802332 12.7914062,8.43216394 12.6695312,8.36614832 C12.2125,8.10716394 11.48125,8.01067957 11.034375,8.14271082 C10.9277344,8.17317957 10.7703125,8.26966394 10.6890625,8.35091394 C10.5671875,8.46771082 10.5417969,8.53880457 10.5417969,8.72669519 C10.5417969,8.92982019 10.5671875,8.98567957 10.7347656,9.14310144 C10.8414062,9.24466394 11.2375,9.47825769 11.6234375,9.67122644 C12.4359375,10.0723983 12.8625,10.2995014 13.0503906,10.7209858 C13.2179687,11.0967671 13.2128906,11.725 13.0503906,12.0804687 C12.8980469,12.415625 12.5628906,12.7558594 12.2328125,12.9132812 C11.5320312,13.2433594 10.3894531,13.2738281 9.49570312,12.9792969 L9.17578125,12.8726562 L9.17578125,11.4609375 L9.4296875,11.64375 C9.75976562,11.8824219 10.1863281,12.0296875 10.6332031,12.0601562 C11.0800781,12.090625 11.4101562,12.009375 11.6132812,11.8164062 C11.7402344,11.6996094 11.765625,11.6335937 11.765625,11.440625 C11.765625,11.0699219 11.5625,11.0409077 10.6890625,10.6143452 C9.9171875,10.2334858 9.65820312,10.1739608 9.4296875,9.83880457 C8.921875,9.10247644 9.07421875,7.97513269 9.7546875,7.46224207 C10.3335937,7.02044519 11.2933594,6.85794519 12.2683594,7.03567957 C12.4765625,7.07630457 12.7101562,7.13216394 12.7914062,7.16263269 Z" transform="translate(0 1)"/>
</svg>
