<svg xmlns="http://www.w3.org/2000/svg" width="16" height="16" viewBox="0 0 16 16">
  <path fill="#5A5F6F" fill-rule="evenodd" d="M2,3 L14,3 C15.1045695,3 16,3.8954305 16,5 L16,12 C16,13.1045695 15.1045695,14 14,14 L2,14 C0.8954305,14 1.3527075e-16,13.1045695 0,12 L0,5 L0,5 C-1.3527075e-16,3.8954305 0.8954305,3 2,3 L2,3 Z M4.01722004,8.92099936 L5.99489814,6.99135105 L5.98115768,6.99135105 L6.00393689,6.01346409 L5.00331203,5.96830522 L5.00331203,6.99135105 L4.99915705,6.99135105 L3.53828083,8.32716249 L2.02093816,7.01383966 L2.02093816,6.00106095 L1.0146805,6.00106095 L1.0146805,6.99135105 L0.997324708,6.99135105 L1.0146805,7.00853412 L1.0146805,7.02231653 L1.02860145,7.02231653 L2.99778525,8.97190324 L2.99778525,10.989321 L4.01722004,10.989321 L4.01722004,8.92099936 Z M12.8369954,6.00124402 L11.9439137,6.00124402 L11.9439137,11 L12.6682324,11 L15.0418266,11 L15.0418266,10.0494774 L12.8369954,10.0494774 L12.8369954,6.00124402 Z M6.81795473,5.96146058 L6.81795473,10.9602166 L7.63452959,10.9602166 L7.63452959,7.44870167 L8.77732465,9.01144128 L9.30928152,9.01144128 L10.417788,7.37199259 L10.417788,10.9204331 L11.2132284,10.9602166 L11.2132284,5.96146058 L10.417788,5.92167714 L10.417788,6.08056433 L9.04027028,8 L7.64092335,5.97035949 L6.81795473,5.96146058 Z"/>
</svg>
