<svg xmlns="http://www.w3.org/2000/svg" xmlns:xlink="http://www.w3.org/1999/xlink" width="16" height="16" viewBox="0 0 16 16">
  <defs>
    <path id="a" d="M2.5,1 L11.2439047,1 L11.2439047,1 C11.379288,1 11.5088845,1.0548996 11.6030707,1.15214968 L14.8591659,4.51416588 L14.8591659,4.51416588 C14.9494941,4.60743242 15,4.73217852 15,4.8620162 L15,15.5 C15,15.7761424 14.7761424,16 14.5,16 L2.5,16 L2.5,16 C2.22385763,16 2,15.7761424 2,15.5 L2,1.5 L2,1.5 C2,1.22385763 2.22385763,1 2.5,1 L2.5,1 Z M5,1 L5,10 C5,11.6568542 6.34314575,13 8,13 C9.65685425,13 11,11.6568542 11,10 L11,1 L5,1 Z"/>
  </defs>
  <g fill="none" fill-rule="evenodd">
    <use fill="#595F70" xlink:href="#a"/>
    <path stroke="#595F70" stroke-width="1.25" d="M2.625,1.625 L2.625,15.375 L14.375,15.375 L14.375,4.91262493 L11.1909523,1.625 L2.625,1.625 Z M4.375,0.375 L11.625,0.375 L11.625,10 C11.625,12.0020322 10.0020322,13.625 8,13.625 C5.99796778,13.625 4.375,12.0020322 4.375,10 L4.375,0.375 Z"/>
    <path fill="#595F70" d="M5,1 L11,1 L11,10 C11,11.6568542 9.65685425,13 8,13 C6.34314575,13 5,11.6568542 5,10 L5,1 Z M6,7 L6,10 C6,11.1045695 6.8954305,12 8,12 C9.1045695,12 10,11.1045695 10,10 L10,7 L6,7 Z M6,1 L6,2 L8,2 L8,1 L6,1 Z M8,2 L8,3 L10,3 L10,2 L8,2 Z M8,4 L8,5 L10,5 L10,4 L8,4 Z M6,3 L6,4 L8,4 L8,3 L6,3 Z M6,5 L6,6 L8,6 L8,5 L6,5 Z M8,6 L8,7 L10,7 L10,6 L8,6 Z" opacity=".54"/>
    <path stroke="#595F70" stroke-width="1.25" d="M6.625,7.625 L6.625,10 C6.625,10.7593915 7.24060847,11.375 8,11.375 C8.75939153,11.375 9.375,10.7593915 9.375,10 L9.375,7.625 L6.625,7.625 Z M6,1.625 L8,1.625 L7.375,1 L7.375,2 L8,1.375 L6,1.375 L6.625,2 L6.625,1 L6,1.625 Z M8,2.625 L10,2.625 L9.375,2 L9.375,3 L10,2.375 L8,2.375 L8.625,3 L8.625,2 L8,2.625 Z M8,4.625 L10,4.625 L9.375,4 L9.375,5 L10,4.375 L8,4.375 L8.625,5 L8.625,4 L8,4.625 Z M6,3.625 L8,3.625 L7.375,3 L7.375,4 L8,3.375 L6,3.375 L6.625,4 L6.625,3 L6,3.625 Z M6,5.625 L8,5.625 L7.375,5 L7.375,6 L8,5.375 L6,5.375 L6.625,6 L6.625,5 L6,5.625 Z M8,6.625 L8.625,6.625 L9.375,6.625 L10,6.625 L9.375,6 L9.375,7 L10,6.375 L8,6.375 L8.625,7 L8.625,6 L8,6.625 Z"/>
  </g>
</svg>
