<svg xmlns="http://www.w3.org/2000/svg" width="16" height="16" viewBox="0 0 16 16">
  <g fill="none" fill-rule="evenodd">
    <path fill="#FAD066" d="M2.5,1 L10.2439047,1 L10.2439047,1 C10.379288,1 10.5088845,1.0548996 10.6030707,1.15214968 L13.8591659,4.51416588 L13.8591659,4.51416588 C13.9494941,4.60743242 14,4.73217852 14,4.8620162 L14,14.5 L14,14.5 C14,14.7761424 13.7761424,15 13.5,15 L2.5,15 L2.5,15 C2.22385763,15 2,14.7761424 2,14.5 L2,1.5 L2,1.5 C2,1.22385763 2.22385763,1 2.5,1 Z"/>
    <path fill="#E09900" d="M2.5,1 L11.2439047,1 L11.2439047,1 C11.379288,1 11.5088845,1.0548996 11.6030707,1.15214968 L14.8591659,4.51416588 L14.8591659,4.51416588 C14.9494941,4.60743242 15,4.73217852 15,4.8620162 L15,15.5 L15,15.5 C15,15.7761424 14.7761424,16 14.5,16 L2.5,16 L2.5,16 C2.22385763,16 2,15.7761424 2,15.5 L2,1.5 L2,1.5 C2,1.22385763 2.22385763,1 2.5,1 Z M3.5,2.25 L10.7192973,2.25 L10.7192973,2.25 C10.8494949,2.25 10.9745576,2.30078561 11.0678941,2.39155855 L13.5985968,4.85275511 L13.5985968,4.85275511 C13.6953919,4.94689174 13.75,5.07617434 13.75,5.21119656 L13.75,14.5 L13.75,14.5 C13.75,14.6380712 13.6380712,14.75 13.5,14.75 L3.5,14.75 L3.5,14.75 C3.36192881,14.75 3.25,14.6380712 3.25,14.5 L3.25,2.5 L3.25,2.5 C3.25,2.36192881 3.36192881,2.25 3.5,2.25 Z"/>
    <path fill="#595F70" d="M5,1 L11,1 L11,10 L11,10 C11,11.6568542 9.65685425,13 8,13 L8,13 L8,13 C6.34314575,13 5,11.6568542 5,10 L5,1 Z"/>
    <path stroke="#E0E3ED" stroke-width="1.25" d="M6.625,7.625 L6.625,10 C6.625,10.7593915 7.24060847,11.375 8,11.375 C8.75939153,11.375 9.375,10.7593915 9.375,10 L9.375,7.625 L6.625,7.625 Z M6,1.625 L8,1.625 L7.375,1 L7.375,2 L8,1.375 L6,1.375 L6.625,2 L6.625,1 L6,1.625 Z M8,2.625 L10,2.625 L9.375,2 L9.375,3 L10,2.375 L8,2.375 L8.625,3 L8.625,2 L8,2.625 Z M8,4.625 L10,4.625 L9.375,4 L9.375,5 L10,4.375 L8,4.375 L8.625,5 L8.625,4 L8,4.625 Z M6,3.625 L8,3.625 L7.375,3 L7.375,4 L8,3.375 L6,3.375 L6.625,4 L6.625,3 L6,3.625 Z M6,5.625 L8,5.625 L7.375,5 L7.375,6 L8,5.375 L6,5.375 L6.625,6 L6.625,5 L6,5.625 Z M8,6.625 L8.625,6.625 L9.375,6.625 L10,6.625 L9.375,6 L9.375,7 L10,6.375 L8,6.375 L8.625,7 L8.625,6 L8,6.625 Z" opacity=".7"/>
  </g>
</svg>
